<?xml version="1.0" standalone="no"?>
<!DOCTYPE svg PUBLIC "-//W3C//DTD SVG 1.1//EN" "http://www.w3.org/Graphics/SVG/1.1/DTD/svg11.dtd" >
<svg xmlns="http://www.w3.org/2000/svg">
<metadata></metadata>
<defs>
<font id="latosemibold_italic" horiz-adv-x="1096" >
<font-face units-per-em="2048" ascent="1649" descent="-399" />
<missing-glyph horiz-adv-x="462" />
<glyph unicode="&#xfb01;" horiz-adv-x="1123" d="M81 -255l138 1124l-89 15q-25 5 -37.5 17t-10.5 36l9 93h148l6 44q11 96 49.5 176.5t103.5 139t156.5 91t210.5 32.5q18 0 39 -1.5t41.5 -4t39 -6t33.5 -8.5l-22 -111q-5 -23 -29 -24t-61 -1q-89 0 -152.5 -17.5t-105.5 -53t-65.5 -89.5t-32.5 -127l-6 -40h593 l-126 -1030h-215l108 871h-372l-101 -833l-49 -202q-14 -44 -40.5 -67.5t-73.5 -23.5h-87z" />
<glyph unicode="&#xfb02;" horiz-adv-x="1148" d="M81 -255l138 1124l-89 15q-25 5 -38 17t-10 36l10 93h147l6 51q10 85 44 161.5t90.5 134.5t136 92t181.5 34q77 0 146.5 -6t137.5 -7h143l-182 -1490h-213l162 1330q-46 5 -91.5 10.5t-87.5 5.5q-111 0 -178.5 -68.5t-81.5 -196.5l-6 -51h232l-19 -158h-225l-103 -834 l-49 -202q-14 -44 -40.5 -67.5t-73.5 -23.5h-87z" />
<glyph horiz-adv-x="0" />
<glyph horiz-adv-x="0" />
<glyph horiz-adv-x="682" />
<glyph unicode=" "  horiz-adv-x="462" />
<glyph unicode="&#x09;" horiz-adv-x="462" />
<glyph unicode="&#xa0;" horiz-adv-x="462" />
<glyph unicode="!" horiz-adv-x="530" d="M70 127q0 30 10.5 56t30 45.5t45 30.5t56.5 11q30 0 56 -11t45 -30.5t30 -45.5t11 -56q0 -31 -11 -56.5t-30 -45t-45 -30t-56 -10.5q-31 0 -56.5 10.5t-45 30t-30 45t-10.5 56.5zM174 516q0 52 0.5 99.5t2.5 92.5t5.5 89.5t10.5 90.5l71 587h199l-72 -587 q-5 -46 -12.5 -90.5t-17 -89.5t-20.5 -92.5t-24 -99.5h-143z" />
<glyph unicode="&#x22;" horiz-adv-x="737" d="M177 1018v160l37 296h184l-37 -296l-38 -160q-10 -38 -29 -58.5t-54 -20.5q-32 0 -46 20.5t-17 58.5zM508 1018v160l37 296h184l-37 -296l-38 -160q-10 -38 -29 -58.5t-54 -20.5q-32 0 -46 20.5t-17 58.5z" />
<glyph unicode="#" horiz-adv-x="1187" d="M37.5 446q-12.5 20 0.5 67l19 69h203l98 311h-229l27 89q10 34 33.5 50t69.5 16h141l112 352q11 35 39 54.5t62 19.5h98l-137 -426h235l135 426h95q33 0 50.5 -22t6.5 -55l-112 -349h214l-29 -89q-9 -35 -32 -50.5t-69 -15.5h-126l-98 -311h167q33 0 45.5 -19.5 t0.5 -68.5l-21 -68h-234l-134 -426h-98q-15 0 -27 7t-19 19.5t-8.5 29t4.5 34.5l108 336h-236l-108 -346q-12 -44 -42 -62t-64 -18h-95l135 426h-135q-33 0 -45.5 20zM434 582h236l98 311h-234z" />
<glyph unicode="$" horiz-adv-x="1187" d="M31 177l75 97q11 13 26 21.5t33 8.5q20 0 42.5 -18t54.5 -41t75.5 -46t106.5 -32l101 507q-63 19 -125.5 44.5t-111 64.5t-78 97.5t-29.5 144.5q0 87 34.5 169t100 145.5t159.5 103.5t212 45l26 137q4 23 22.5 39.5t43.5 16.5h78l-40 -199q106 -15 179.5 -58.5 t124.5 -101.5l-60 -79q-14 -18 -27.5 -26.5t-30.5 -8.5q-14 0 -33.5 12t-46.5 27.5t-61.5 31t-79.5 24.5l-92 -465q66 -22 130 -47t116 -63.5t83.5 -94t31.5 -137.5q0 -99 -37 -188.5t-105.5 -158.5t-166.5 -113t-221 -51l-33 -167q-3 -20 -21.5 -37.5t-43.5 -17.5h-78 l45 226q-120 14 -217.5 63.5t-161.5 124.5zM404 1073q0 -39 14 -68t38 -52t57.5 -40.5t72.5 -32.5l84 426q-70 -7 -119.5 -28.5t-82.5 -52.5t-48.5 -70t-15.5 -82zM577 165q69 7 122.5 30t89.5 59.5t55 84t19 104.5q0 40 -14.5 70t-41 52t-61.5 39t-76 31z" />
<glyph unicode="%" horiz-adv-x="1542" d="M81 0l1180 1439q13 13 30 24t44 11h153l-1181 -1441q-12 -14 -29 -23.5t-40 -9.5h-157zM137 1062q0 99 28.5 178t77.5 134.5t114 85t139 29.5q59 0 108.5 -22t85.5 -62.5t55.5 -98.5t19.5 -131q0 -99 -31 -177.5t-81.5 -133.5t-115 -83.5t-131.5 -28.5q-60 0 -109.5 21.5 t-85 62t-55 97.5t-19.5 129zM301 1062q0 -91 34.5 -130.5t86.5 -39.5q37 0 69 15t56.5 48.5t38.5 87.5t14 131q0 93 -34.5 134.5t-86.5 41.5q-38 0 -70 -16t-56 -51t-38 -89.5t-14 -131.5zM805 291q0 99 28 178.5t77 134.5t114.5 85t138.5 30q59 0 109 -21.5t86 -62.5 t55.5 -98.5t19.5 -130.5q0 -100 -31 -179t-81.5 -133t-115 -82.5t-132.5 -28.5q-60 0 -109.5 21.5t-84.5 61t-54.5 97t-19.5 128.5zM969 291q0 -45 9 -77.5t25 -53t38 -29.5t49 -9q37 0 69 15.5t56.5 49t38.5 87t14 130.5q0 93 -34.5 134t-86.5 41q-38 0 -70.5 -16 t-56.5 -51t-37.5 -89.5t-13.5 -131.5z" />
<glyph unicode="&#x26;" horiz-adv-x="1357" d="M49 351q0 80 26 151t72.5 130t108 106t134.5 80q-37 66 -54 130.5t-17 125.5q0 86 30 161.5t85 132t133.5 89.5t175.5 33q80 0 142 -25.5t104.5 -69.5t64 -102.5t20.5 -124.5l-126 -24q-27 -5 -41 2t-21 34q-6 28 -18.5 54.5t-32 46t-47 32t-64.5 12.5q-47 0 -85 -18.5 t-65 -50t-41.5 -75t-14.5 -92.5q0 -105 89 -227l316 -405q38 65 64 134t39 140q4 20 15 33.5t33 13.5h149q-17 -128 -65.5 -246.5t-122.5 -219.5l243 -312h-182q-27 0 -45.5 3t-33.5 11t-27 19.5t-25 28.5l-74 96q-96 -81 -210 -127.5t-240 -46.5q-89 0 -161.5 25.5t-124 73 t-79 115.5t-27.5 153zM268 379q0 -52 15.5 -94t44 -71t69 -44t89.5 -15q85 0 162 35.5t143 97.5l-322 417q-104 -61 -152.5 -145.5t-48.5 -180.5z" />
<glyph unicode="'" horiz-adv-x="406" d="M177 1018v160l37 296h184l-37 -296l-38 -160q-10 -38 -29 -58.5t-54 -20.5q-32 0 -46 20.5t-17 58.5z" />
<glyph unicode="(" horiz-adv-x="537" d="M78 429q0 148 17.5 288.5t62 282t120 288.5t192.5 308l88 -57q7 -6 14 -13t9 -17.5t-1 -24t-15 -31.5q-71 -115 -127 -230.5t-95 -238.5t-59.5 -256.5t-20.5 -280.5q0 -73 6.5 -153t19.5 -160.5t32.5 -157t45.5 -143.5q7 -18 7 -31.5t-5 -23.5t-13.5 -17.5t-18.5 -13.5 l-100 -57q-42 87 -72.5 181t-49.5 189.5t-28 189t-9 179.5z" />
<glyph unicode=")" horiz-adv-x="537" d="M-38.5 -222q-2.5 10 1 23.5t14.5 31.5q71 115 127 232.5t95 242t59.5 257t20.5 274.5q0 73 -7 153t-20 160.5t-32.5 157t-44.5 143.5q-13 36 -2 55.5t32 30.5l100 57q42 -88 72.5 -181.5t49 -188t28 -188.5t9.5 -181q0 -150 -17.5 -289.5t-62 -281t-120.5 -288 t-192 -308.5l-87 57q-8 6 -14.5 13.5t-9 17.5z" />
<glyph unicode="*" horiz-adv-x="809" d="M161 1083l165 99q39 24 75 27q-18 2 -35 9t-33 18l-143 99l62 89l142 -100q33 -22 50 -47q-5 17 -6 34.5t1 38.5l25 196h102l-24 -194q-4 -41 -22 -75q24 27 62 47l166 98l38 -88l-165 -98q-19 -10 -38 -17.5t-36 -9.5q17 -2 34 -8.5t33 -18.5l142 -100l-61 -87l-142 99 q-15 10 -27.5 20t-21.5 25q9 -31 4 -71l-25 -197h-102l25 195q2 20 6.5 38t12.5 35q-24 -25 -59 -45l-165 -99z" />
<glyph unicode="+" horiz-adv-x="1187" d="M97 607l21 161h406l54 429h172l-53 -429h410l-21 -161h-408l-53 -431h-173l53 431h-408z" />
<glyph unicode="," horiz-adv-x="471" d="M38 142q0 54 37 91t98 37q35 0 61.5 -12.5t44.5 -34.5t26.5 -51.5t8.5 -61.5q0 -47 -13.5 -99.5t-41 -104t-66.5 -101t-90 -90.5l-38 36q-15 14 -16 33q0 13 17 32.5t38.5 46.5t42.5 61t29 77h-5q-30 0 -54.5 11t-42 29.5t-27 44.5t-9.5 56z" />
<glyph unicode="-" horiz-adv-x="714" d="M104 526l22 180h481l-22 -180h-481z" />
<glyph unicode="&#xad;" horiz-adv-x="714" d="M104 526l22 180h481l-22 -180h-481z" />
<glyph unicode="." horiz-adv-x="483" d="M42 127q0 30 10.5 56t30 45.5t45.5 30.5t56 11t56 -11t45 -30.5t30.5 -45.5t11.5 -56q0 -31 -11.5 -56.5t-30.5 -45t-45 -30t-56 -10.5q-31 0 -56.5 10.5t-45 30t-30 45t-10.5 56.5z" />
<glyph unicode="/" horiz-adv-x="868" d="M-27 -96l730 1507q18 36 49 56.5t70 20.5h89l-725 -1503q-20 -40 -55 -60.5t-68 -20.5h-90z" />
<glyph unicode="0" horiz-adv-x="1187" d="M98 575q0 231 48 403.5t129.5 286t190.5 170t232 56.5q91 0 168 -37t132.5 -111t86.5 -185.5t31 -259.5q0 -232 -48 -403.5t-130.5 -285t-192 -169t-231.5 -55.5q-91 0 -167.5 36.5t-131.5 110.5t-86 185t-31 258zM315 562q0 -111 17.5 -186.5t47.5 -123t69.5 -68.5 t85.5 -21q68 0 132.5 38t116.5 125.5t83 230t31 352.5q0 111 -18 188t-48 124.5t-70 69t-85 21.5q-68 0 -133 -38.5t-115.5 -127t-82 -232t-31.5 -352.5z" />
<glyph unicode="1" horiz-adv-x="1187" d="M201 0l20 161h280l116 941q3 24 7 47t8 48l-236 -202q-16 -12 -31.5 -15t-28.5 -0.5t-23 9t-14 15.5l-55 92l457 381h175l-162 -1316h252l-21 -161h-744z" />
<glyph unicode="2" horiz-adv-x="1187" d="M50 0l9 72q2 22 14 46t35 44l476 463q69 67 121.5 125.5t88 116t54 116.5t18.5 128q0 98 -51 148t-135 50q-45 0 -84.5 -15t-71.5 -41t-57 -62.5t-39 -79.5q-19 -40 -44.5 -54.5t-68.5 -5.5l-109 19q27 103 76.5 182t115.5 132t147 80t170 27q83 0 151.5 -25.5t117 -72 t75 -113.5t26.5 -150q0 -94 -27.5 -171t-74.5 -146.5t-109.5 -134.5t-132.5 -132l-383 -375q47 13 94.5 21.5t88.5 8.5h383q34 0 51.5 -20t13.5 -53l-15 -128h-924z" />
<glyph unicode="3" horiz-adv-x="1187" d="M85 370l97 40q39 15 70.5 8t42.5 -37q12 -32 27 -70t40 -70t64 -54t99 -22q69 0 122.5 26.5t90.5 70t56.5 100t19.5 115.5q0 43 -14 80t-47.5 64t-91.5 42t-145 15l19 153q89 1 152.5 20.5t103.5 56t59 89.5t19 119q0 95 -50 144t-134 49q-45 0 -85 -15t-72.5 -41 t-57.5 -62.5t-39 -79.5q-19 -40 -44.5 -54.5t-68.5 -5.5l-108 19q27 103 76.5 182t115.5 132t147 80t170 27q84 0 151 -24.5t113.5 -69t71.5 -106t25 -134.5q0 -82 -18.5 -144.5t-53 -108.5t-85.5 -77.5t-114 -51.5q109 -37 162.5 -112t53.5 -184q0 -117 -43 -208.5 t-114.5 -155.5t-165.5 -97.5t-195 -33.5q-104 0 -177 27.5t-122 78t-78.5 122t-44.5 158.5z" />
<glyph unicode="4" horiz-adv-x="1187" d="M49 531l765 944h200l-115 -932h182l-14 -124q-2 -17 -15.5 -30.5t-34.5 -13.5h-138l-46 -375h-185l46 375h-583q-22 0 -37 13.5t-17 34.5zM273 543h442l67 552q6 52 21 117z" />
<glyph unicode="5" horiz-adv-x="1187" d="M77 147l76 92q26 29 59 28q22 0 44.5 -15.5t52 -35t71.5 -35.5t103 -16q76 0 135.5 28.5t100 79.5t62 118.5t21.5 146.5q0 108 -60 171.5t-178 63.5q-49 0 -101.5 -9t-108.5 -29l-127 38l198 702h661l-11 -93q-5 -46 -37 -74.5t-100 -28.5h-388l-99 -350q50 11 94.5 15.5 t85.5 4.5q96 0 168 -29.5t121 -82t73 -122.5t24 -151q0 -131 -45 -238t-122.5 -182.5t-181 -117.5t-219.5 -42q-62 0 -117.5 13t-102 35.5t-85 52.5t-67.5 62z" />
<glyph unicode="6" horiz-adv-x="1092" d="M113 418q0 66 13 128.5t41 125.5t69.5 127.5t97.5 134.5l391 488q17 22 49.5 37.5t69.5 15.5h188l-469 -545q-15 -18 -30 -35.5t-29 -35.5q45 25 95.5 38.5t107.5 13.5q72 0 135.5 -25t111 -73t76 -118t28.5 -161q0 -116 -41 -216t-113.5 -174.5t-171 -117t-214.5 -42.5 q-95 0 -170.5 31t-127.5 88.5t-79.5 137.5t-27.5 177zM314 409q0 -54 14.5 -100.5t42 -79t69.5 -51t96 -18.5q66 0 122 25.5t97.5 71t65 107.5t23.5 136q0 57 -16 103.5t-46 79t-72.5 50t-95.5 17.5q-65 0 -119.5 -27t-95 -73t-63 -108t-22.5 -133z" />
<glyph unicode="7" horiz-adv-x="1187" d="M169 0l684 1176q20 31 39 55.5t42 47.5h-670q-19 0 -32 15t-11 35l18 146h933l-11 -95q-5 -41 -17 -67t-23 -44l-677 -1195q-18 -31 -47 -52.5t-75 -21.5h-153z" />
<glyph unicode="8" horiz-adv-x="1187" d="M95 356q0 159 76 264.5t229 150.5q-87 39 -130 111t-43 170q0 93 36 173t99.5 139t149.5 93t187 34q86 0 156 -27t119 -74.5t75.5 -111t26.5 -135.5q0 -134 -64 -231.5t-189 -143.5q109 -38 162 -116t53 -190q0 -110 -39.5 -198.5t-109.5 -151t-165.5 -95.5t-208.5 -33 q-96 0 -173.5 26.5t-132 75t-84.5 117t-30 153.5zM315 372q0 -48 14 -88t41.5 -70t69 -46t95.5 -16q68 0 121 23t89.5 64.5t55.5 98.5t19 126q0 55 -17 95.5t-46 67t-69.5 39.5t-87.5 13q-56 0 -108 -17t-91 -54t-62.5 -95t-23.5 -141zM433 1050q0 -39 10 -75.5t32.5 -64.5 t58 -45t87.5 -17q62 0 108.5 22.5t77.5 61t46 89.5t15 109q0 40 -11 76t-34 62.5t-59 42.5t-84 16q-61 0 -107.5 -22t-77.5 -60t-46.5 -88.5t-15.5 -106.5z" />
<glyph unicode="9" horiz-adv-x="1187" d="M176 962q0 110 40 206.5t109.5 168t165.5 113t206 41.5q92 0 165 -30.5t123 -85.5t77 -131.5t27 -166.5q0 -77 -15 -144t-42.5 -129.5t-68 -124t-91.5 -127.5l-378 -503q-17 -20 -48 -34.5t-67 -14.5h-196l491 581q20 25 38.5 47t35.5 45q-52 -37 -114.5 -56t-127.5 -19 q-67 0 -126 24t-105 70t-72.5 113.5t-26.5 156.5zM391 987q0 -108 54 -167t154 -59q67 0 120 25t90.5 68t57.5 100.5t20 121.5q0 54 -15.5 98.5t-43 75t-67 47.5t-87.5 17q-61 0 -113.5 -24t-90 -67t-58.5 -103.5t-21 -132.5z" />
<glyph unicode=":" horiz-adv-x="520" d="M60 127q0 30 10.5 56t30 45.5t45.5 30.5t56 11t56 -11t45 -30.5t30.5 -45.5t11.5 -56q0 -31 -11.5 -56.5t-30.5 -45t-45 -30t-56 -10.5q-31 0 -56.5 10.5t-45 30t-30 45t-10.5 56.5zM144 873q0 30 10.5 56t30 45.5t45.5 30.5t56 11t56 -11t45 -30.5t30.5 -45.5t11.5 -56 q0 -31 -11.5 -56.5t-30.5 -45t-45 -30t-56 -10.5q-31 0 -56.5 10.5t-45 30t-30 45t-10.5 56.5z" />
<glyph unicode=";" horiz-adv-x="543" d="M77 142q0 54 37 91t98 37q35 0 61.5 -12.5t44.5 -34.5t26.5 -51.5t8.5 -61.5q0 -47 -13.5 -99.5t-41 -104t-66.5 -101t-90 -90.5l-38 36q-15 14 -16 33q0 13 17 32.5t38.5 46.5t42.5 61t29 77h-5q-30 0 -54.5 11t-42 29.5t-27 44.5t-9.5 56zM156 873q0 30 10.5 56 t30 45.5t45.5 30.5t56 11t56 -11t45 -30.5t30.5 -45.5t11.5 -56q0 -31 -11.5 -56.5t-30.5 -45t-45 -30t-56 -10.5q-31 0 -56.5 10.5t-45 30t-30 45t-10.5 56.5z" />
<glyph unicode="&#x3c;" horiz-adv-x="1187" d="M165 644l8 68l3 23l853 418l-19 -159q-2 -18 -13.5 -33.5t-34.5 -26.5l-440 -210q-46 -20 -103 -35q53 -12 94 -35l389 -209q38 -22 33 -61l-20 -158z" />
<glyph unicode="=" horiz-adv-x="1187" d="M122 434l20 160h891l-19 -160h-892zM166 784l19 160h891l-18 -160h-892z" />
<glyph unicode="&#x3e;" horiz-adv-x="1187" d="M173 226l21 158q2 19 13 34.5t35 26.5l438 209q46 23 103 35q-53 13 -94 35l-388 210q-20 11 -27.5 26.5t-5.5 33.5l19 159l751 -418l-8 -68l-3 -23z" />
<glyph unicode="?" horiz-adv-x="870" d="M157 1340q35 31 75.5 58t87 47.5t98.5 32.5t111 12q76 0 136 -22.5t101.5 -61.5t63 -91.5t21.5 -114.5q0 -86 -23.5 -146.5t-59.5 -104t-79.5 -75.5t-83.5 -62.5t-71.5 -63t-44.5 -77.5l-39 -155h-146l7 169q2 50 28.5 89t64 72.5t81.5 65t81.5 67.5t62.5 79.5t25 101.5 q0 72 -43 114t-121 42q-55 0 -95 -14.5t-69 -31.5t-48.5 -31t-34.5 -14t-23.5 6t-16.5 21zM211 127q0 30 10.5 56t30 45.5t45.5 30.5t56 11t56 -11t45 -30.5t30.5 -45.5t11.5 -56q0 -31 -11.5 -56.5t-30.5 -45t-45 -30t-56 -10.5q-31 0 -56.5 10.5t-45 30t-30 45t-10.5 56.5 z" />
<glyph unicode="@" horiz-adv-x="1576" d="M84 469q0 129 30.5 248.5t86 222.5t133 188t170 146t198.5 94.5t220 33.5q122 0 229 -42t187.5 -120.5t127 -190.5t46.5 -253q0 -129 -35.5 -240.5t-97 -192.5t-143.5 -127.5t-174 -46.5q-68 0 -112.5 35t-52.5 110q-65 -77 -132 -110t-140 -33q-51 0 -88.5 18t-62 50 t-36.5 75.5t-12 93.5q0 62 16.5 127t48.5 125.5t79 114t108.5 94t137.5 63.5t165 23q70 0 119 -11t93 -32l-136 -374q-25 -73 -30.5 -118.5t3.5 -71.5t29.5 -35t48.5 -9q49 0 94.5 35t81 98t56.5 149.5t21 189.5q0 115 -33 201.5t-92.5 146t-144 90t-187.5 30.5 q-91 0 -176 -27t-158.5 -76.5t-134.5 -120t-104.5 -158t-67.5 -190t-24 -215.5q0 -141 39 -250t111 -183t170.5 -111.5t218.5 -37.5q73 0 136.5 8.5t117 23t97 32.5t76.5 39q19 11 34 12.5t25.5 -3t17 -13.5t9.5 -21l16 -61q-109 -72 -243 -115t-301 -43q-153 0 -278 50 t-214 142.5t-138 225t-49 297.5zM593 452q0 -55 23 -88t69 -33q26 0 53 9t54 32.5t52.5 63.5t47.5 102l107 296q-30 7 -68 7q-68 0 -129.5 -34t-107.5 -88.5t-73.5 -125t-27.5 -141.5z" />
<glyph unicode="A" horiz-adv-x="1312" d="M-75 0l718 1475h235l356 -1475h-178q-31 0 -48 15t-24 39l-70 331h-574l-152 -331q-10 -22 -32 -38t-51 -16h-180zM417 551h463l-117 552q-5 32 -13 73t-15 90q-17 -49 -34.5 -90.5t-31.5 -74.5z" />
<glyph unicode="B" horiz-adv-x="1246" d="M89 0l181 1475h456q119 0 204.5 -24t140 -67.5t80.5 -104.5t26 -137q0 -65 -18 -123t-54.5 -108t-92 -89t-130.5 -63q128 -31 191 -103.5t63 -184.5q0 -102 -37.5 -188t-107.5 -149t-171 -98.5t-228 -35.5h-503zM342 182h268q76 0 132.5 20.5t93 58t54.5 89.5t18 117 q0 89 -57.5 141t-181.5 52h-269zM421 822h215q152 0 229.5 73t77.5 207q0 99 -58.5 145t-178.5 46h-228z" />
<glyph unicode="C" horiz-adv-x="1274" d="M91 625q0 191 60.5 350.5t166 274t247.5 178t304 63.5q80 0 145 -14.5t118 -40.5t96 -63t79 -82l-79 -96q-9 -11 -21.5 -19.5t-30.5 -8.5q-13 0 -26.5 9.5t-30 23t-38.5 29.5t-53 30t-72.5 23t-97.5 9q-113 0 -210 -45.5t-168 -129.5t-112 -203.5t-41 -268.5 q0 -108 27.5 -193.5t76.5 -145t117 -91.5t149 -32q65 0 114.5 10.5t86.5 26t63 34t45.5 34.5t34 26.5t27.5 10.5q11 0 18.5 -5t11.5 -10l81 -101q-95 -106 -224.5 -165t-296.5 -59q-134 0 -239.5 48t-178 133t-111 202.5t-38.5 257.5z" />
<glyph unicode="D" horiz-adv-x="1449" d="M89 0l181 1475h515q138 0 249.5 -47.5t188.5 -132t119 -201t42 -255.5q0 -124 -26.5 -234t-75.5 -203.5t-119 -168t-156.5 -126.5t-188.5 -79.5t-215 -27.5h-514zM343 186h283q117 0 213 44.5t164.5 128t106.5 203.5t38 271q0 104 -26 188.5t-76 144t-121.5 91 t-161.5 31.5h-283z" />
<glyph unicode="E" horiz-adv-x="1099" d="M89 0l181 1475h850l-23 -188h-618l-55 -453h492l-23 -181h-492l-57 -466h620l-24 -187h-851z" />
<glyph unicode="F" horiz-adv-x="1086" d="M89 0l181 1475h850l-23 -188h-618l-59 -482h525l-24 -187h-524l-76 -618h-232z" />
<glyph unicode="G" horiz-adv-x="1390" d="M91 635q0 188 60 345.5t165 271t249.5 176.5t313.5 63q88 0 159.5 -15.5t129.5 -42t104 -62.5t84 -77l-74 -96q-18 -27 -44 -32.5t-52 12.5q-27 16 -55 36t-65.5 37.5t-86.5 28.5t-117 11q-119 0 -217 -46t-168.5 -131t-109.5 -204.5t-39 -266.5q0 -111 28 -198.5 t80 -148t125.5 -93.5t163.5 -33q95 0 166 19.5t136 53.5l37 304h-183q-22 0 -33.5 12t-9.5 31l15 132h441l-71 -580q-56 -40 -115.5 -69.5t-125.5 -49.5t-139 -29.5t-157 -9.5q-134 0 -244 48.5t-188 135t-120.5 206.5t-42.5 261z" />
<glyph unicode="H" horiz-adv-x="1462" d="M89 0l181 1475h233l-80 -650h667l79 650h233l-182 -1475h-232l81 659h-667l-81 -659h-232z" />
<glyph unicode="I" horiz-adv-x="562" d="M89 0l180 1475h232l-180 -1475h-232z" />
<glyph unicode="J" horiz-adv-x="829" d="M-37 11l18 137q2 18 13 31.5t35 13.5q23 0 54.5 -8t83.5 -8q50 0 93.5 17t78 55t58 99t34.5 148l119 979h231l-119 -973q-15 -123 -55 -219.5t-102.5 -163t-147.5 -101t-191 -34.5q-55 0 -104 6.5t-99 20.5z" />
<glyph unicode="K" horiz-adv-x="1291" d="M89 0l180 1476h231l-79 -636h62q36 0 60 10.5t45 34.5l466 537q24 31 51 42t62 11h197l-553 -627q-42 -51 -85 -72q28 -11 48.5 -30t36.5 -52l408 -694h-202q-43 0 -61 12.5t-30 34.5l-343 567q-14 27 -36 38.5t-66 11.5h-82l-81 -664h-229z" />
<glyph unicode="L" horiz-adv-x="982" d="M89 0l181 1475h231l-158 -1281h558l-23 -194h-789z" />
<glyph unicode="M" horiz-adv-x="1784" d="M89 0l181 1475h172q15 0 25.5 -2t19 -6t15.5 -11t15 -19l330 -881q15 -48 26 -98q11 26 23.5 50t27.5 48l543 881q22 24 38 31t45 7h173l-181 -1475h-202l125 1018q3 24 9 53.5t13 58.5l-540 -881q-31 -51 -88 -51h-32q-27 0 -47 12.5t-29 38.5l-328 881q-1 -30 -2.5 -57 t-3.5 -51l-125 -1022h-203z" />
<glyph unicode="N" horiz-adv-x="1462" d="M89 0l181 1475h120q31 0 45 -6.5t28 -31.5l603 -1061q3 56 9 100l123 999h204l-182 -1475h-117q-28 0 -45.5 9.5t-32.5 32.5l-601 1061q-2 -24 -3.5 -45t-3.5 -39l-125 -1019h-203z" />
<glyph unicode="O" horiz-adv-x="1534" d="M91 634q0 124 27 235.5t76.5 206.5t120 172t157.5 131t188.5 83t213.5 29q138 0 249 -49t189 -136.5t119.5 -207t41.5 -259.5q0 -123 -27 -234.5t-76.5 -206.5t-120 -171t-157.5 -130t-188.5 -83t-214.5 -29q-138 0 -249 49t-188.5 135.5t-119 205.5t-41.5 259zM328 641 q0 -105 26.5 -190.5t76 -146.5t121.5 -94t163 -33q117 0 212.5 46.5t164 132t106 207t37.5 271.5q0 105 -26.5 190.5t-77 146.5t-122.5 93.5t-162 32.5q-116 0 -211.5 -46.5t-164 -132.5t-106 -207t-37.5 -270z" />
<glyph unicode="P" horiz-adv-x="1171" d="M89 0l180 1475h428q121 0 209.5 -29.5t146.5 -82t85.5 -126t27.5 -161.5q0 -118 -37 -216.5t-111 -170.5t-183 -112t-252 -40h-199l-66 -537h-229zM407 719h198q82 0 144 25t103 69.5t61.5 106.5t20.5 136q0 109 -63.5 173t-195.5 64h-198z" />
<glyph unicode="Q" horiz-adv-x="1534" d="M91 634q0 124 27 235.5t76.5 206.5t120 172t157.5 131t188.5 83t213.5 29q138 0 249 -49t189 -136.5t119.5 -207t41.5 -259.5q0 -121 -26 -229.5t-73 -202.5t-114.5 -169.5t-150.5 -129.5l296 -405h-188q-42 0 -73.5 12t-54.5 41l-184 258q-101 -29 -209 -29h-7 q-138 0 -249 49t-188.5 135.5t-119 205.5t-41.5 259zM328 641q0 -105 26.5 -190.5t76 -146.5t121.5 -94t163 -33q117 0 212.5 46.5t164 132t106 207t37.5 271.5q0 105 -26.5 190.5t-77 146.5t-122.5 93.5t-162 32.5q-116 0 -211.5 -46.5t-164 -132.5t-106 -207.5 t-37.5 -269.5z" />
<glyph unicode="R" horiz-adv-x="1212" d="M89 0l180 1475h404q123 0 211.5 -26.5t145.5 -73.5t84.5 -113t27.5 -147q0 -87 -25 -163t-72.5 -137.5t-115.5 -106t-153 -68.5q40 -26 65 -73l288 -567h-205q-61 0 -82 48l-245 502q-13 26 -31 37t-55 11h-119l-74 -598h-229zM413 765h169q83 0 145.5 24t103 66t61 99.5 t20.5 123.5q0 103 -64.5 159t-195.5 56h-175z" />
<glyph unicode="S" horiz-adv-x="1048" d="M5 177l81 111q10 12 25 20.5t31 8.5q23 0 46.5 -22t58 -49t83.5 -49t122 -22q63 0 114 19.5t86.5 55t54.5 86t19 111.5q0 53 -24 88t-63.5 60t-89.5 42t-102.5 36.5t-102.5 44.5t-89.5 63.5t-63.5 95.5t-24 139q0 93 33.5 178.5t97.5 151t155.5 105t205.5 39.5 q58 0 111.5 -12t101 -34t85.5 -52.5t68 -67.5l-68 -98q-13 -17 -25 -26t-30 -9t-39 17t-51 37.5t-72 37t-102 16.5t-107.5 -18t-79.5 -49.5t-48.5 -74t-16.5 -91.5q0 -50 24 -83.5t64 -58t90 -44t103.5 -40t103.5 -46.5t90 -64.5t64 -92.5t24 -131q0 -106 -36.5 -201.5 t-105 -166.5t-166 -112.5t-219.5 -41.5q-65 0 -125.5 13.5t-114 38.5t-98.5 61t-79 80z" />
<glyph unicode="T" horiz-adv-x="1129" d="M111 1282l22 193h1070l-24 -193h-418l-158 -1282h-229l156 1282h-419z" />
<glyph unicode="U" horiz-adv-x="1410" d="M144 584l108 891h230l-108 -891q-5 -40 -5 -78q0 -44 7 -84q13 -74 48.5 -126t92 -81.5t133.5 -29.5t141 29.5t112.5 82t79.5 126t42 161.5l110 891h230l-109 -891q-16 -129 -68 -239.5t-134 -190.5t-190.5 -125.5t-237.5 -45.5t-226.5 45.5t-159.5 125.5t-87 190 q-15 67 -15 142q0 48 6 98z" />
<glyph unicode="V" horiz-adv-x="1310" d="M104 1475h186q30 0 47.5 -15.5t21.5 -39.5l222 -978q10 -39 18 -84.5t14 -94.5q16 49 34.5 94.5t37.5 84.5l459 978q8 20 31 37.5t53 17.5h185l-730 -1475h-209z" />
<glyph unicode="W" horiz-adv-x="1970" d="M121 1475h181q30 0 48.5 -15t21.5 -40l143 -965q3 -31 5.5 -66t4.5 -73q11 39 24 74t25 65l402 965q9 20 31 37.5t52 17.5h53q30 0 48 -15.5t24 -39.5l165 -965q5 -30 9 -64t6 -70q11 37 21.5 70.5t20.5 63.5l380 965q7 22 31 38.5t54 16.5h181l-603 -1475h-209 l-182 1072q-3 18 -5.5 40t-4.5 45q-8 -24 -16 -45t-16 -40l-446 -1072h-208z" />
<glyph unicode="X" horiz-adv-x="1269" d="M-79 0l577 787l-338 688h209q24 0 34.5 -7.5t18.5 -24.5l243 -531q5 10 11 20.5t13 21.5l342 487q11 17 24 25.5t30 8.5h240l-508 -677l379 -798h-207q-24 0 -37 13.5t-20 28.5l-276 615q-8 -16 -20 -33l-411 -582q-15 -24 -33.5 -33t-39.5 -9h-231z" />
<glyph unicode="Y" horiz-adv-x="1219" d="M103 1475h205q30 0 47 -15t25 -39l216 -545q23 -66 35 -128q14 31 31 62t37 66l353 545q12 20 32 37t50 17h191l-605 -894l-73 -581h-230l72 581z" />
<glyph unicode="Z" horiz-adv-x="1143" d="M-33 0l9 72q2 16 9.5 29.5t16.5 27.5l856 1158h-691l23 188h1002l-10 -73q-2 -16 -9.5 -30t-17.5 -29l-853 -1156h717l-24 -187h-1028z" />
<glyph unicode="[" horiz-adv-x="603" d="M59 -304l231 1881h373l-11 -85q-2 -23 -20.5 -38.5t-42.5 -15.5h-138l-198 -1603h140q25 0 38.5 -16.5t10.5 -39.5l-10 -83h-373z" />
<glyph unicode="\" horiz-adv-x="861" d="M165 1488h89q39 0 65 -20.5t35 -56.5l360 -1507h-89q-34 0 -64 20.5t-40 60.5z" />
<glyph unicode="]" horiz-adv-x="604" d="M-58 -304l11 83q2 24 20 40t42 16h141l196 1603h-139q-26 0 -39.5 15.5t-10.5 38.5l10 85h374l-232 -1881h-373z" />
<glyph unicode="^" horiz-adv-x="1187" d="M200 800l374 675h142l375 -675h-160q-20 0 -34 11t-24 28l-180 324q-14 27 -25.5 51.5t-19.5 48.5q-8 -24 -18 -48.5t-25 -51.5l-177 -324q-8 -15 -22.5 -27t-37.5 -12h-168z" />
<glyph unicode="_" horiz-adv-x="910" d="M-29 -296l18 140h743l-17 -140h-744z" />
<glyph unicode="`" horiz-adv-x="753" d="M266 1491h191q34 0 49.5 -12.5t27.5 -37.5l108 -248h-116q-23 0 -36.5 7t-26.5 26z" />
<glyph unicode="a" horiz-adv-x="1057" d="M43 355q0 93 23.5 182t66.5 167t103.5 143.5t135 113t161.5 73.5t182 26q69 0 136.5 -11t131.5 -37l-125 -1012h-116q-42 0 -57 21.5t-15 53.5l13 169q-36 -59 -76.5 -107t-85.5 -81.5t-95 -52t-104 -18.5q-60 0 -111.5 23.5t-88.5 70.5t-58 116t-21 160zM262 395 q0 -117 37.5 -172.5t106.5 -55.5q46 0 90 30t83 83t73 124.5t59 155.5l42 337q-17 2 -34.5 3t-34.5 1q-88 0 -165.5 -41t-134 -110.5t-89.5 -161t-33 -193.5z" />
<glyph unicode="b" horiz-adv-x="1093" d="M50 0l183 1516h216l-87 -704q38 56 81 102.5t90.5 79t98 50t103.5 17.5q66 0 118.5 -24t89.5 -73t57 -121t20 -168q0 -87 -18 -172t-50.5 -161.5t-79.5 -142t-103 -113t-121.5 -74.5t-136.5 -27q-81 0 -146 33.5t-108 92.5l-11 -49q-10 -33 -25.5 -47.5t-52.5 -14.5h-118 zM292 239q37 -46 86.5 -65t98.5 -19t92 20.5t79.5 56t64.5 84.5t48 104t30.5 115t10.5 118q0 116 -40 174t-112 58q-45 0 -92 -30t-90 -82t-80.5 -123.5t-63.5 -154.5z" />
<glyph unicode="c" horiz-adv-x="929" d="M51 418q0 84 18.5 165t52.5 152t82.5 131t109 103t131 67t149.5 24q104 0 175.5 -37t125.5 -109l-70 -84q-8 -8 -18 -14.5t-23 -6.5q-15 0 -29.5 11t-35 25t-51 26t-78.5 12q-65 0 -122.5 -35t-101 -97t-69.5 -148t-26 -187q0 -121 54 -189.5t152 -68.5q63 0 105.5 18.5 t71.5 40t50.5 39.5t45.5 18q22 0 40 -20l55 -68q-52 -58 -100.5 -96.5t-97 -62t-101 -33t-115.5 -9.5q-91 0 -161.5 31t-119 88t-74 137t-25.5 177z" />
<glyph unicode="d" horiz-adv-x="1094" d="M49 371q0 87 18 172t51 161.5t79.5 141.5t102.5 113t121 75t136 27q74 0 134.5 -27.5t103.5 -78.5l69 561h215l-187 -1516h-116q-42 0 -56.5 21.5t-14.5 53.5l13 178q-39 -61 -83 -110.5t-92.5 -84.5t-101 -54t-107.5 -19q-132 0 -208.5 96.5t-76.5 289.5zM266 393 q0 -116 40 -174t112 -58q45 0 92 29.5t90 82t80.5 124t63.5 155.5l32 257q-37 45 -86.5 63t-98.5 18q-74 0 -134 -44.5t-102.5 -116t-65.5 -160t-23 -176.5z" />
<glyph unicode="e" horiz-adv-x="989" d="M51 415q0 82 17.5 161t51 151t81 133t108.5 105t134 69t157 25q81 0 140.5 -23t99 -59.5t59 -80.5t19.5 -86q0 -69 -28.5 -126t-101 -103t-199 -80t-324.5 -55q-1 -6 -1 -12.5v-13.5q0 -130 56.5 -196t168.5 -66q71 0 118 19.5t80.5 42.5t58.5 42.5t53 19.5q22 0 40 -21 l55 -67q-53 -54 -104.5 -94t-104.5 -65.5t-111.5 -37.5t-127.5 -12q-91 0 -163.5 30.5t-124.5 86.5t-79.5 135t-27.5 178zM285 591q141 18 227 40.5t132 49.5t61.5 57t15.5 64q0 16 -7 34.5t-23 33t-41.5 24t-61.5 9.5q-57 0 -106 -23.5t-87.5 -65t-66.5 -99t-43 -124.5z " />
<glyph unicode="f" horiz-adv-x="667" d="M81 -254l136 1124l-91 15q-22 5 -34.5 17.5t-9.5 38.5l11 89h144l11 88q11 89 46 160t88 120t122 75t149 26q63 0 119 -20l-20 -115q-2 -11 -9.5 -17t-19 -8t-26 -2h-29.5q-43 0 -78.5 -12t-63 -38.5t-46 -69.5t-25.5 -106l-11 -81h247l-20 -158h-239l-100 -833l-50 -201 q-14 -44 -40 -68t-73 -24h-88z" />
<glyph unicode="g" horiz-adv-x="1010" d="M-61 -106q0 69 29 120.5t78 87.5t113.5 58.5t136.5 33.5q62 9 125 9q9 0 19 -1q72 -1 138 -12q-6 17 -10.5 36t-4.5 39q0 31 9 64t28 72q-39 -27 -87.5 -41t-114.5 -14q-59 0 -112.5 19.5t-93 58.5t-63 97.5t-23.5 136.5q0 75 28 148t82.5 129t135 91t185.5 35 q57 0 107.5 -13.5t92.5 -39.5h289l-9 -73q-6 -45 -46 -58l-116 -26q6 -24 9.5 -49t3.5 -53q0 -49 -11 -88t-27.5 -72.5t-35.5 -63t-35 -59.5t-26.5 -62t-10.5 -70q0 -42 19 -77.5t42 -73t42 -80.5t19 -99q-1 -76 -35.5 -143.5t-98.5 -118.5t-155.5 -81.5t-207.5 -30.5 q-93 0 -169 19.5t-129 54.5t-81.5 83t-28.5 107zM147 -80q0 -67 55.5 -101.5t163.5 -34.5q62 0 113 16t87.5 43.5t56.5 64.5t20 79q0 38 -9 70q-111 19 -195 19h-25q-92 -4 -151.5 -25.5t-87.5 -56t-28 -74.5zM307 656q0 -84 39.5 -129.5t113.5 -45.5q50 0 88.5 22.5 t64.5 59.5t40 83.5t15 93.5q0 83 -41 126t-115 43q-50 0 -88 -21t-64 -56t-39.5 -80.5t-13.5 -95.5z" />
<glyph unicode="h" d="M50 0l183 1516h220l-81 -673q79 109 172 163.5t191 54.5q67 0 118.5 -26t84.5 -77q33 -50 45 -124q6 -37 6 -79.5t-6 -89.5l-78 -665h-219l78 665q5 39 5 70q1 59 -17 93q-26 52 -99 52q-43 0 -88.5 -24.5t-87.5 -68t-79.5 -105t-62.5 -137.5l-66 -545h-219z" />
<glyph unicode="i" horiz-adv-x="487" d="M60 0l125 1044h217l-126 -1044h-216zM184 1360q0 30 12 57t31.5 47t45 31.5t52.5 11.5q28 0 53.5 -11.5t45.5 -31.5t32 -46.5t12 -57.5q0 -30 -12.5 -56.5t-33 -46.5t-46 -32t-52.5 -12q-28 0 -53 12t-44 32t-31 46.5t-12 56.5z" />
<glyph unicode="j" horiz-adv-x="485" d="M-184 -351l21 120q6 20 20 23t49 3t60 8.5t42.5 26t28 46.5t15.5 70l134 1098h215l-134 -1098q-8 -66 -32.5 -124t-66 -101t-100 -67.5t-133.5 -24.5q-39 0 -66 5.5t-53 14.5zM177 1360q0 30 12 57t32 47t45 31.5t52 11.5q28 0 53.5 -11.5t45.5 -31.5t32.5 -46.5 t12.5 -57.5q0 -30 -12.5 -56.5t-33 -46.5t-46.5 -32t-54 -12q-27 0 -51.5 12t-44 32t-31.5 46.5t-12 56.5z" />
<glyph unicode="k" horiz-adv-x="999" d="M48 0l186 1516h217l-108 -879h29q23 0 36.5 6.5t29.5 25.5l310 335q16 20 34 30t44 10h196l-373 -397q-32 -39 -70 -62q17 -14 30 -32.5t24 -41.5l283 -511h-189q-26 0 -42 8.5t-27 32.5l-232 410q-11 24 -24.5 30t-42.5 6h-34l-60 -487h-217z" />
<glyph unicode="l" horiz-adv-x="476" d="M54 0l184 1516h217l-185 -1516h-216z" />
<glyph unicode="m" horiz-adv-x="1618" d="M50 0l126 1047h111q36 0 54.5 -18t18.5 -56l-9 -148q74 118 160.5 177t182.5 59q100 0 153.5 -68t57.5 -196q76 136 169 200t200 64q134 1 194 -103q44 -75 44 -195q0 -46 -7 -98l-79 -665h-216l78 665q6 45 6 81v14q-2 40 -12.5 66.5t-31.5 39t-55 12.5 q-41 0 -81.5 -21.5t-77.5 -62.5t-68.5 -100.5t-56.5 -135.5l-65 -558h-216l79 665q6 48 6 85v10q-1 40 -11.5 66.5t-31 39t-54.5 12.5q-45 0 -85.5 -23.5t-77.5 -66.5t-69 -104.5t-56 -139.5l-65 -544h-215z" />
<glyph unicode="n" horiz-adv-x="1097" d="M51 0l125 1047h111q36 0 54.5 -18t18.5 -56l-10 -165q81 127 181.5 190t206.5 63q66 0 117 -26t84 -77q33 -50 45 -124q6 -38 6 -83q0 -41 -5 -86l-79 -665h-219l79 665q5 38 5 69q0 60 -18 94q-27 50 -98 50q-45 0 -92.5 -26t-91 -72.5t-81.5 -112.5t-62 -147l-58 -520 h-219z" />
<glyph unicode="o" horiz-adv-x="1067" d="M52 421q0 134 42.5 250.5t116.5 203.5t172.5 136.5t211.5 49.5q86 0 158.5 -29.5t125 -85t82 -137t29.5 -184.5q0 -88 -19.5 -170t-54 -153.5t-84.5 -129.5t-109.5 -99.5t-129 -64.5t-144.5 -23q-86 0 -159 29t-125.5 85t-82.5 137t-30 185zM272 423q0 -266 196 -266 q69 0 125 38t95.5 102.5t61 149t21.5 177.5q0 135 -49.5 200t-147.5 65q-70 0 -125.5 -38t-94.5 -101.5t-60.5 -148.5t-21.5 -178z" />
<glyph unicode="p" horiz-adv-x="1093" d="M7 -347l170 1394h111q36 0 54.5 -18t18.5 -56l-11 -180q38 61 82.5 110t93 84.5t101.5 54.5t108 19q66 0 118.5 -24t89.5 -73t57 -121t20 -168q0 -87 -18 -172t-50.5 -161.5t-79.5 -142t-103 -113t-121.5 -74.5t-136.5 -27q-74 0 -134 27.5t-103 76.5l-53 -436h-214z M293 238q37 -46 86.5 -64.5t98.5 -18.5t92 20.5t79 56t64.5 84.5t48 104t30 115t10.5 118q0 116 -39.5 174t-112.5 58q-45 0 -91 -29.5t-89 -81.5t-81 -122.5t-64 -153.5z" />
<glyph unicode="q" horiz-adv-x="1058" d="M43 355q0 140 51.5 268t142.5 225t213 154.5t265 57.5q70 0 137 -11t131 -37l-168 -1359h-141q-22 0 -35.5 7.5t-21.5 20.5t-10.5 28.5t-0.5 30.5l61 476q-70 -108 -156.5 -169.5t-188.5 -61.5q-60 0 -111.5 23.5t-88.5 70.5t-58 116t-21 160zM263 395 q0 -117 37.5 -172.5t106.5 -55.5q46 0 89.5 29.5t82.5 82.5t73 124.5t59 154.5l43 339q-17 2 -34.5 3t-34.5 1q-89 0 -166 -41t-133.5 -110.5t-89.5 -161t-33 -193.5z" />
<glyph unicode="r" horiz-adv-x="712" d="M50 0l126 1047h111q36 0 54.5 -18t18.5 -56l-11 -198q40 83 86.5 142.5t97.5 93t105 39.5l22 2q42 0 85 -19l-39 -211q-49 20 -94 20q-73 0 -134 -54q-98 -86 -157 -322l-56 -466h-215z" />
<glyph unicode="s" horiz-adv-x="825" d="M-10 112l54 84q10 15 23.5 23.5t32.5 8.5q18 0 36 -13.5t42 -30.5t58.5 -31t90.5 -14q46 0 81.5 13t60.5 35.5t38 52t13 62.5q0 37 -18 61.5t-47.5 42.5t-67 31.5t-77 27.5t-76.5 32.5t-67 46t-48 67t-18 97.5q0 68 27 131.5t77 112.5t122.5 79t166.5 30q97 0 171 -33 t127 -87l-57 -80q-9 -14 -18.5 -20t-24.5 -6q-16 0 -33.5 10.5t-41.5 24t-57 24t-79 10.5q-43 0 -77 -11t-58.5 -30.5t-37.5 -46t-13 -56.5q0 -34 18 -57t47.5 -40.5t67.5 -32t77.5 -29.5t77.5 -35t67.5 -48.5t47.5 -68t18 -95.5q0 -74 -29.5 -141.5t-84 -118t-132 -80.5 t-172.5 -30q-99 0 -179.5 36t-128.5 92z" />
<glyph unicode="t" horiz-adv-x="738" d="M72 919l10 89l159 24l82 302q6 17 18.5 28t31.5 11h116l-43 -343h264l-19 -159h-264l-58 -480q-5 -42 -8.5 -67t-5 -40t-2 -20.5t-0.5 -8.5q0 -45 21.5 -68.5t59.5 -23.5q25 0 42.5 6.5t30.5 14t22.5 14.5t17.5 7q11 0 16 -4.5t10 -16.5l48 -107q-54 -45 -120.5 -69 t-133.5 -24q-105 0 -167 58t-65 164q0 7 0.5 16.5t2 28t4.5 49.5t10 79l60 492h-106q-17 0 -27 12q-8 9 -8 26q0 4 1 10z" />
<glyph unicode="u" d="M87 381l79 663h219l-79 -663q-5 -38 -5 -69q0 -60 18 -94q27 -51 98 -51q43 0 89 24t89 68t80 106.5t62 139.5l65 539h219l-126 -1044h-110q-80 0 -79 78l10 150q-80 -122 -179 -182.5t-203 -60.5q-66 0 -117 26t-84 76.5t-45 124.5q-6 39 -6 83q0 41 5 86z" />
<glyph unicode="v" horiz-adv-x="994" d="M66 1044h179q24 0 38 -12.5t17 -30.5l131 -608q8 -46 12 -90t8 -89q14 44 29.5 88t34.5 91l284 608q8 18 25 30.5t37 12.5h172l-518 -1044h-184z" />
<glyph unicode="w" horiz-adv-x="1497" d="M73 1044h166q24 0 38 -11.5t17 -31.5l78 -608q3 -41 5 -79.5t3 -76.5q14 39 28.5 77t30.5 79l255 612q7 18 23.5 30t37.5 12h92q24 0 37.5 -12t15.5 -30l101 -612q6 -41 11 -80t9 -77q11 38 23 76.5t26 80.5l232 608q6 18 22.5 30.5t37.5 12.5h160l-435 -1044h-168 q-29 0 -35 40l-113 650l-4 36t-4 37q-6 -18 -12.5 -36.5t-14.5 -37.5l-273 -649q-15 -40 -48 -40h-162z" />
<glyph unicode="x" horiz-adv-x="975" d="M-74 0l418 564l-246 480h198q24 0 34 -6t17 -22l158 -334q6 11 13 23.5t16 24.5l207 282q18 32 49 32h2h197l-368 -481l272 -563h-198q-24 0 -37 12.5t-20 29.5l-177 391q-5 -12 -11 -23t-13 -21l-257 -348q-11 -16 -25.5 -28.5t-35.5 -12.5h-193z" />
<glyph unicode="y" horiz-adv-x="995" d="M68 1044h182q26 0 38 -12.5t16 -30.5l148 -592q5 -24 8.5 -48.5t5.5 -48.5q10 25 21 49t22 49l292 592q9 18 26 30t35 12h175l-697 -1343q-25 -48 -73 -48h-163l230 420z" />
<glyph unicode="z" horiz-adv-x="878" d="M-23 0l12 92q1 15 11 37.5t26 40.5l563 703h-476l20 171h735l-12 -92q-2 -24 -12 -45t-25 -39l-559 -697h485l-19 -171h-749z" />
<glyph unicode="{" horiz-adv-x="588" d="M60 573l16 126q76 0 109.5 62.5t33.5 190.5q0 18 -1.5 42.5t-3 50t-2.5 49.5t-1 44q0 209 95.5 324t287.5 115h49l-10 -96q-3 -24 -21 -33.5t-30 -9.5h-13q-72 0 -115.5 -54t-50.5 -152q-5 -50 -5.5 -97.5t0 -92t0 -88t-3.5 -85.5q-7 -91 -55 -152.5t-119 -81.5 q57 -18 89.5 -67.5t32.5 -113.5q0 -60 -14.5 -117.5t-31.5 -115t-31.5 -117t-14.5 -121.5q0 -67 31 -107.5t91 -40.5h13q12 0 27.5 -10.5t12.5 -34.5l-11 -94h-52q-76 0 -131.5 21t-92.5 58.5t-54.5 89.5t-17.5 113q0 68 15 129t33.5 119t34 114.5t15.5 116.5 q0 51 -25.5 83.5t-78.5 32.5z" />
<glyph unicode="|" horiz-adv-x="540" d="M184 -347v1925h170v-1925h-170z" />
<glyph unicode="}" horiz-adv-x="588" d="M-53 -304l13 94q1 12 6.5 20.5t13.5 14t16 8t14 2.5h13q72 0 115.5 53.5t49.5 151.5q4 50 5.5 97t1.5 91.5v88t4 85.5q3 45 16.5 83.5t36.5 68.5t53.5 51t66.5 31q-58 17 -90.5 67t-32.5 115q0 59 14.5 117t32 116t32 117t14.5 122q0 67 -31 107.5t-91 40.5h-12 q-6 0 -14.5 2.5t-14.5 7.5t-9.5 13t-1.5 20l10 96h51q75 0 131 -21t92.5 -59t54.5 -90t18 -115q0 -67 -15 -127.5t-33 -119t-33.5 -115.5t-15.5 -115q0 -51 25 -83.5t77 -32.5l-14 -126q-76 0 -109.5 -62t-33.5 -192q0 -18 1 -42t2 -49t2 -49t1 -44q0 -209 -95.5 -324 t-285.5 -115h-51z" />
<glyph unicode="~" horiz-adv-x="1187" d="M109 415q0 75 19.5 135.5t57.5 104t93 67t124 23.5q53 0 104.5 -15t97.5 -33t87.5 -33.5t76.5 -15.5q61 0 95.5 39.5t35.5 109.5h177q0 -75 -20 -136t-57.5 -104.5t-92.5 -67.5t-125 -24q-54 0 -104.5 15.5t-96.5 33.5t-87.5 33.5t-76.5 15.5q-61 0 -95.5 -40t-35.5 -108 h-177z" />
<glyph unicode="&#xa1;" horiz-adv-x="498" d="M39 -348l69 551q5 46 12 90.5t16 89.5t19.5 92t21.5 99h135q-1 -52 -2 -99t-3.5 -92t-6.5 -89.5t-10 -90.5l-67 -551h-184zM141 918q0 30 11 55.5t30.5 45t45 31t56.5 11.5q30 0 56 -11.5t44.5 -31t30 -45.5t11.5 -55q0 -30 -11.5 -56t-30 -45.5t-45 -30.5t-55.5 -11 q-31 0 -56.5 11t-45 30.5t-30.5 45.5t-11 56z" />
<glyph unicode="&#xa2;" horiz-adv-x="1187" d="M115 445q0 128 40 238.5t114.5 192t182.5 130t245 53.5l34 172q5 20 23 38t43 18h77l-47 -236q82 -13 145 -47t111 -84l-63 -75q-10 -13 -20 -19t-27 -6q-13 0 -28 8.5t-35.5 19t-48 22.5t-65.5 19l-148 -742q61 4 104 20t73.5 32.5t51.5 30t38 13.5q27 0 38 -19l49 -76 q-76 -77 -176 -115t-210 -46l-32 -165q-5 -23 -22.5 -39.5t-42.5 -16.5h-79l44 224q-82 11 -150 47t-116.5 94t-75.5 137.5t-27 176.5zM324 456q0 -121 50.5 -197.5t143.5 -100.5l147 736q-85 -7 -148.5 -41t-106.5 -90.5t-64.5 -134t-21.5 -172.5z" />
<glyph unicode="&#xa3;" horiz-adv-x="1187" d="M-8 0l17 136q36 9 64 24t49 38t34.5 56t18.5 78l36 291h-163l11 86q2 20 20.5 37.5t46.5 17.5h102l32 257q12 96 53.5 181.5t109 149.5t161 101t208.5 37q86 0 150.5 -20t110.5 -55t76.5 -82.5t50.5 -102.5l-93 -56q-31 -14 -58 -12.5t-47 28.5q-17 27 -34.5 49t-41 37 t-56.5 24t-80 9q-60 0 -110.5 -20t-88 -57.5t-62 -90t-32.5 -118.5l-32 -259h471l-10 -87q-2 -20 -21 -37t-45 -17h-412l-28 -234q-9 -73 -33.5 -126t-69.5 -96q35 8 69 12t70 4h655l-11 -90q-2 -16 -10.5 -32.5t-22.5 -30t-31.5 -22t-37.5 -8.5h-986z" />
<glyph unicode="&#xa4;" horiz-adv-x="1187" d="M128 1044l111 111l154 -154q44 29 96 45t109 16q55 0 106 -15.5t95 -42.5l155 155l110 -111l-154 -154q29 -45 45 -96.5t16 -108.5q0 -55 -15.5 -106t-42.5 -94l155 -155l-111 -112l-154 155q-45 -29 -96.5 -45t-108.5 -16q-55 0 -106 15.5t-94 42.5l-156 -156l-110 112 l155 154q-29 45 -45 96.5t-16 108.5q0 55 15 106t43 94zM388 689q0 -43 16.5 -81t45 -66t67 -45t81.5 -17q44 0 83 17t67.5 45t45 66t16.5 81q0 44 -16.5 82.5t-45 67t-67.5 45t-83 16.5q-43 0 -81.5 -16.5t-67 -45t-45 -67t-16.5 -82.5z" />
<glyph unicode="&#xa5;" horiz-adv-x="1187" d="M103 300l16 120h340l12 102h-340l14 121h301l-311 831h177q30 0 47.5 -15t23.5 -39l192 -544q11 -40 18.5 -74.5t11.5 -67.5q11 34 26 68.5t36 73.5l324 544q11 20 32 37t51 17h179l-517 -831h301l-14 -121h-339l-13 -102h339l-15 -120h-339l-38 -300h-210l36 300h-341z " />
<glyph unicode="&#xa6;" horiz-adv-x="539" d="M183 -347v822h171v-822h-171zM183 757v821h171v-821h-171z" />
<glyph unicode="&#xa7;" horiz-adv-x="955" d="M30 1l59 81q19 32 58 32q20 0 38 -14t42.5 -30.5t60 -30t92.5 -13.5q46 0 82 12.5t61.5 35t38.5 54t13 68.5q0 39 -20 68t-53.5 52t-76.5 42.5t-87.5 40t-87 45t-76 56.5t-54 74.5t-20.5 101.5q0 92 49 164t150 113q-36 34 -58 79.5t-22 109.5q0 69 26.5 131.5t77.5 111 t125 76.5t168 28q97 0 172.5 -34.5t122.5 -90.5l-55 -78q-19 -27 -46 -26q-17 0 -34.5 11t-41.5 24.5t-56 24.5t-78 11q-45 0 -80.5 -12t-60 -33.5t-37 -50t-12.5 -58.5q0 -43 34 -74.5t86 -59t111.5 -56t111.5 -66t86 -89t34 -123.5q0 -91 -44.5 -167t-140.5 -119 q35 -33 56.5 -76t21.5 -101q0 -78 -28 -146t-82.5 -118.5t-133 -79t-178.5 -28.5q-50 0 -96 9t-86.5 26t-74 40.5t-57.5 51.5zM294 729q0 -43 26.5 -74t69 -57.5t94.5 -50.5t102 -52q52 27 74 65.5t22 85.5q0 45 -25.5 77.5t-66 58t-90 48.5t-99.5 50q-59 -30 -83 -66.5 t-24 -84.5z" />
<glyph unicode="&#xa8;" horiz-adv-x="753" d="M206 1322q0 27 10 51t27.5 42t40.5 28t49 10q27 0 50.5 -10t41 -28t28.5 -42t11 -51t-11 -50t-28.5 -40t-41.5 -27t-50 -10t-49 10t-40.5 27t-27.5 40t-10 50zM588 1322q0 27 10 51t27.5 42t40.5 28t50 10t50.5 -10t41 -28t28 -42t10.5 -51t-10.5 -50t-28 -40t-41.5 -27 t-50 -10q-27 0 -50 10t-40.5 27t-27.5 40t-10 50z" />
<glyph unicode="&#xa9;" horiz-adv-x="1694" d="M110 737q0 103 26.5 199.5t75.5 180.5t117.5 152.5t152 118t180 76.5t199.5 27t199.5 -27t180.5 -76.5t152.5 -118t118 -152.5t76 -180t26.5 -200q0 -103 -27 -199.5t-76 -180t-117.5 -152t-152.5 -117.5t-180 -75.5t-200 -26.5q-103 0 -199.5 26.5t-180 75.5t-152 117.5 t-117.5 152t-75.5 180t-26.5 199.5zM230 737q0 -135 49 -252t134.5 -203.5t200.5 -137t247 -50.5q88 0 170 22.5t152 64t128 100t99 130t63.5 154t22.5 172.5t-22.5 173.5t-63.5 155.5t-99 130.5t-128 100.5t-152 65t-170 23t-169.5 -23t-151 -65t-127 -100.5t-98.5 -130.5 t-63 -155.5t-22 -173.5zM416 740q0 103 35.5 190.5t98 150t148 97t186.5 34.5q114 0 193 -36.5t136 -95.5l-57 -81q-6 -7 -15 -14t-24 -7q-16 0 -31.5 10.5t-39.5 24t-59.5 24.5t-91.5 11q-67 0 -119.5 -21.5t-89 -61.5t-56 -97t-19.5 -128q0 -74 19.5 -131t55 -96.5 t84 -59.5t106.5 -20q51 0 84.5 8.5t58 20t44.5 24t44 21.5q9 1 18 -3.5t14 -10.5l73 -79q-58 -71 -144 -109t-204 -38q-101 0 -184 36t-141.5 99t-90.5 150t-32 188z" />
<glyph unicode="&#xaa;" horiz-adv-x="702" d="M133 996q0 39 17.5 78t60.5 71t115 52.5t182 23.5l4 31q2 25 -0.5 46.5t-11 37t-25 24t-42.5 8.5q-33 0 -55.5 -8t-40.5 -18.5t-32.5 -18.5t-33.5 -8q-16 0 -25.5 8.5t-15.5 19.5l-21 51q58 52 122 75.5t136 23.5q50 0 89 -19.5t64.5 -52.5t36.5 -77t5 -92l-49 -391h-70 q-22 0 -31 6t-17 26l-7 44q-25 -22 -47.5 -37.5t-46.5 -26.5t-50.5 -16t-56.5 -5q-70 0 -112 37t-42 107zM281 1016q0 -31 18 -44.5t49 -13.5q40 0 72.5 17t64.5 49l13 99q-61 -2 -103 -10t-67 -22t-36 -33.5t-11 -41.5z" />
<glyph unicode="&#xab;" horiz-adv-x="832" d="M76 532l4 28l289 401l64 -33q26 -12 28 -36t-18 -50l-167 -256q-8 -13 -17 -23t-17 -17q13 -13 24 -39l105 -256q12 -28 4.5 -51t-35.5 -37l-74 -33zM371 532l4 28l289 401l64 -33q26 -12 28 -36t-18 -50l-167 -256q-8 -13 -17 -23t-17 -17q13 -13 24 -39l105 -256 q12 -28 4.5 -51t-35.5 -37l-74 -33z" />
<glyph unicode="&#xac;" horiz-adv-x="1187" d="M144 607l19 161h892l-20 -161h-1l-36 -292h-179l36 292h-711z" />
<glyph unicode="&#xae;" horiz-adv-x="1695" d="M110 737q0 103 26.5 199.5t75.5 180.5t117.5 152.5t152 118t180 76.5t199.5 27t199.5 -27t180.5 -76.5t152.5 -118t118 -152.5t76 -180t26.5 -200q0 -103 -27 -199.5t-76 -180t-117.5 -152t-152.5 -117.5t-180 -75.5t-200 -26.5q-103 0 -199.5 26.5t-180 75.5t-152 117.5 t-117.5 152t-75.5 180t-26.5 199.5zM230 737q0 -135 49 -252t134.5 -203.5t200.5 -137t247 -50.5q88 0 170 22.5t152 64t128 100t99 130t63.5 154t22.5 172.5t-22.5 173.5t-63.5 155.5t-99 130.5t-128 100.5t-152 65t-170 23t-169.5 -23t-151 -65t-127 -100.5t-98.5 -130.5 t-63 -155.5t-22 -173.5zM540 282v915h313q184 0 271 -65.5t87 -193.5q0 -93 -50 -161t-153 -97q20 -12 34 -30t26 -42l209 -326h-183q-41 0 -58 29l-175 287q-8 15 -21.5 22.5t-39.5 7.5h-69v-346h-191zM731 766h104q55 0 91.5 9.5t58 28t30 46.5t8.5 63t-7.5 60.5t-27 42.5 t-52.5 26t-83 9h-122v-285z" />
<glyph unicode="&#xaf;" horiz-adv-x="753" d="M242 1251l15 143h554l-17 -143h-552z" />
<glyph unicode="&#xb0;" horiz-adv-x="842" d="M139 1152q0 71 27 133.5t73.5 108.5t109 72.5t133.5 26.5q73 0 136 -26.5t109.5 -72.5t73 -108.5t26.5 -133.5q0 -70 -26.5 -131.5t-73 -107.5t-109.5 -73t-136 -27q-72 0 -134 27t-108.5 73t-73.5 107.5t-27 131.5zM292 1151q0 -40 14.5 -75t40 -60.5t60 -40t75.5 -14.5 t75.5 14.5t60 40t40 60.5t14.5 75q0 41 -14.5 76.5t-40 61.5t-60 41t-75.5 15t-75.5 -15t-60 -41t-40 -61.5t-14.5 -76.5z" />
<glyph unicode="&#xb1;" horiz-adv-x="1187" d="M37 82l18 161h989l-20 -161h-987zM115 713l18 160h408l46 376h172l-46 -376h409l-20 -160h-409l-45 -364h-172l45 364h-406z" />
<glyph unicode="&#xb2;" horiz-adv-x="684" d="M107 922l7 51q2 14 9.5 30.5t23.5 31.5l249 218q30 26 56 53.5t45 55.5t30.5 56t11.5 56q0 39 -23 61t-61 22q-41 0 -69.5 -21t-46.5 -59q-14 -20 -30 -28.5t-46 -3.5l-82 15q15 56 43 97.5t66.5 69t86 41.5t102.5 14q52 0 92 -14.5t67.5 -39.5t42 -60.5t14.5 -77.5 q0 -47 -16 -86t-42 -73t-60 -66.5t-71 -64.5l-170 -154q27 8 53 12t49 4h172q24 0 36 -13t9 -35l-11 -92h-537z" />
<glyph unicode="&#xb3;" horiz-adv-x="684" d="M125 1115l71 28q27 10 49 5.5t29 -24.5q3 -11 9.5 -25t18.5 -27t31 -21.5t48 -8.5q31 0 55 9.5t41 26.5t25.5 38.5t8.5 46.5q0 47 -33.5 68.5t-116.5 21.5l13 107q90 2 128.5 29.5t38.5 85.5q0 38 -22.5 59t-63.5 21q-44 0 -71.5 -21t-44.5 -56q-14 -24 -28.5 -31 t-43.5 -2l-78 15q15 56 43 97.5t66 69t83.5 41.5t97.5 14q50 0 90 -14.5t67.5 -38.5t42 -56.5t14.5 -67.5q0 -71 -32 -117t-102 -70q53 -18 80 -52.5t27 -88.5q0 -66 -25.5 -115t-67 -82t-94 -49.5t-105.5 -16.5q-113 0 -170 48t-79 153z" />
<glyph unicode="&#xb4;" horiz-adv-x="753" d="M397 1193l164 248q16 26 35 38t54 12h197l-258 -265q-17 -18 -32 -25.5t-39 -7.5h-121z" />
<glyph unicode="&#xb5;" horiz-adv-x="1254" d="M67 -254l159 1298h219l-78 -644q-8 -96 28 -151.5t117 -55.5q77 0 138 46.5t106 129.5l84 675h219l-91 -747q-9 -74 18 -108.5t82 -34.5h66l-12 -88q-4 -30 -43.5 -53t-104.5 -23q-40 0 -75.5 12t-63 36.5t-45.5 62.5t-23 90q-62 -86 -134.5 -133t-156.5 -47 q-58 0 -101.5 17.5t-73.5 50.5q2 -41 -0.5 -83.5t-6.5 -78.5l-33 -264h-109q-46 0 -68.5 24t-16.5 69z" />
<glyph unicode="&#xb6;" horiz-adv-x="1464" d="M114 1020q0 94 37 177t105.5 144.5t164 97.5t211.5 36h867l-22 -188h-223l-184 -1497h-192l184 1497h-261l-185 -1497h-191l106 869q-95 0 -172 26.5t-131.5 74t-84 114t-29.5 146.5z" />
<glyph unicode="&#xb7;" horiz-adv-x="544" d="M95 608q0 37 14 69.5t37 56t54 37t67 13.5q37 0 69.5 -13.5t56 -37t37 -56t13.5 -69.5q0 -36 -13.5 -67t-37 -54.5t-56 -37.5t-69.5 -14q-36 0 -67 14t-54 37.5t-37 54.5t-14 67z" />
<glyph unicode="&#xb8;" horiz-adv-x="753" d="M177 -338l29 69q8 22 28 21q6 0 13 -3t15.5 -6.5t20 -6.5t27.5 -3q36 0 54 17t18 40q0 31 -33 44t-99 24l77 174h123l-39 -102q78 -19 111 -52.5t33 -79.5q0 -39 -18 -69t-50 -51t-76.5 -32.5t-98.5 -11.5q-39 0 -72 7.5t-63 20.5z" />
<glyph unicode="&#xb9;" horiz-adv-x="684" d="M198 922l14 113h147l49 401l11 47l-106 -78q-24 -15 -42.5 -9t-25.5 16l-39 67l256 196h128l-79 -640h114l-13 -113h-414z" />
<glyph unicode="&#xba;" horiz-adv-x="768" d="M143 1123q0 84 26 152t72 116.5t109 74t139 25.5q61 0 110.5 -19.5t84 -55t53 -86t18.5 -112.5q0 -85 -26 -153.5t-71 -116t-108.5 -73.5t-137.5 -26q-61 0 -111 19.5t-85 54.5t-54 86t-19 114zM309 1121q0 -71 29 -108.5t90 -37.5q83 0 122.5 64.5t39.5 178.5 q0 71 -29 109t-86 38q-47 0 -78.5 -18t-51 -50t-28 -76.5t-8.5 -99.5z" />
<glyph unicode="&#xbb;" horiz-adv-x="831" d="M57.5 200q-1.5 23 16.5 51l169 256q17 26 33 39q-14 13 -24 40l-107 256q-11 27 -2.5 50t36.5 36l73 33l189 -401l-3 -28l-287 -402l-65 33q-27 14 -28.5 37zM352.5 200q-1.5 23 16.5 51l169 256q17 26 33 39q-14 13 -24 40l-107 256q-11 27 -2.5 50t36.5 36l73 33 l189 -401l-3 -28l-287 -402l-65 33q-27 14 -28.5 37z" />
<glyph unicode="&#xbc;" horiz-adv-x="1438" d="M144 0l953 1400q26 35 55.5 54.5t68.5 19.5h88l-961 -1409q-27 -38 -54.5 -51.5t-62.5 -13.5h-87zM148 722l14 113h147l49 401l11 47l-106 -78q-24 -15 -42.5 -9t-25.5 16l-39 67l256 196h128l-79 -640h114l-13 -113h-414zM725 283l407 469h147l-57 -459h105l-9 -89 q-3 -12 -12 -21.5t-23 -9.5h-75l-21 -173h-129l21 173h-305q-20 0 -31 10t-13 24zM879 293h215l25 202q3 23 7.5 49t12.5 55z" />
<glyph unicode="&#xbd;" horiz-adv-x="1419" d="M108 0l953 1400q26 35 55.5 54.5t68.5 19.5h88l-961 -1409q-27 -38 -54.5 -51.5t-62.5 -13.5h-87zM151 722l14 113h147l49 401l11 47l-106 -78q-24 -15 -42.5 -9t-25.5 16l-39 67l256 196h128l-79 -640h114l-13 -113h-414zM727 0l7 51q2 14 9.5 30.5t23.5 31.5l249 218 q30 26 56 53.5t45 55.5t30.5 56t11.5 56q0 39 -23 61t-61 22q-41 0 -69.5 -21t-46.5 -59q-14 -20 -30 -28.5t-46 -3.5l-82 15q15 56 43 97.5t66.5 69t86 41.5t102.5 14q52 0 92 -14.5t67.5 -39.5t42 -60.5t14.5 -77.5q0 -47 -16 -86t-42 -73t-60 -66.5t-71 -64.5l-170 -154 q27 8 53 12t49 4h172q24 0 36 -13t9 -35l-11 -92h-537z" />
<glyph unicode="&#xbe;" horiz-adv-x="1456" d="M113 915l71 28q27 10 49 5.5t29 -24.5q3 -11 9.5 -25t18.5 -27t31 -21.5t48 -8.5q31 0 55 9.5t41 26.5t25.5 38.5t8.5 46.5q0 47 -33.5 68.5t-116.5 21.5l13 107q90 2 128.5 29.5t38.5 85.5q0 38 -22.5 59t-63.5 21q-44 0 -71.5 -21t-44.5 -56q-14 -24 -28.5 -31 t-43.5 -2l-78 15q15 56 43 97.5t66 69t83.5 41.5t97.5 14q50 0 90 -14.5t67.5 -38.5t42 -56.5t14.5 -67.5q0 -71 -32 -117t-102 -70q53 -18 80 -52.5t27 -88.5q0 -66 -25.5 -115t-67 -82t-94 -49.5t-105.5 -16.5q-113 0 -170 48t-79 153zM169 0l953 1400q26 35 55.5 54.5 t68.5 19.5h88l-961 -1409q-27 -38 -54.5 -51.5t-62.5 -13.5h-87zM745 283l407 469h147l-57 -459h105l-9 -89q-3 -12 -12 -21.5t-23 -9.5h-75l-21 -173h-129l21 173h-305q-20 0 -31 10t-13 24zM899 293h215l25 202q3 23 7.5 49t12.5 55z" />
<glyph unicode="&#xbf;" horiz-adv-x="849" d="M-10 -70q0 82 24 140.5t60.5 101t80 73t82.5 58t69.5 54.5t39.5 63l40 154h144l-7 -170q-2 -47 -26.5 -81.5t-60 -64.5t-77 -58t-76 -61t-58 -73.5t-23.5 -96.5q0 -39 11.5 -68t32 -49t48 -30t56.5 -10q54 0 94.5 14t70 31t49.5 31.5t33 14.5q30 0 40 -26l46 -91 q-36 -30 -76 -56.5t-86 -47t-98 -32.5t-112 -12q-73 0 -132 20t-101 58t-65 92.5t-23 121.5zM374 918q0 30 10.5 55.5t30 45t45 31t56.5 11.5q30 0 56 -11.5t45 -31t30 -45.5t11 -55q0 -31 -11 -56.5t-30 -45t-45 -30.5t-56 -11q-31 0 -56.5 11t-45 30.5t-30 45t-10.5 56.5z " />
<glyph unicode="&#xc0;" horiz-adv-x="1312" d="M-75 0l718 1475h235l356 -1475h-178q-31 0 -48 15t-24 39l-70 331h-574l-152 -331q-10 -22 -32 -38t-51 -16h-180zM406 1902h213q17 0 29.5 -1t22.5 -5.5t17.5 -12t15.5 -19.5l178 -280h-146q-24 0 -37.5 3t-27.5 20zM417 551h463l-117 552q-5 32 -13 73t-15 90 q-17 -49 -34.5 -90.5t-31.5 -74.5z" />
<glyph unicode="&#xc1;" horiz-adv-x="1312" d="M-75 0l718 1475h235l356 -1475h-178q-31 0 -48 15t-24 39l-70 331h-574l-152 -331q-10 -22 -32 -38t-51 -16h-180zM417 551h463l-117 552q-5 32 -13 73t-15 90q-17 -49 -34.5 -90.5t-31.5 -74.5zM636 1584l239 280q10 13 19 20t19.5 11.5t23 5.5t30.5 1h225l-338 -293 q-19 -16 -34.5 -20.5t-39.5 -4.5h-144z" />
<glyph unicode="&#xc2;" horiz-adv-x="1312" d="M-75 0l718 1475h235l356 -1475h-178q-31 0 -48 15t-24 39l-70 331h-574l-152 -331q-10 -22 -32 -38t-51 -16h-180zM417 551h463l-117 552q-5 32 -13 73t-15 90q-17 -49 -34.5 -90.5t-31.5 -74.5zM467 1584l258 281h182l195 -281h-147q-13 0 -30.5 5t-33.5 31l-79 124 q-3 5 -5.5 9.5t-4.5 9.5q-3 -5 -6.5 -9.5t-8.5 -9.5l-107 -124q-22 -26 -40.5 -31t-31.5 -5h-141z" />
<glyph unicode="&#xc3;" horiz-adv-x="1312" d="M-75 0l718 1475h235l356 -1475h-178q-31 0 -48 15t-24 39l-70 331h-574l-152 -331q-10 -22 -32 -38t-51 -16h-180zM417 551h463l-117 552q-5 32 -13 73t-15 90q-17 -49 -34.5 -90.5t-31.5 -74.5zM468 1583q5 47 22.5 91.5t44.5 79t64 55t81 20.5q46 0 78.5 -16.5 t59 -36.5t49 -36.5t48.5 -16.5q22 0 38.5 9.5t28.5 23.5t19 31.5t9 35.5h124q-5 -48 -22 -92t-44 -78t-64 -54.5t-82 -20.5t-77.5 16.5t-58.5 36.5t-49.5 36t-48.5 16q-22 0 -38.5 -9t-28.5 -23.5t-19 -32t-9 -35.5h-125z" />
<glyph unicode="&#xc4;" horiz-adv-x="1312" d="M-75 0l718 1475h235l356 -1475h-178q-31 0 -48 15t-24 39l-70 331h-574l-152 -331q-10 -22 -32 -38t-51 -16h-180zM417 551h463l-117 552q-5 32 -13 73t-15 90q-17 -49 -34.5 -90.5t-31.5 -74.5zM453 1704q0 27 10 51t27.5 42t40.5 28t49 10q27 0 50 -10t41 -28t29 -42 t11 -51t-11 -50t-29 -40t-41.5 -27t-49.5 -10t-49 10t-40.5 27t-27.5 40t-10 50zM852 1704q0 27 10 51t27.5 42t40.5 28t50 10t50.5 -10t41 -28t28 -42t10.5 -51t-10.5 -50t-28 -40t-41 -27t-50.5 -10t-50 10t-40.5 27t-27.5 40t-10 50z" />
<glyph unicode="&#xc5;" horiz-adv-x="1312" d="M-75 0l718 1475h235l356 -1475h-178q-31 0 -48 15t-24 39l-70 331h-574l-152 -331q-10 -22 -32 -38t-51 -16h-180zM417 551h463l-117 552q-5 32 -13 73t-15 90q-17 -49 -34.5 -90.5t-31.5 -74.5zM606 1743q5 42 24 77t47.5 60.5t63.5 39t72 13.5q39 0 71.5 -13.5 t55.5 -39t34.5 -60.5t7.5 -77q-5 -41 -24 -75.5t-48 -59t-64.5 -37.5t-74.5 -13q-37 0 -68.5 13t-55 37.5t-35 59t-6.5 75.5zM705 1743q-5 -42 15.5 -69t63.5 -27q40 0 67 27t33 69q5 44 -16.5 70.5t-61.5 26.5q-43 0 -69.5 -26.5t-31.5 -70.5z" />
<glyph unicode="&#xc6;" horiz-adv-x="1780" d="M-74 0l869 1475h1005l-22 -188h-682v-454h499l-21 -181h-478v-465h546l-23 -187h-740v385h-497l-188 -331q-12 -22 -35.5 -38t-53.5 -16h-179zM476 551h403v734q-16 -43 -34 -79.5t-36 -68.5z" />
<glyph unicode="&#xc7;" horiz-adv-x="1274" d="M91 625q0 191 60.5 350.5t166 274t247.5 178t304 63.5q80 0 145 -14.5t118 -40.5t96 -63t79 -82l-79 -96q-9 -11 -21.5 -19.5t-30.5 -8.5q-13 0 -26.5 9.5t-30 23t-38.5 29.5t-53 30t-72.5 23t-97.5 9q-113 0 -210 -45.5t-168 -129.5t-112 -203.5t-41 -268.5 q0 -108 27.5 -193.5t76.5 -145t117 -91.5t149 -32q65 0 114.5 10.5t86.5 26t63 34t45.5 34.5t34 26.5t27.5 10.5q11 0 18.5 -5t11.5 -10l81 -101q-87 -96 -199 -153.5t-256 -68.5l-22 -56q78 -19 111.5 -52.5t33.5 -79.5q0 -39 -18 -69t-50.5 -51t-77 -32.5t-97.5 -11.5 q-39 0 -72 7.5t-63 20.5l29 69q8 22 28 21q6 0 13 -3t15.5 -6.5t20 -6.5t27.5 -3q36 0 54 17t18 40q0 31 -33 44t-99 24l56 129q-120 10 -214 61.5t-159 136t-99.5 197t-34.5 243.5z" />
<glyph unicode="&#xc8;" horiz-adv-x="1099" d="M89 0l181 1475h850l-23 -188h-618l-55 -453h492l-23 -181h-492l-57 -466h620l-24 -187h-851zM390 1902h213q17 0 29.5 -1t22.5 -5.5t17.5 -12t15.5 -19.5l178 -280h-146q-24 0 -37.5 3t-27.5 20z" />
<glyph unicode="&#xc9;" horiz-adv-x="1099" d="M89 0l181 1475h850l-23 -188h-618l-55 -453h492l-23 -181h-492l-57 -466h620l-24 -187h-851zM593 1584l239 280q10 13 19 20t19.5 11.5t23 5.5t30.5 1h225l-338 -293q-19 -16 -34.5 -20.5t-39.5 -4.5h-144z" />
<glyph unicode="&#xca;" horiz-adv-x="1099" d="M89 0l181 1475h850l-23 -188h-618l-55 -453h492l-23 -181h-492l-57 -466h620l-24 -187h-851zM397 1584l258 281h183l194 -281h-146q-13 0 -30.5 5t-34.5 31l-79 124q-3 5 -5.5 9.5t-4.5 9.5q-3 -5 -6.5 -9.5t-7.5 -9.5l-108 -124q-22 -26 -40.5 -31t-30.5 -5h-142z" />
<glyph unicode="&#xcb;" horiz-adv-x="1099" d="M89 0l181 1475h850l-23 -188h-618l-55 -453h492l-23 -181h-492l-57 -466h620l-24 -187h-851zM398 1704q0 27 10 51t27.5 42t40.5 28t49 10q27 0 50 -10t41 -28t29 -42t11 -51t-11 -50t-29 -40t-41.5 -27t-49.5 -10t-49 10t-40.5 27t-27.5 40t-10 50zM797 1704q0 27 10 51 t27.5 42t40.5 28t50 10t50.5 -10t41 -28t28 -42t10.5 -51t-10.5 -50t-28 -40t-41 -27t-50.5 -10t-50 10t-40.5 27t-27.5 40t-10 50z" />
<glyph unicode="&#xcc;" horiz-adv-x="562" d="M44 1902h213q17 0 29.5 -1t22.5 -5.5t17.5 -12t15.5 -19.5l178 -280h-146q-24 0 -37.5 3t-27.5 20zM89 0l180 1475h232l-180 -1475h-232z" />
<glyph unicode="&#xcd;" horiz-adv-x="562" d="M89 0l180 1475h232l-180 -1475h-232zM271 1584l239 280q10 13 19 20t19.5 11.5t23 5.5t30.5 1h225l-338 -293q-19 -16 -34.5 -20.5t-39.5 -4.5h-144z" />
<glyph unicode="&#xce;" horiz-adv-x="562" d="M84 1584l258 281h182l195 -281h-147q-13 0 -30.5 5t-33.5 31l-79 124q-3 5 -5.5 9.5t-4.5 9.5q-3 -5 -6.5 -9.5t-8.5 -9.5l-107 -124q-22 -26 -40.5 -31t-31.5 -5h-141zM89 0l180 1475h232l-180 -1475h-232z" />
<glyph unicode="&#xcf;" horiz-adv-x="562" d="M85 1704q0 27 10 51t27.5 42t40.5 28t49 10q27 0 50 -10t41 -28t29 -42t11 -51t-11 -50t-29 -40t-41.5 -27t-49.5 -10t-49 10t-40.5 27t-27.5 40t-10 50zM89 0l180 1475h232l-180 -1475h-232zM484 1704q0 27 10 51t27.5 42t40.5 28t50 10t50.5 -10t41 -28t28 -42 t10.5 -51t-10.5 -50t-28 -40t-41 -27t-50.5 -10t-50 10t-40.5 27t-27.5 40t-10 50z" />
<glyph unicode="&#xd0;" horiz-adv-x="1462" d="M11 675l17 134h175l81 666h515q138 0 249 -47.5t189 -132t119.5 -201t41.5 -255.5q0 -124 -26.5 -234t-76 -203.5t-119 -168t-156 -126.5t-188 -79.5t-214.5 -27.5h-515l83 675h-175zM358 186h283q117 0 212.5 44.5t163.5 128t105.5 203.5t37.5 271q0 104 -26 188.5 t-75 144t-121 91t-162 31.5h-283l-59 -479h346l-15 -134h-347z" />
<glyph unicode="&#xd1;" horiz-adv-x="1462" d="M89 0l181 1475h120q31 0 45 -6.5t28 -31.5l603 -1061q3 56 9 100l123 999h204l-182 -1475h-117q-28 0 -45.5 9.5t-32.5 32.5l-601 1061q-2 -24 -3.5 -45t-3.5 -39l-125 -1019h-203zM536 1582q5 47 22.5 91.5t44.5 79t64 55t81 20.5q46 0 78.5 -16.5t59 -36.5t49 -36.5 t48.5 -16.5q22 0 38.5 9.5t28.5 23.5t19 31.5t9 35.5h124q-5 -48 -22 -92t-44 -78t-64 -54.5t-82 -20.5t-77.5 16.5t-58.5 36.5t-49.5 36t-48.5 16q-22 0 -38.5 -9t-28.5 -23.5t-19 -32t-9 -35.5h-125z" />
<glyph unicode="&#xd2;" horiz-adv-x="1534" d="M91 634q0 124 27 235.5t76.5 206.5t120 172t157.5 131t188.5 83t213.5 29q138 0 249 -49t189 -136.5t119.5 -207t41.5 -259.5q0 -123 -27 -234.5t-76.5 -206.5t-120 -171t-157.5 -130t-188.5 -83t-214.5 -29q-138 0 -249 49t-188.5 135.5t-119 205.5t-41.5 259zM328 641 q0 -105 26.5 -190.5t76 -146.5t121.5 -94t163 -33q117 0 212.5 46.5t164 132t106 207t37.5 271.5q0 105 -26.5 190.5t-77 146.5t-122.5 93.5t-162 32.5q-116 0 -211.5 -46.5t-164 -132.5t-106 -207t-37.5 -270zM549 1902h213q17 0 29.5 -1t22.5 -5.5t17.5 -12t15.5 -19.5 l178 -280h-146q-24 0 -37.5 3t-27.5 20z" />
<glyph unicode="&#xd3;" horiz-adv-x="1534" d="M91 634q0 124 27 235.5t76.5 206.5t120 172t157.5 131t188.5 83t213.5 29q138 0 249 -49t189 -136.5t119.5 -207t41.5 -259.5q0 -123 -27 -234.5t-76.5 -206.5t-120 -171t-157.5 -130t-188.5 -83t-214.5 -29q-138 0 -249 49t-188.5 135.5t-119 205.5t-41.5 259zM328 641 q0 -105 26.5 -190.5t76 -146.5t121.5 -94t163 -33q117 0 212.5 46.5t164 132t106 207t37.5 271.5q0 105 -26.5 190.5t-77 146.5t-122.5 93.5t-162 32.5q-116 0 -211.5 -46.5t-164 -132.5t-106 -207t-37.5 -270zM743 1584l239 280q10 13 19 20t19.5 11.5t23 5.5t30.5 1h225 l-338 -293q-19 -16 -34.5 -20.5t-39.5 -4.5h-144z" />
<glyph unicode="&#xd4;" horiz-adv-x="1534" d="M91 634q0 124 27 235.5t76.5 206.5t120 172t157.5 131t188.5 83t213.5 29q138 0 249 -49t189 -136.5t119.5 -207t41.5 -259.5q0 -123 -27 -234.5t-76.5 -206.5t-120 -171t-157.5 -130t-188.5 -83t-214.5 -29q-138 0 -249 49t-188.5 135.5t-119 205.5t-41.5 259zM328 641 q0 -105 26.5 -190.5t76 -146.5t121.5 -94t163 -33q117 0 212.5 46.5t164 132t106 207t37.5 271.5q0 105 -26.5 190.5t-77 146.5t-122.5 93.5t-162 32.5q-116 0 -211.5 -46.5t-164 -132.5t-106 -207t-37.5 -270zM567 1584l258 281h183l194 -281h-146q-13 0 -30.5 5t-34.5 31 l-79 124q-3 5 -5.5 9.5t-4.5 9.5q-3 -5 -6.5 -9.5t-7.5 -9.5l-108 -124q-22 -26 -40.5 -31t-30.5 -5h-142z" />
<glyph unicode="&#xd5;" horiz-adv-x="1534" d="M91 634q0 124 27 235.5t76.5 206.5t120 172t157.5 131t188.5 83t213.5 29q138 0 249 -49t189 -136.5t119.5 -207t41.5 -259.5q0 -123 -27 -234.5t-76.5 -206.5t-120 -171t-157.5 -130t-188.5 -83t-214.5 -29q-138 0 -249 49t-188.5 135.5t-119 205.5t-41.5 259zM328 641 q0 -105 26.5 -190.5t76 -146.5t121.5 -94t163 -33q117 0 212.5 46.5t164 132t106 207t37.5 271.5q0 105 -26.5 190.5t-77 146.5t-122.5 93.5t-162 32.5q-116 0 -211.5 -46.5t-164 -132.5t-106 -207t-37.5 -270zM569 1583q5 47 22.5 91.5t44.5 79t64 55t81 20.5 q46 0 78.5 -16.5t59 -36.5t49 -36.5t48.5 -16.5q22 0 38.5 9.5t28.5 23.5t19 31.5t9 35.5h124q-5 -48 -22 -92t-44 -78t-64 -54.5t-82 -20.5t-77.5 16.5t-58.5 36.5t-49.5 36t-48.5 16q-22 0 -38.5 -9t-28.5 -23.5t-19 -32t-9 -35.5h-125z" />
<glyph unicode="&#xd6;" horiz-adv-x="1534" d="M91 634q0 124 27 235.5t76.5 206.5t120 172t157.5 131t188.5 83t213.5 29q138 0 249 -49t189 -136.5t119.5 -207t41.5 -259.5q0 -123 -27 -234.5t-76.5 -206.5t-120 -171t-157.5 -130t-188.5 -83t-214.5 -29q-138 0 -249 49t-188.5 135.5t-119 205.5t-41.5 259zM328 641 q0 -105 26.5 -190.5t76 -146.5t121.5 -94t163 -33q117 0 212.5 46.5t164 132t106 207t37.5 271.5q0 105 -26.5 190.5t-77 146.5t-122.5 93.5t-162 32.5q-116 0 -211.5 -46.5t-164 -132.5t-106 -207t-37.5 -270zM592 1704q0 27 10 51t27.5 42t40.5 28t49 10q27 0 50 -10 t41 -28t29 -42t11 -51t-11 -50t-29 -40t-41.5 -27t-49.5 -10t-49 10t-40.5 27t-27.5 40t-10 50zM991 1704q0 27 10 51t27.5 42t40.5 28t50 10t50.5 -10t41 -28t28 -42t10.5 -51t-10.5 -50t-28 -40t-41 -27t-50.5 -10t-50 10t-40.5 27t-27.5 40t-10 50z" />
<glyph unicode="&#xd7;" horiz-adv-x="1187" d="M87 330l402 358l-303 344l126 115l303 -346l386 344l100 -115l-385 -343l311 -355l-125 -114l-313 356l-404 -358z" />
<glyph unicode="&#xd8;" horiz-adv-x="1534" d="M38 -113l219 277q-80 87 -123 206.5t-43 263.5q0 124 27 235.5t76.5 206.5t120 172t157.5 131t188.5 83t213.5 29q104 0 192 -27.5t159 -80.5l78 99q13 15 24 26.5t22.5 18.5t25 10t32.5 3h119l-200 -252q71 -87 109 -201t38 -248q0 -123 -27 -234.5t-76.5 -206.5 t-120 -171t-157.5 -130t-188.5 -83t-214.5 -29q-96 0 -177.5 23.5t-149.5 66.5l-98 -123q-30 -36 -66 -50.5t-69 -14.5h-91zM328 641q0 -89 19 -163.5t54 -132.5l689 868q-47 41 -108 62.5t-135 21.5q-116 0 -211.5 -46.5t-164 -132.5t-106 -207t-37.5 -270zM496 243 q45 -32 99.5 -49t119.5 -17q117 0 212.5 46.5t164 132t106 207t37.5 271.5q0 79 -15 146t-42 122z" />
<glyph unicode="&#xd9;" horiz-adv-x="1410" d="M144 584l108 891h230l-108 -891q-11 -88 2 -161.5t48.5 -126t92 -82t133.5 -29.5t141 29.5t112.5 82t79.5 126t42 161.5l110 891h230l-109 -891q-16 -129 -68 -239.5t-134 -190.5t-190.5 -125.5t-237.5 -45.5t-226.5 45.5t-159.5 125.5t-87 190.5t-9 239.5zM475 1902h213 q17 0 29.5 -1t22.5 -5.5t17.5 -12t15.5 -19.5l178 -280h-146q-24 0 -37.5 3t-27.5 20z" />
<glyph unicode="&#xda;" horiz-adv-x="1410" d="M144 584l108 891h230l-108 -891q-11 -88 2 -161.5t48.5 -126t92 -82t133.5 -29.5t141 29.5t112.5 82t79.5 126t42 161.5l110 891h230l-109 -891q-16 -129 -68 -239.5t-134 -190.5t-190.5 -125.5t-237.5 -45.5t-226.5 45.5t-159.5 125.5t-87 190.5t-9 239.5zM679 1584 l239 280q10 13 19 20t19.5 11.5t23 5.5t30.5 1h225l-338 -293q-19 -16 -34.5 -20.5t-39.5 -4.5h-144z" />
<glyph unicode="&#xdb;" horiz-adv-x="1410" d="M144 584l108 891h230l-108 -891q-11 -88 2 -161.5t48.5 -126t92 -82t133.5 -29.5t141 29.5t112.5 82t79.5 126t42 161.5l110 891h230l-109 -891q-16 -129 -68 -239.5t-134 -190.5t-190.5 -125.5t-237.5 -45.5t-226.5 45.5t-159.5 125.5t-87 190.5t-9 239.5zM506 1584 l258 281h182l195 -281h-147q-13 0 -30.5 5t-33.5 31l-79 124q-3 5 -5.5 9.5t-4.5 9.5q-3 -5 -7 -9.5t-8 -9.5l-107 -124q-22 -26 -41 -31t-31 -5h-141z" />
<glyph unicode="&#xdc;" horiz-adv-x="1410" d="M144 584l108 891h230l-108 -891q-11 -88 2 -161.5t48.5 -126t92 -82t133.5 -29.5t141 29.5t112.5 82t79.5 126t42 161.5l110 891h230l-109 -891q-16 -129 -68 -239.5t-134 -190.5t-190.5 -125.5t-237.5 -45.5t-226.5 45.5t-159.5 125.5t-87 190.5t-9 239.5zM517 1704 q0 27 10 51t27.5 42t40.5 28t49 10q27 0 50 -10t41 -28t29 -42t11 -51t-11 -50t-29 -40t-41.5 -27t-49.5 -10t-49 10t-40.5 27t-27.5 40t-10 50zM916 1704q0 27 10 51t27.5 42t40.5 28t50 10t50.5 -10t41 -28t28 -42t10.5 -51t-10.5 -50t-28 -40t-41 -27t-50.5 -10t-50 10 t-40.5 27t-27.5 40t-10 50z" />
<glyph unicode="&#xdd;" horiz-adv-x="1219" d="M103 1475h205q30 0 47 -15t25 -39l216 -545q23 -66 35 -128q14 31 31 62t37 66l353 545q12 20 32 37t50 17h191l-605 -894l-73 -581h-230l72 581zM582 1584l239 280q10 13 19 20t19.5 11.5t23 5.5t30.5 1h225l-338 -293q-19 -16 -34.5 -20.5t-39.5 -4.5h-144z" />
<glyph unicode="&#xde;" horiz-adv-x="1167" d="M89 0l180 1475h231l-33 -266h200q121 0 209 -29t145 -81t85.5 -125t28.5 -161q0 -118 -38 -217t-112 -171t-183 -112t-251 -40h-199l-34 -273h-229zM375 456h198q83 0 144.5 25t102.5 69.5t61.5 106.5t20.5 136q0 54 -16 97.5t-47.5 74t-80.5 47t-115 16.5h-199z" />
<glyph unicode="&#xdf;" horiz-adv-x="1216" d="M76 940l9 88h169q26 93 76 178t119 149.5t155 103t184 38.5q97 0 165.5 -29t111.5 -74t62.5 -99t19.5 -103q0 -69 -22.5 -117t-57 -84t-74.5 -62t-74 -51t-56.5 -51.5t-22.5 -62.5q0 -33 21 -56.5t53 -44.5t69 -44.5t69 -56t53 -78t21 -111.5q0 -93 -33 -166 t-89.5 -122.5t-130.5 -75t-155 -25.5q-89 0 -162.5 36t-124.5 92l59 81q10 14 24 22.5t35 8.5q19 0 37 -14t40.5 -31t53 -31t75.5 -14q36 0 67 14t53.5 38.5t35.5 57t13 70.5q0 46 -23 76.5t-57.5 54.5t-75 45t-75 48.5t-57.5 66t-23 96.5q0 67 25 113.5t61 82t79 64.5 t79.5 61t61 70t24.5 93q0 29 -10 57t-32 50.5t-57 35.5t-84 13q-62 0 -115 -34.5t-93.5 -93t-67 -135t-37.5 -158.5l-107 -881l-50 -201q-14 -44 -40 -68t-73 -24h-88l137 1125l-102 16q-25 5 -38.5 17t-9.5 36z" />
<glyph unicode="&#xe0;" horiz-adv-x="1057" d="M43 355q0 93 23.5 182t66.5 167t103.5 143.5t135 113t161.5 73.5t182 26q69 0 136.5 -11t131.5 -37l-125 -1012h-116q-42 0 -57 21.5t-15 53.5l13 169q-36 -59 -76.5 -107t-85.5 -81.5t-95 -52t-104 -18.5q-60 0 -111.5 23.5t-88.5 70.5t-58 116t-21 160zM262 395 q0 -117 37.5 -172.5t106.5 -55.5q46 0 90 30t83 83t73 124.5t59 155.5l42 337q-17 2 -34.5 3t-34.5 1q-88 0 -165.5 -41t-134 -110.5t-89.5 -161t-33 -193.5zM454 1491h191q34 0 49.5 -12.5t27.5 -37.5l108 -248h-116q-23 0 -36.5 7t-26.5 26z" />
<glyph unicode="&#xe1;" horiz-adv-x="1057" d="M43 355q0 93 23.5 182t66.5 167t103.5 143.5t135 113t161.5 73.5t182 26q69 0 136.5 -11t131.5 -37l-125 -1012h-116q-42 0 -57 21.5t-15 53.5l13 169q-36 -59 -76.5 -107t-85.5 -81.5t-95 -52t-104 -18.5q-60 0 -111.5 23.5t-88.5 70.5t-58 116t-21 160zM262 395 q0 -117 37.5 -172.5t106.5 -55.5q46 0 90 30t83 83t73 124.5t59 155.5l42 337q-17 2 -34.5 3t-34.5 1q-88 0 -165.5 -41t-134 -110.5t-89.5 -161t-33 -193.5zM617 1193l164 248q16 26 35 38t54 12h197l-258 -265q-17 -18 -32 -25.5t-39 -7.5h-121z" />
<glyph unicode="&#xe2;" horiz-adv-x="1057" d="M43 355q0 93 23.5 182t66.5 167t103.5 143.5t135 113t161.5 73.5t182 26q69 0 136.5 -11t131.5 -37l-125 -1012h-116q-42 0 -57 21.5t-15 53.5l13 169q-36 -59 -76.5 -107t-85.5 -81.5t-95 -52t-104 -18.5q-60 0 -111.5 23.5t-88.5 70.5t-58 116t-21 160zM262 395 q0 -117 37.5 -172.5t106.5 -55.5q46 0 90 30t83 83t73 124.5t59 155.5l42 337q-17 2 -34.5 3t-34.5 1q-88 0 -165.5 -41t-134 -110.5t-89.5 -161t-33 -193.5zM378 1197l245 278h188l182 -278h-135q-11 0 -23 4t-23 19l-90 118q-9 10 -14 22q-5 -6 -10.5 -11.5l-10.5 -10.5 l-119 -118q-11 -11 -24.5 -17t-25.5 -6h-140z" />
<glyph unicode="&#xe3;" horiz-adv-x="1057" d="M43 355q0 93 23.5 182t66.5 167t103.5 143.5t135 113t161.5 73.5t182 26q69 0 136.5 -11t131.5 -37l-125 -1012h-116q-42 0 -57 21.5t-15 53.5l13 169q-36 -59 -76.5 -107t-85.5 -81.5t-95 -52t-104 -18.5q-60 0 -111.5 23.5t-88.5 70.5t-58 116t-21 160zM262 395 q0 -117 37.5 -172.5t106.5 -55.5q46 0 90 30t83 83t73 124.5t59 155.5l42 337q-17 2 -34.5 3t-34.5 1q-88 0 -165.5 -41t-134 -110.5t-89.5 -161t-33 -193.5zM413 1226q6 53 24.5 97t46.5 75.5t63 48.5t75 17q34 0 61.5 -13.5t51 -30t44.5 -30.5t40 -14q31 0 50 19t25 63 h124q-6 -53 -24.5 -96.5t-46 -75t-62.5 -48t-75 -16.5q-34 0 -61 13.5t-51.5 30t-45.5 30.5t-40 14q-31 0 -50 -20t-24 -64h-125z" />
<glyph unicode="&#xe4;" horiz-adv-x="1057" d="M43 355q0 93 23.5 182t66.5 167t103.5 143.5t135 113t161.5 73.5t182 26q69 0 136.5 -11t131.5 -37l-125 -1012h-116q-42 0 -57 21.5t-15 53.5l13 169q-36 -59 -76.5 -107t-85.5 -81.5t-95 -52t-104 -18.5q-60 0 -111.5 23.5t-88.5 70.5t-58 116t-21 160zM262 395 q0 -117 37.5 -172.5t106.5 -55.5q46 0 90 30t83 83t73 124.5t59 155.5l42 337q-17 2 -34.5 3t-34.5 1q-88 0 -165.5 -41t-134 -110.5t-89.5 -161t-33 -193.5zM407 1322q0 27 10 51t27.5 42t40.5 28t49 10q27 0 50.5 -10t41 -28t28.5 -42t11 -51t-11 -50t-28.5 -40t-41.5 -27 t-50 -10t-49 10t-40.5 27t-27.5 40t-10 50zM789 1322q0 27 10 51t27.5 42t40.5 28t50 10t50.5 -10t41 -28t28 -42t10.5 -51t-10.5 -50t-28 -40t-41.5 -27t-50 -10q-27 0 -50 10t-40.5 27t-27.5 40t-10 50z" />
<glyph unicode="&#xe5;" horiz-adv-x="1057" d="M43 355q0 93 23.5 182t66.5 167t103.5 143.5t135 113t161.5 73.5t182 26q69 0 136.5 -11t131.5 -37l-125 -1012h-116q-42 0 -57 21.5t-15 53.5l13 169q-36 -59 -76.5 -107t-85.5 -81.5t-95 -52t-104 -18.5q-60 0 -111.5 23.5t-88.5 70.5t-58 116t-21 160zM262 395 q0 -117 37.5 -172.5t106.5 -55.5q46 0 90 30t83 83t73 124.5t59 155.5l42 337q-17 2 -34.5 3t-34.5 1q-88 0 -165.5 -41t-134 -110.5t-89.5 -161t-33 -193.5zM541 1353q5 45 25 82.5t50 64t68 40.5t78 14q41 0 76 -14t59.5 -40.5t36.5 -64t7 -82.5t-25.5 -81.5t-51 -62.5 t-68.5 -40.5t-79 -14.5q-40 0 -74.5 14.5t-59 40.5t-36 62.5t-6.5 81.5zM651 1353q-5 -43 16 -70t64 -27q39 0 66 27t32 70q5 44 -16 70.5t-61 26.5q-43 0 -69.5 -26.5t-31.5 -70.5z" />
<glyph unicode="&#xe6;" horiz-adv-x="1525" d="M11 232q0 71 31.5 137t104 119t192.5 86t297 38l6 52q14 115 -22 170.5t-119 55.5q-58 0 -99 -16t-72 -34.5t-56 -34t-51 -15.5q-22 0 -36 11t-22 27l-29 69q91 83 185.5 124.5t203.5 41.5t172 -45.5t89 -125.5q62 80 149.5 124t198.5 44q63 0 117.5 -20.5t94 -56 t62.5 -82.5t23 -101q0 -57 -27 -113t-95.5 -101.5t-186.5 -75t-303 -33.5v-22q0 -151 59 -224t163 -73q71 0 118 19.5t80.5 42.5t58.5 42.5t53 19.5q22 0 40 -21l55 -67q-53 -54 -104 -94t-104.5 -65.5t-112 -37.5t-127.5 -12q-103 0 -185 54t-125 164q-34 -58 -79 -100.5 t-95.5 -68.5t-104 -38t-103.5 -12q-144 0 -219.5 63t-75.5 185zM216 260q0 -66 35 -97t95 -31q49 0 93 17t79.5 52.5t59.5 89.5t33 128l9 61q-115 -5 -192.5 -23t-124.5 -46.5t-67 -66.5t-20 -84zM831 604q123 8 202.5 25.5t125 41.5t63 54.5t17.5 62.5q0 51 -33.5 83.5 t-99.5 32.5q-57 0 -103 -21.5t-80 -60.5t-57 -94t-35 -124z" />
<glyph unicode="&#xe7;" horiz-adv-x="929" d="M51 418q0 84 18.5 165t52.5 152t82.5 131t109 103t131 67t149.5 24q104 0 175.5 -37t125.5 -109l-70 -84q-8 -8 -18 -14.5t-23 -6.5q-15 0 -29.5 11t-35 25t-51 26t-78.5 12q-65 0 -122.5 -35t-101 -97t-69.5 -148t-26 -187q0 -121 54 -189.5t152 -68.5q63 0 105.5 18.5 t71.5 40t50.5 39.5t45.5 18q22 0 40 -20l55 -68q-47 -52 -90 -88.5t-86.5 -60t-89 -35.5t-98.5 -15l-21 -57q78 -19 111 -52.5t33 -79.5q0 -39 -18 -69t-50 -51t-76.5 -32.5t-98.5 -11.5q-39 0 -72 7.5t-63 20.5l29 69q8 22 29 21q6 0 12.5 -3t15.5 -6.5t20 -6.5t27 -3 q36 0 54 17t18 40q0 31 -32.5 44t-99.5 24l58 133q-74 12 -130.5 47.5t-95.5 90.5t-59.5 128.5t-20.5 160.5z" />
<glyph unicode="&#xe8;" horiz-adv-x="989" d="M51 415q0 82 17.5 161t51 151t81 133t108.5 105t134 69t157 25q81 0 140.5 -23t99 -59.5t59 -80.5t19.5 -86q0 -69 -28.5 -126t-101 -103t-199 -80t-324.5 -55q-1 -6 -1 -12.5v-13.5q0 -130 56.5 -196t168.5 -66q71 0 118 19.5t80.5 42.5t58.5 42.5t53 19.5q22 0 40 -21 l55 -67q-53 -54 -104.5 -94t-104.5 -65.5t-111.5 -37.5t-127.5 -12q-91 0 -163.5 30.5t-124.5 86.5t-79.5 135t-27.5 178zM285 591q141 18 227 40.5t132 49.5t61.5 57t15.5 64q0 16 -7 34.5t-23 33t-41.5 24t-61.5 9.5q-57 0 -106 -23.5t-87.5 -65t-66.5 -99t-43 -124.5z M328 1491h191q34 0 49.5 -12.5t27.5 -37.5l108 -248h-116q-23 0 -36.5 7t-26.5 26z" />
<glyph unicode="&#xe9;" horiz-adv-x="989" d="M51 415q0 82 17.5 161t51 151t81 133t108.5 105t134 69t157 25q81 0 140.5 -23t99 -59.5t59 -80.5t19.5 -86q0 -69 -28.5 -126t-101 -103t-199 -80t-324.5 -55q-1 -6 -1 -12.5v-13.5q0 -130 56.5 -196t168.5 -66q71 0 118 19.5t80.5 42.5t58.5 42.5t53 19.5q22 0 40 -21 l55 -67q-53 -54 -104.5 -94t-104.5 -65.5t-111.5 -37.5t-127.5 -12q-91 0 -163.5 30.5t-124.5 86.5t-79.5 135t-27.5 178zM285 591q141 18 227 40.5t132 49.5t61.5 57t15.5 64q0 16 -7 34.5t-23 33t-41.5 24t-61.5 9.5q-57 0 -106 -23.5t-87.5 -65t-66.5 -99t-43 -124.5z M498 1193l164 248q16 26 35 38t54 12h197l-258 -265q-17 -18 -32 -25.5t-39 -7.5h-121z" />
<glyph unicode="&#xea;" horiz-adv-x="989" d="M51 415q0 82 17.5 161t51 151t81 133t108.5 105t134 69t157 25q81 0 140.5 -23t99 -59.5t59 -80.5t19.5 -86q0 -69 -28.5 -126t-101 -103t-199 -80t-324.5 -55q-1 -6 -1 -12.5v-13.5q0 -130 56.5 -196t168.5 -66q71 0 118 19.5t80.5 42.5t58.5 42.5t53 19.5q22 0 40 -21 l55 -67q-53 -54 -104.5 -94t-104.5 -65.5t-111.5 -37.5t-127.5 -12q-91 0 -163.5 30.5t-124.5 86.5t-79.5 135t-27.5 178zM285 591q141 18 227 40.5t132 49.5t61.5 57t15.5 64q0 16 -7 34.5t-23 33t-41.5 24t-61.5 9.5q-57 0 -106 -23.5t-87.5 -65t-66.5 -99t-43 -124.5z M292 1197l245 278h188l182 -278h-135q-11 0 -23 4t-23 19l-90 118q-9 10 -14 22q-5 -6 -10.5 -11.5l-10.5 -10.5l-119 -118q-11 -11 -24.5 -17t-25.5 -6h-140z" />
<glyph unicode="&#xeb;" horiz-adv-x="989" d="M51 415q0 82 17.5 161t51 151t81 133t108.5 105t134 69t157 25q81 0 140.5 -23t99 -59.5t59 -80.5t19.5 -86q0 -69 -28.5 -126t-101 -103t-199 -80t-324.5 -55q-1 -6 -1 -12.5v-13.5q0 -130 56.5 -196t168.5 -66q71 0 118 19.5t80.5 42.5t58.5 42.5t53 19.5q22 0 40 -21 l55 -67q-53 -54 -104.5 -94t-104.5 -65.5t-111.5 -37.5t-127.5 -12q-91 0 -163.5 30.5t-124.5 86.5t-79.5 135t-27.5 178zM285 591q141 18 227 40.5t132 49.5t61.5 57t15.5 64q0 16 -7 34.5t-23 33t-41.5 24t-61.5 9.5q-57 0 -106 -23.5t-87.5 -65t-66.5 -99t-43 -124.5z M306 1322q0 27 10 51t27.5 42t40.5 28t49 10q27 0 50.5 -10t41 -28t28.5 -42t11 -51t-11 -50t-28.5 -40t-41.5 -27t-50 -10t-49 10t-40.5 27t-27.5 40t-10 50zM688 1322q0 27 10 51t27.5 42t40.5 28t50 10t50.5 -10t41 -28t28 -42t10.5 -51t-10.5 -50t-28 -40t-41.5 -27 t-50 -10q-27 0 -50 10t-40.5 27t-27.5 40t-10 50z" />
<glyph unicode="&#xec;" horiz-adv-x="487" d="M56 1491h191q34 0 49.5 -12.5t27.5 -37.5l108 -248h-116q-23 0 -36.5 7t-26.5 26zM60 0l125 1044h217l-126 -1044h-216z" />
<glyph unicode="&#xed;" horiz-adv-x="487" d="M60 0l125 1044h217l-126 -1044h-216zM186 1193l164 248q16 26 35 38t54 12h197l-258 -265q-17 -18 -32 -25.5t-39 -7.5h-121z" />
<glyph unicode="&#xee;" horiz-adv-x="487" d="M6 1197l245 278h188l183 -278h-136q-11 0 -22.5 4t-23.5 19l-90 118q-9 10 -14 22q-5 -6 -10 -11.5t-11 -10.5l-118 -118q-11 -11 -24.5 -17t-26.5 -6h-140zM60 0l125 1044h217l-126 -1044h-216z" />
<glyph unicode="&#xef;" horiz-adv-x="487" d="M45 1322q0 27 10 51t27.5 42t40.5 28t49 10q27 0 50.5 -10t41.5 -28t28.5 -42t10.5 -51t-10.5 -50t-28.5 -40t-42 -27t-50 -10t-49 10t-40.5 27t-27.5 40t-10 50zM60 0l125 1044h217l-126 -1044h-216zM359 1322q0 27 10.5 51t27.5 42t40 28t50 10t50.5 -10t41.5 -28 t28 -42t10 -51t-10 -50t-28 -40t-41.5 -27t-50.5 -10t-50 10t-40 27t-27.5 40t-10.5 50z" />
<glyph unicode="&#xf0;" horiz-adv-x="1085" d="M48 411q0 111 36.5 209t101.5 171.5t155 116.5t197 43q98 0 173.5 -42.5t125.5 -126.5q-3 124 -39 215.5t-109 157.5l-204 -138l-40 70q-9 16 -5 32.5t18 24.5l125 86q-75 40 -174 68q-36 11 -43 34.5t8 55.5l33 68q94 -16 179 -49.5t157 -86.5l184 121l35 -71 q8 -14 6.5 -31.5t-22.5 -29.5l-108 -74q79 -87 124 -209t45 -284q0 -172 -37.5 -311t-108.5 -238.5t-175.5 -153t-240.5 -53.5q-87 0 -160 29.5t-126 84.5t-82 133.5t-29 177.5zM259 421q0 -65 16 -115t44 -84.5t67 -52.5t84 -18q59 0 111 23t94 74.5t72.5 133.5t47.5 199 q-10 41 -28.5 78t-47 66t-68 45.5t-91.5 16.5q-71 0 -127 -28.5t-94.5 -77.5t-59 -116t-20.5 -144z" />
<glyph unicode="&#xf1;" horiz-adv-x="1097" d="M51 0l125 1047h111q36 0 54.5 -18t18.5 -56l-10 -165q81 127 181.5 190t206.5 63q66 0 117 -26t84 -77t45 -124.5t1 -168.5l-79 -665h-219l79 665q14 112 -13 162.5t-98 50.5q-45 0 -92.5 -26t-91 -72.5t-81.5 -112.5t-62 -147l-58 -520h-219zM325 1226q6 53 24.5 97 t46.5 75.5t63 48.5t75 17q34 0 61.5 -13.5t51 -30t44.5 -30.5t40 -14q31 0 50 19t25 63h124q-6 -53 -24.5 -96.5t-46 -75t-62.5 -48t-75 -16.5q-34 0 -61 13.5t-51.5 30t-45.5 30.5t-40 14q-31 0 -50 -20t-24 -64h-125z" />
<glyph unicode="&#xf2;" horiz-adv-x="1067" d="M52 421q0 134 42.5 250.5t116.5 203.5t172.5 136.5t211.5 49.5q86 0 158.5 -29.5t125 -85t82 -137t29.5 -184.5q0 -88 -19.5 -170t-54 -153.5t-84.5 -129.5t-109.5 -99.5t-129 -64.5t-144.5 -23q-86 0 -159 29t-125.5 85t-82.5 137t-30 185zM272 423q0 -266 196 -266 q69 0 125 38t95.5 102.5t61 149t21.5 177.5q0 135 -49.5 200t-147.5 65q-70 0 -125.5 -38t-94.5 -101.5t-60.5 -148.5t-21.5 -178zM360 1491h191q34 0 49.5 -12.5t27.5 -37.5l108 -248h-116q-23 0 -36.5 7t-26.5 26z" />
<glyph unicode="&#xf3;" horiz-adv-x="1067" d="M52 421q0 134 42.5 250.5t116.5 203.5t172.5 136.5t211.5 49.5q86 0 158.5 -29.5t125 -85t82 -137t29.5 -184.5q0 -88 -19.5 -170t-54 -153.5t-84.5 -129.5t-109.5 -99.5t-129 -64.5t-144.5 -23q-86 0 -159 29t-125.5 85t-82.5 137t-30 185zM272 423q0 -266 196 -266 q69 0 125 38t95.5 102.5t61 149t21.5 177.5q0 135 -49.5 200t-147.5 65q-70 0 -125.5 -38t-94.5 -101.5t-60.5 -148.5t-21.5 -178zM491 1193l164 248q16 26 35 38t54 12h197l-258 -265q-17 -18 -32 -25.5t-39 -7.5h-121z" />
<glyph unicode="&#xf4;" horiz-adv-x="1067" d="M52 421q0 134 42.5 250.5t116.5 203.5t172.5 136.5t211.5 49.5q86 0 158.5 -29.5t125 -85t82 -137t29.5 -184.5q0 -88 -19.5 -170t-54 -153.5t-84.5 -129.5t-109.5 -99.5t-129 -64.5t-144.5 -23q-86 0 -159 29t-125.5 85t-82.5 137t-30 185zM272 423q0 -266 196 -266 q69 0 125 38t95.5 102.5t61 149t21.5 177.5q0 135 -49.5 200t-147.5 65q-70 0 -125.5 -38t-94.5 -101.5t-60.5 -148.5t-21.5 -178zM308 1197l245 278h188l183 -278h-136q-11 0 -22.5 4t-23.5 19l-90 118q-9 10 -14 22q-5 -6 -10 -11.5t-11 -10.5l-118 -118 q-11 -11 -24.5 -17t-25.5 -6h-141z" />
<glyph unicode="&#xf5;" horiz-adv-x="1067" d="M52 421q0 134 42.5 250.5t116.5 203.5t172.5 136.5t211.5 49.5q86 0 158.5 -29.5t125 -85t82 -137t29.5 -184.5q0 -88 -19.5 -170t-54 -153.5t-84.5 -129.5t-109.5 -99.5t-129 -64.5t-144.5 -23q-86 0 -159 29t-125.5 85t-82.5 137t-30 185zM272 423q0 -266 196 -266 q69 0 125 38t95.5 102.5t61 149t21.5 177.5q0 135 -49.5 200t-147.5 65q-70 0 -125.5 -38t-94.5 -101.5t-60.5 -148.5t-21.5 -178zM337 1226q6 53 24.5 97t46.5 75.5t63 48.5t75 17q34 0 61.5 -13.5t51 -30t44.5 -30.5t40 -14q31 0 50 19t25 63h124q-6 -53 -24.5 -96.5 t-46 -75t-62.5 -48t-75 -16.5q-34 0 -61 13.5t-51.5 30t-45.5 30.5t-40 14q-31 0 -50 -20t-24 -64h-125z" />
<glyph unicode="&#xf6;" horiz-adv-x="1067" d="M52 421q0 134 42.5 250.5t116.5 203.5t172.5 136.5t211.5 49.5q86 0 158.5 -29.5t125 -85t82 -137t29.5 -184.5q0 -88 -19.5 -170t-54 -153.5t-84.5 -129.5t-109.5 -99.5t-129 -64.5t-144.5 -23q-86 0 -159 29t-125.5 85t-82.5 137t-30 185zM272 423q0 -266 196 -266 q69 0 125 38t95.5 102.5t61 149t21.5 177.5q0 135 -49.5 200t-147.5 65q-70 0 -125.5 -38t-94.5 -101.5t-60.5 -148.5t-21.5 -178zM322 1322q0 27 10 51t27.5 42t40.5 28t49 10q27 0 50.5 -10t41 -28t28.5 -42t11 -51t-11 -50t-28.5 -40t-41.5 -27t-50 -10t-49 10t-40.5 27 t-27.5 40t-10 50zM704 1322q0 27 10 51t27.5 42t40.5 28t50 10t50.5 -10t41 -28t28 -42t10.5 -51t-10.5 -50t-28 -40t-41.5 -27t-50 -10q-27 0 -50 10t-40.5 27t-27.5 40t-10 50z" />
<glyph unicode="&#xf7;" horiz-adv-x="1187" d="M96 607l20 161h989l-20 -161h-989zM415 306q0 32 12 60.5t33.5 50t50.5 34t60 12.5q27 0 50 -10t39.5 -27t25.5 -40.5t9 -48.5q0 -33 -12.5 -61.5t-34.5 -49t-51 -32.5t-59 -12q-28 0 -50.5 10t-38.5 26t-25 38.5t-9 49.5zM505 1035q0 32 12 60.5t33.5 50t50.5 34 t61 12.5q27 0 49.5 -10t39 -27t25.5 -40t9 -49q0 -33 -13 -61.5t-34.5 -49t-50.5 -32.5t-59 -12q-55 0 -89 36t-34 88z" />
<glyph unicode="&#xf8;" horiz-adv-x="1065" d="M-3 -54l137 188q-39 55 -60.5 126.5t-21.5 160.5q0 134 42.5 250.5t116 203.5t172 136.5t211.5 49.5q122 0 216 -59l23 31q12 16 22 28t21 19t24.5 10.5t33.5 3.5h109l-135 -185q39 -54 60.5 -125t21.5 -159t-19.5 -170t-54 -153.5t-84.5 -129.5t-110 -99.5t-130 -64.5 t-145 -23q-122 0 -215 57l-21 -30q-27 -36 -62.5 -51t-70.5 -15h-81zM258 423q0 -36 4 -67t12 -58l416 569q-48 36 -116 36q-70 0 -127.5 -36.5t-99.5 -100.5t-65.5 -152t-23.5 -191zM352 178q48 -36 116 -36q69 0 127 36.5t99.5 101t65 152.5t23.5 192q0 70 -15 121z" />
<glyph unicode="&#xf9;" d="M87 381l79 663h219l-79 -663q-14 -112 13 -163t98 -51q43 0 89 24t89 68t80 106.5t62 139.5l65 539h219l-126 -1044h-110q-80 0 -79 78l10 150q-80 -122 -179 -182.5t-203 -60.5q-66 0 -117 26t-84 76.5t-45 124.5t-1 169zM352 1491h191q34 0 49.5 -12.5t27.5 -37.5 l108 -248h-116q-23 0 -36.5 7t-26.5 26z" />
<glyph unicode="&#xfa;" d="M87 381l79 663h219l-79 -663q-14 -112 13 -163t98 -51q43 0 89 24t89 68t80 106.5t62 139.5l65 539h219l-126 -1044h-110q-80 0 -79 78l10 150q-80 -122 -179 -182.5t-203 -60.5q-66 0 -117 26t-84 76.5t-45 124.5t-1 169zM527 1193l164 248q16 26 35 38t54 12h197 l-258 -265q-17 -18 -32 -25.5t-39 -7.5h-121z" />
<glyph unicode="&#xfb;" d="M87 381l79 663h219l-79 -663q-14 -112 13 -163t98 -51q43 0 89 24t89 68t80 106.5t62 139.5l65 539h219l-126 -1044h-110q-80 0 -79 78l10 150q-80 -122 -179 -182.5t-203 -60.5q-66 0 -117 26t-84 76.5t-45 124.5t-1 169zM314 1197l245 278h189l182 -278h-135 q-11 0 -23 4t-23 19l-91 118q-9 10 -14 22q-5 -6 -10 -11.5t-10 -10.5l-119 -118q-11 -11 -24.5 -17t-25.5 -6h-141z" />
<glyph unicode="&#xfc;" d="M87 381l79 663h219l-79 -663q-14 -112 13 -163t98 -51q43 0 89 24t89 68t80 106.5t62 139.5l65 539h219l-126 -1044h-110q-80 0 -79 78l10 150q-80 -122 -179 -182.5t-203 -60.5q-66 0 -117 26t-84 76.5t-45 124.5t-1 169zM310 1322q0 27 10 51t27.5 42t40.5 28t49 10 q27 0 50.5 -10t41 -28t28.5 -42t11 -51t-11 -50t-28.5 -40t-41.5 -27t-50 -10t-49 10t-40.5 27t-27.5 40t-10 50zM692 1322q0 27 10 51t27.5 42t40.5 28t50 10t50.5 -10t41 -28t28 -42t10.5 -51t-10.5 -50t-28 -40t-41.5 -27t-50 -10q-27 0 -50 10t-40.5 27t-27.5 40t-10 50 z" />
<glyph unicode="&#xfd;" horiz-adv-x="995" d="M68 1044h182q26 0 38 -12.5t16 -30.5l148 -592q5 -24 8.5 -48.5t5.5 -48.5q10 25 21 49t22 49l292 592q9 18 26 30t35 12h175l-697 -1343q-25 -48 -73 -48h-163l230 420zM467 1193l164 248q16 26 35 38t54 12h197l-258 -265q-17 -18 -32 -25.5t-39 -7.5h-121z" />
<glyph unicode="&#xfe;" horiz-adv-x="1093" d="M7 -347l227 1863h217l-86 -701q38 56 80.5 102t89.5 77.5t97.5 49t102.5 17.5q66 0 118.5 -24t89.5 -73t57 -121t20 -168q0 -87 -18 -172t-50.5 -161.5t-79.5 -142t-103 -113t-121.5 -74.5t-136.5 -27q-74 0 -134 27.5t-103 76.5l-44 -359q-4 -30 -27.5 -53.5 t-60.5 -23.5h-135zM293 237q37 -45 86.5 -63.5t98.5 -18.5t92 20.5t79 56t64.5 84.5t48 104t30 115t10.5 118q0 116 -39.5 174t-112.5 58q-45 0 -91 -29.5t-89 -81t-80.5 -121.5t-63.5 -152z" />
<glyph unicode="&#xff;" horiz-adv-x="995" d="M68 1044h182q26 0 38 -12.5t16 -30.5l148 -592q5 -24 8.5 -48.5t5.5 -48.5q10 25 21 49t22 49l292 592q9 18 26 30t35 12h175l-697 -1343q-25 -48 -73 -48h-163l230 420zM273 1322q0 27 10 51t27.5 42t40.5 28t49 10q27 0 50.5 -10t41 -28t28.5 -42t11 -51t-11 -50 t-28.5 -40t-41.5 -27t-50 -10t-49 10t-40.5 27t-27.5 40t-10 50zM655 1322q0 27 10 51t27.5 42t40.5 28t50 10t50.5 -10t41 -28t28 -42t10.5 -51t-10.5 -50t-28 -40t-41.5 -27t-50 -10q-27 0 -50 10t-40.5 27t-27.5 40t-10 50z" />
<glyph unicode="&#x100;" horiz-adv-x="1312" d="M-75 0l718 1475h235l356 -1475h-178q-31 0 -48 15t-24 39l-70 331h-574l-152 -331q-10 -22 -32 -38t-51 -16h-180zM417 551h463l-117 552q-5 32 -13 73t-15 90q-17 -49 -34.5 -90.5t-31.5 -74.5zM505 1616l14 129h546l-13 -129h-547z" />
<glyph unicode="&#x101;" horiz-adv-x="1057" d="M43 355q0 93 23.5 182t66.5 167t103.5 143.5t135 113t161.5 73.5t182 26q69 0 136.5 -11t131.5 -37l-125 -1012h-116q-42 0 -57 21.5t-15 53.5l13 169q-36 -59 -76.5 -107t-85.5 -81.5t-95 -52t-104 -18.5q-60 0 -111.5 23.5t-88.5 70.5t-58 116t-21 160zM262 395 q0 -117 37.5 -172.5t106.5 -55.5q46 0 90 30t83 83t73 124.5t59 155.5l42 337q-17 2 -34.5 3t-34.5 1q-88 0 -165.5 -41t-134 -110.5t-89.5 -161t-33 -193.5zM443 1251l15 143h554l-17 -143h-552z" />
<glyph unicode="&#x102;" horiz-adv-x="1312" d="M-75 0l718 1475h235l356 -1475h-178q-31 0 -48 15t-24 39l-70 331h-574l-152 -331q-10 -22 -32 -38t-51 -16h-180zM417 551h463l-117 552q-5 32 -13 73t-15 90q-17 -49 -34.5 -90.5t-31.5 -74.5zM510 1858h155q-8 -68 19 -105t107 -37q40 0 68.5 10t46.5 28t28.5 44 t14.5 60h155q-7 -65 -33.5 -116t-69 -86.5t-99.5 -54.5t-126 -19t-122 16.5t-87.5 50.5t-49.5 86t-7 123z" />
<glyph unicode="&#x103;" horiz-adv-x="1057" d="M43 355q0 93 23.5 182t66.5 167t103.5 143.5t135 113t161.5 73.5t182 26q69 0 136.5 -11t131.5 -37l-125 -1012h-116q-42 0 -57 21.5t-15 53.5l13 169q-36 -59 -76.5 -107t-85.5 -81.5t-95 -52t-104 -18.5q-60 0 -111.5 23.5t-88.5 70.5t-58 116t-21 160zM262 395 q0 -117 37.5 -172.5t106.5 -55.5q46 0 90 30t83 83t73 124.5t59 155.5l42 337q-17 2 -34.5 3t-34.5 1q-88 0 -165.5 -41t-134 -110.5t-89.5 -161t-33 -193.5zM486 1475h143q-4 -33 -1 -59t15.5 -44.5t36 -29t62.5 -10.5q38 0 64 10.5t43 29t26 44.5t13 59h142 q-6 -58 -26 -109.5t-56 -90.5t-90.5 -61.5t-131.5 -22.5t-126 22.5t-76.5 61.5t-35.5 90t-2 110z" />
<glyph unicode="&#x104;" horiz-adv-x="1312" d="M-75 0l718 1475h235l356 -1475h-24q-22 -12 -42.5 -28.5t-38 -36.5t-28 -43.5t-10.5 -50.5q0 -29 16 -45.5t46 -16.5q18 0 30.5 3t20.5 6t13.5 6t10.5 3q15 0 19 -14l24 -82q-33 -24 -80.5 -38t-98.5 -14q-84 0 -128.5 36t-44.5 96q0 62 41.5 118t115.5 101h-20 q-31 0 -48 15t-24 39l-70 331h-574l-152 -331q-10 -22 -32 -38t-51 -16h-180zM417 551h463l-117 552q-5 32 -13 73t-15 90q-17 -49 -34.5 -90.5t-31.5 -74.5z" />
<glyph unicode="&#x105;" horiz-adv-x="1057" d="M44 355q0 93 23.5 182t66.5 167t103.5 143.5t135 113t161.5 73.5t182 26q69 0 136.5 -11t131.5 -37l-125 -1012h-26q-22 -12 -43 -28.5t-38.5 -36.5t-28 -43.5t-10.5 -50.5q0 -29 16 -45.5t46 -16.5q18 0 30.5 3t21 6t13.5 6t10 3q15 0 19 -14l24 -82q-33 -24 -80.5 -38 t-98.5 -14q-84 0 -128.5 36t-44.5 96q0 65 44.5 122t123.5 103q-22 8 -30 26.5t-8 42.5l13 169q-36 -59 -76.5 -107t-85.5 -81.5t-95 -52t-104 -18.5q-60 0 -111.5 23.5t-88.5 70.5t-58 116t-21 160zM263 395q0 -117 37.5 -172.5t106.5 -55.5q46 0 90 30t83.5 83t73 124.5 t58.5 155.5l42 337q-17 2 -34.5 3t-34.5 1q-88 0 -165.5 -41t-134 -110.5t-89.5 -161t-33 -193.5z" />
<glyph unicode="&#x106;" horiz-adv-x="1274" d="M91 625q0 191 60.5 350.5t166 274t247.5 178t304 63.5q80 0 145 -14.5t118 -40.5t96 -63t79 -82l-79 -96q-9 -11 -21.5 -19.5t-30.5 -8.5q-13 0 -26.5 9.5t-30 23t-38.5 29.5t-53 30t-72.5 23t-97.5 9q-113 0 -210 -45.5t-168 -129.5t-112 -203.5t-41 -268.5 q0 -108 27.5 -193.5t76.5 -145t117 -91.5t149 -32q65 0 114.5 10.5t86.5 26t63 34t45.5 34.5t34 26.5t27.5 10.5q11 0 18.5 -5t11.5 -10l81 -101q-95 -106 -224.5 -165t-296.5 -59q-134 0 -239.5 48t-178 133t-111 202.5t-38.5 257.5zM731 1584l239 280q10 13 19 20 t19.5 11.5t23 5.5t30.5 1h225l-338 -293q-19 -16 -34.5 -20.5t-39.5 -4.5h-144z" />
<glyph unicode="&#x107;" horiz-adv-x="929" d="M51 418q0 84 18.5 165t52.5 152t82.5 131t109 103t131 67t149.5 24q104 0 175.5 -37t125.5 -109l-70 -84q-8 -8 -18 -14.5t-23 -6.5q-15 0 -29.5 11t-35 25t-51 26t-78.5 12q-65 0 -122.5 -35t-101 -97t-69.5 -148t-26 -187q0 -121 54 -189.5t152 -68.5q63 0 105.5 18.5 t71.5 40t50.5 39.5t45.5 18q22 0 40 -20l55 -68q-52 -58 -100.5 -96.5t-97 -62t-101 -33t-115.5 -9.5q-91 0 -161.5 31t-119 88t-74 137t-25.5 177zM494 1193l164 248q16 26 35 38t54 12h197l-258 -265q-17 -18 -32 -25.5t-39 -7.5h-121z" />
<glyph unicode="&#x108;" horiz-adv-x="1274" d="M91 625q0 191 60.5 350.5t166 274t247.5 178t304 63.5q80 0 145 -14.5t118 -40.5t96 -63t79 -82l-79 -96q-9 -11 -21.5 -19.5t-30.5 -8.5q-13 0 -26.5 9.5t-30 23t-38.5 29.5t-53 30t-72.5 23t-97.5 9q-113 0 -210 -45.5t-168 -129.5t-112 -203.5t-41 -268.5 q0 -108 27.5 -193.5t76.5 -145t117 -91.5t149 -32q65 0 114.5 10.5t86.5 26t63 34t45.5 34.5t34 26.5t27.5 10.5q11 0 18.5 -5t11.5 -10l81 -101q-95 -106 -224.5 -165t-296.5 -59q-134 0 -239.5 48t-178 133t-111 202.5t-38.5 257.5zM555 1584l258 281h182l195 -281h-147 q-13 0 -30.5 5t-33.5 31l-79 124q-3 5 -5.5 9.5t-4.5 9.5q-3 -5 -6.5 -9.5t-7.5 -9.5l-108 -124q-22 -26 -40.5 -31t-31.5 -5h-141z" />
<glyph unicode="&#x109;" horiz-adv-x="929" d="M51 418q0 84 18.5 165t52.5 152t82.5 131t109 103t131 67t149.5 24q104 0 175.5 -37t125.5 -109l-70 -84q-8 -8 -18 -14.5t-23 -6.5q-15 0 -29.5 11t-35 25t-51 26t-78.5 12q-65 0 -122.5 -35t-101 -97t-69.5 -148t-26 -187q0 -121 54 -189.5t152 -68.5q63 0 105.5 18.5 t71.5 40t50.5 39.5t45.5 18q22 0 40 -20l55 -68q-52 -58 -100.5 -96.5t-97 -62t-101 -33t-115.5 -9.5q-91 0 -161.5 31t-119 88t-74 137t-25.5 177zM301 1197l245 278h188l182 -278h-135q-11 0 -23 4t-23 19l-90 118q-9 10 -14 22q-5 -6 -10.5 -11.5l-10.5 -10.5l-118 -118 q-11 -11 -24.5 -17t-26.5 -6h-140z" />
<glyph unicode="&#x10a;" horiz-adv-x="1274" d="M91 625q0 191 60.5 350.5t166 274t247.5 178t304 63.5q80 0 145 -14.5t118 -40.5t96 -63t79 -82l-79 -96q-9 -11 -21.5 -19.5t-30.5 -8.5q-13 0 -26.5 9.5t-30 23t-38.5 29.5t-53 30t-72.5 23t-97.5 9q-113 0 -210 -45.5t-168 -129.5t-112 -203.5t-41 -268.5 q0 -108 27.5 -193.5t76.5 -145t117 -91.5t149 -32q65 0 114.5 10.5t86.5 26t63 34t45.5 34.5t34 26.5t27.5 10.5q11 0 18.5 -5t11.5 -10l81 -101q-95 -106 -224.5 -165t-296.5 -59q-134 0 -239.5 48t-178 133t-111 202.5t-38.5 257.5zM784 1732q0 30 12 57t31.5 47 t44.5 31.5t52 11.5q28 0 54 -11.5t46 -31.5t32 -46.5t12 -57.5q0 -30 -12.5 -56.5t-33 -46.5t-46 -32t-53.5 -12t-52.5 12t-43.5 32t-31 46.5t-12 56.5z" />
<glyph unicode="&#x10b;" horiz-adv-x="929" d="M51 418q0 84 18.5 165t52.5 152t82.5 131t109 103t131 67t149.5 24q104 0 175.5 -37t125.5 -109l-70 -84q-8 -8 -18 -14.5t-23 -6.5q-15 0 -29.5 11t-35 25t-51 26t-78.5 12q-65 0 -122.5 -35t-101 -97t-69.5 -148t-26 -187q0 -121 54 -189.5t152 -68.5q63 0 105.5 18.5 t71.5 40t50.5 39.5t45.5 18q22 0 40 -20l55 -68q-52 -58 -100.5 -96.5t-97 -62t-101 -33t-115.5 -9.5q-91 0 -161.5 31t-119 88t-74 137t-25.5 177zM478 1360q0 30 12 57t31.5 47t45 31.5t51.5 11.5q28 0 54 -11.5t46 -31.5t32 -46.5t12 -57.5q0 -30 -12.5 -56.5t-33 -46.5 t-46 -32t-53.5 -12t-52.5 12t-43.5 32t-31 46.5t-12 56.5z" />
<glyph unicode="&#x10c;" horiz-adv-x="1274" d="M91 625q0 191 60.5 350.5t166 274t247.5 178t304 63.5q80 0 145 -14.5t118 -40.5t96 -63t79 -82l-79 -96q-9 -11 -21.5 -19.5t-30.5 -8.5q-13 0 -26.5 9.5t-30 23t-38.5 29.5t-53 30t-72.5 23t-97.5 9q-113 0 -210 -45.5t-168 -129.5t-112 -203.5t-41 -268.5 q0 -108 27.5 -193.5t76.5 -145t117 -91.5t149 -32q65 0 114.5 10.5t86.5 26t63 34t45.5 34.5t34 26.5t27.5 10.5q11 0 18.5 -5t11.5 -10l81 -101q-95 -106 -224.5 -165t-296.5 -59q-134 0 -239.5 48t-178 133t-111 202.5t-38.5 257.5zM594 1865h147q12 0 30.5 -4t29.5 -24 l83 -135q3 -5 5.5 -10t4.5 -11q4 5 7.5 10.5t7.5 10.5l113 134q16 20 34.5 24.5t32.5 4.5h146l-258 -281h-189z" />
<glyph unicode="&#x10d;" horiz-adv-x="929" d="M51 418q0 84 18.5 165t52.5 152t82.5 131t109 103t131 67t149.5 24q104 0 175.5 -37t125.5 -109l-70 -84q-8 -8 -18 -14.5t-23 -6.5q-15 0 -29.5 11t-35 25t-51 26t-78.5 12q-65 0 -122.5 -35t-101 -97t-69.5 -148t-26 -187q0 -121 54 -189.5t152 -68.5q63 0 105.5 18.5 t71.5 40t50.5 39.5t45.5 18q22 0 40 -20l55 -68q-52 -58 -100.5 -96.5t-97 -62t-101 -33t-115.5 -9.5q-91 0 -161.5 31t-119 88t-74 137t-25.5 177zM312 1475h139q13 0 24.5 -5.5t16.5 -11.5l95 -125q4 -5 7.5 -10.5t8.5 -12.5q9 12 21 23l123 125q8 5 20 11t25 6h135 l-245 -278h-189z" />
<glyph unicode="&#x10e;" horiz-adv-x="1449" d="M89 0l181 1475h515q138 0 249.5 -47.5t188.5 -132t119 -201t42 -255.5q0 -124 -26.5 -234t-75.5 -203.5t-119 -168t-156.5 -126.5t-188.5 -79.5t-215 -27.5h-514zM343 186h283q117 0 213 44.5t164.5 128t106.5 203.5t38 271q0 104 -26 188.5t-76 144t-121.5 91 t-161.5 31.5h-283zM483 1865h148q12 0 30 -4t29 -24l83 -135q3 -5 5.5 -10t4.5 -11q4 5 8 10.5t8 10.5l112 134q16 20 35 24.5t32 4.5h146l-258 -281h-188z" />
<glyph unicode="&#x10f;" horiz-adv-x="1094" d="M49 371q0 87 18 172t51 161.5t79.5 141.5t102.5 113t121 75t136 27q74 0 134.5 -27.5t103.5 -78.5l69 561h215l-187 -1516h-116q-42 0 -56.5 21.5t-14.5 53.5l13 178q-39 -61 -83 -110.5t-92.5 -84.5t-101 -54t-107.5 -19q-132 0 -208.5 96.5t-76.5 289.5zM266 393 q0 -116 40 -174t112 -58q45 0 92 29.5t90 82t80.5 124t63.5 155.5l32 257q-37 45 -86.5 63t-98.5 18q-74 0 -134 -44.5t-102.5 -116t-65.5 -160t-23 -176.5zM1102 1174l99 343h121q20 0 26.5 -9.5t6.5 -19.5t-3.5 -24.5t-16 -43.5t-36.5 -78.5t-64 -128.5q-14 -26 -32 -32.5 t-47 -6.5h-54z" />
<glyph unicode="&#x110;" horiz-adv-x="1462" d="M11 675l17 134h175l81 666h515q138 0 249 -47.5t189 -132t119.5 -201t41.5 -255.5q0 -124 -26.5 -234t-76 -203.5t-119 -168t-156 -126.5t-188 -79.5t-214.5 -27.5h-515l83 675h-175zM358 186h283q117 0 212.5 44.5t163.5 128t105.5 203.5t37.5 271q0 104 -26 188.5 t-75 144t-121 91t-162 31.5h-283l-59 -479h346l-15 -134h-347z" />
<glyph unicode="&#x111;" horiz-adv-x="1094" d="M49 371q0 87 18 170t51 156.5t79.5 135.5t102.5 106.5t121 69.5t136 25q74 0 133 -26.5t102 -74.5l29 232h-141q-45 0 -60.5 18.5t-9.5 58.5l10 57h218l26 217h215l-26 -217h131l-16 -134h-132l-144 -1165h-116q-42 0 -56.5 21.5t-14.5 53.5l13 178q-39 -61 -83 -110.5 t-92.5 -84.5t-101 -54t-107.5 -19q-132 0 -208.5 96.5t-76.5 289.5zM266 393q0 -116 40 -174t112 -58q45 0 92 29.5t90 82t80.5 124t63.5 155.5l30 233q-37 43 -85.5 61t-97.5 18q-74 0 -134 -40.5t-102.5 -107t-65.5 -151t-23 -172.5z" />
<glyph unicode="&#x112;" horiz-adv-x="1099" d="M89 0l181 1475h850l-23 -188h-618l-55 -453h492l-23 -181h-492l-57 -466h620l-24 -187h-851zM455 1616l14 129h546l-13 -129h-547z" />
<glyph unicode="&#x113;" horiz-adv-x="989" d="M51 415q0 82 17.5 161t51 151t81 133t108.5 105t134 69t157 25q81 0 140.5 -23t99 -59.5t59 -80.5t19.5 -86q0 -69 -28.5 -126t-101 -103t-199 -80t-324.5 -55q-1 -6 -1 -12.5v-13.5q0 -130 56.5 -196t168.5 -66q71 0 118 19.5t80.5 42.5t58.5 42.5t53 19.5q22 0 40 -21 l55 -67q-53 -54 -104.5 -94t-104.5 -65.5t-111.5 -37.5t-127.5 -12q-91 0 -163.5 30.5t-124.5 86.5t-79.5 135t-27.5 178zM285 591q141 18 227 40.5t132 49.5t61.5 57t15.5 64q0 16 -7 34.5t-23 33t-41.5 24t-61.5 9.5q-57 0 -106 -23.5t-87.5 -65t-66.5 -99t-43 -124.5z M339 1251l15 143h554l-17 -143h-552z" />
<glyph unicode="&#x114;" horiz-adv-x="1099" d="M89 0l181 1475h850l-23 -188h-618l-55 -453h492l-23 -181h-492l-57 -466h620l-24 -187h-851zM458 1858h155q-8 -68 19 -105t107 -37q40 0 68.5 10t46.5 28t28.5 44t14.5 60h155q-7 -65 -33.5 -116t-69 -86.5t-99.5 -54.5t-126 -19t-122 16.5t-87.5 50.5t-49.5 86t-7 123z " />
<glyph unicode="&#x115;" horiz-adv-x="989" d="M51 415q0 82 17.5 161t51 151t81 133t108.5 105t134 69t157 25q81 0 140.5 -23t99 -59.5t59 -80.5t19.5 -86q0 -69 -28.5 -126t-101 -103t-199 -80t-324.5 -55q-1 -6 -1 -12.5v-13.5q0 -130 56.5 -196t168.5 -66q71 0 118 19.5t80.5 42.5t58.5 42.5t53 19.5q22 0 40 -21 l55 -67q-53 -54 -104.5 -94t-104.5 -65.5t-111.5 -37.5t-127.5 -12q-91 0 -163.5 30.5t-124.5 86.5t-79.5 135t-27.5 178zM285 591q141 18 227 40.5t132 49.5t61.5 57t15.5 64q0 16 -7 34.5t-23 33t-41.5 24t-61.5 9.5q-57 0 -106 -23.5t-87.5 -65t-66.5 -99t-43 -124.5z M361 1475h143q-4 -33 -1 -59t15.5 -44.5t36 -29t62.5 -10.5q38 0 64 10.5t43 29t26 44.5t13 59h142q-6 -58 -26 -109.5t-56 -90.5t-90.5 -61.5t-131.5 -22.5t-126 22.5t-76.5 61.5t-35.5 90t-2 110z" />
<glyph unicode="&#x116;" horiz-adv-x="1099" d="M89 0l181 1475h850l-23 -188h-618l-55 -453h492l-23 -181h-492l-57 -466h620l-24 -187h-851zM591 1732q0 30 12 57t31.5 47t44.5 31.5t52 11.5q28 0 54 -11.5t46 -31.5t32 -46.5t12 -57.5q0 -30 -12.5 -56.5t-33 -46.5t-46 -32t-53.5 -12t-52.5 12t-43.5 32t-31 46.5 t-12 56.5z" />
<glyph unicode="&#x117;" horiz-adv-x="989" d="M51 415q0 82 17.5 161t51 151t81 133t108.5 105t134 69t157 25q81 0 140.5 -23t99 -59.5t59 -80.5t19.5 -86q0 -69 -28.5 -126t-101 -103t-199 -80t-324.5 -55q-1 -6 -1 -12.5v-13.5q0 -130 56.5 -196t168.5 -66q71 0 118 19.5t80.5 42.5t58.5 42.5t53 19.5q22 0 40 -21 l55 -67q-53 -54 -104.5 -94t-104.5 -65.5t-111.5 -37.5t-127.5 -12q-91 0 -163.5 30.5t-124.5 86.5t-79.5 135t-27.5 178zM285 591q141 18 227 40.5t132 49.5t61.5 57t15.5 64q0 16 -7 34.5t-23 33t-41.5 24t-61.5 9.5q-57 0 -106 -23.5t-87.5 -65t-66.5 -99t-43 -124.5z M484 1360q0 30 12 57t31.5 47t45 31.5t51.5 11.5q28 0 54 -11.5t46 -31.5t32 -46.5t12 -57.5q0 -30 -12.5 -56.5t-33 -46.5t-46 -32t-53.5 -12t-52.5 12t-43.5 32t-31 46.5t-12 56.5z" />
<glyph unicode="&#x118;" horiz-adv-x="1099" d="M89 0l181 1475h850l-23 -188h-618l-55 -453h492l-23 -181h-492l-57 -466h620l-24 -187h-60q-22 -12 -43 -28.5t-38.5 -36.5t-28 -43.5t-10.5 -50.5q0 -29 16.5 -45.5t45.5 -16.5q18 0 30.5 3t21 6t13.5 6t10 3q15 0 19 -14l24 -82q-33 -24 -80.5 -38t-98.5 -14 q-84 0 -128.5 36t-44.5 96q0 62 42 118t115 101h-656z" />
<glyph unicode="&#x119;" horiz-adv-x="989" d="M51 415q0 82 17.5 161t51 151t81 133t108.5 105t134 69t157 25q81 0 140.5 -23t99 -59.5t59 -80.5t19.5 -86q0 -69 -28.5 -126t-101 -103t-199 -80t-324.5 -55q-1 -6 -1 -12.5v-13.5q0 -130 56.5 -196t168.5 -66q71 0 118 19.5t80.5 42.5t58.5 42.5t53 19.5q22 0 40 -21 l55 -67q-78 -80 -151 -127.5t-158 -67.5q-22 -12 -43 -28t-38 -36t-27.5 -43.5t-10.5 -50.5q0 -29 16.5 -45.5t45.5 -16.5q18 0 30.5 3t21 6t13.5 6t10 3q15 0 20 -14l23 -82q-33 -24 -80.5 -38t-98.5 -14q-84 0 -128.5 36t-44.5 96q0 57 35.5 109t98.5 95 q-86 3 -155.5 34.5t-119 87.5t-76 134t-26.5 174zM285 591q141 18 227 40.5t132 49.5t61.5 57t15.5 64q0 16 -7 34.5t-23 33t-41.5 24t-61.5 9.5q-57 0 -106 -23.5t-87.5 -65t-66.5 -99t-43 -124.5z" />
<glyph unicode="&#x11a;" horiz-adv-x="1099" d="M89 0l181 1475h850l-23 -188h-618l-55 -453h492l-23 -181h-492l-57 -466h620l-24 -187h-851zM426 1865h147q12 0 30.5 -4t29.5 -24l83 -135q3 -5 5.5 -10t4.5 -11q4 5 7.5 10.5t7.5 10.5l113 134q16 20 34.5 24.5t32.5 4.5h146l-258 -281h-188z" />
<glyph unicode="&#x11b;" horiz-adv-x="989" d="M51 415q0 82 17.5 161t51 151t81 133t108.5 105t134 69t157 25q81 0 140.5 -23t99 -59.5t59 -80.5t19.5 -86q0 -69 -28.5 -126t-101 -103t-199 -80t-324.5 -55q-1 -6 -1 -12.5v-13.5q0 -130 56.5 -196t168.5 -66q71 0 118 19.5t80.5 42.5t58.5 42.5t53 19.5q22 0 40 -21 l55 -67q-53 -54 -104.5 -94t-104.5 -65.5t-111.5 -37.5t-127.5 -12q-91 0 -163.5 30.5t-124.5 86.5t-79.5 135t-27.5 178zM285 591q141 18 227 40.5t132 49.5t61.5 57t15.5 64q0 16 -7 34.5t-23 33t-41.5 24t-61.5 9.5q-57 0 -106 -23.5t-87.5 -65t-66.5 -99t-43 -124.5z M314 1475h139q13 0 24.5 -5.5t16.5 -11.5l95 -125q4 -5 7.5 -10.5t8.5 -12.5q9 12 21 23l123 125q8 5 20 11t25 6h135l-245 -278h-189z" />
<glyph unicode="&#x11c;" horiz-adv-x="1390" d="M91 635q0 188 60 345.5t165 271t249.5 176.5t313.5 63q88 0 159.5 -15.5t129.5 -42t104 -62.5t84 -77l-74 -96q-18 -27 -44 -32.5t-52 12.5q-27 16 -55 36t-65.5 37.5t-86.5 28.5t-117 11q-119 0 -217 -46t-168.5 -131t-109.5 -204.5t-39 -266.5q0 -111 28 -198.5 t80 -148t125.5 -93.5t163.5 -33q95 0 166 19.5t136 53.5l37 304h-183q-22 0 -33.5 12t-9.5 31l15 132h441l-71 -580q-56 -40 -115.5 -69.5t-125.5 -49.5t-139 -29.5t-157 -9.5q-134 0 -244 48.5t-188 135t-120.5 206.5t-42.5 261zM562 1584l258 281h182l195 -281h-146 q-13 0 -31 5t-34 31l-79 124q-3 5 -5.5 9.5t-4.5 9.5q-3 -5 -6.5 -9.5t-7.5 -9.5l-108 -124q-22 -26 -40.5 -31t-31.5 -5h-141z" />
<glyph unicode="&#x11d;" horiz-adv-x="1010" d="M-61 -106q0 69 29 120.5t78 87.5t113.5 58.5t136 33t144 9t138.5 -12.5q-6 17 -10.5 36t-4.5 39q0 31 9 64t28 72q-39 -27 -87.5 -41t-114.5 -14q-59 0 -112.5 19.5t-93 58.5t-63 97.5t-23.5 136.5q0 75 28 148t82.5 129t135 91t185.5 35q57 0 107.5 -13.5t92.5 -39.5 h289l-9 -73q-6 -45 -46 -58l-116 -26q6 -24 9.5 -49t3.5 -53q0 -49 -11 -88t-27.5 -72.5t-35.5 -63t-35 -59.5t-26.5 -62t-10.5 -70q0 -42 19 -77.5t42 -73t42 -80.5t19 -99q-1 -76 -35.5 -143.5t-98.5 -118.5t-155.5 -81.5t-207.5 -30.5q-93 0 -169 19.5t-129 54.5 t-81.5 83t-28.5 107zM147 -80q0 -67 55.5 -101.5t163.5 -34.5q62 0 113 16t87.5 43.5t56.5 64.5t20 79q0 38 -9 70q-129 22 -220.5 18.5t-151 -25t-87.5 -56t-28 -74.5zM284 1197l244 278h189l182 -278h-135q-11 0 -23 4t-23 19l-90 118q-9 10 -15 22q-5 -6 -10 -11.5 t-10 -10.5l-119 -118q-11 -11 -24.5 -17t-25.5 -6h-140zM307 656q0 -84 39.5 -129.5t113.5 -45.5q50 0 88.5 22.5t64.5 59.5t40 83.5t15 93.5q0 83 -41 126t-115 43q-50 0 -88 -21t-64 -56t-39.5 -80.5t-13.5 -95.5z" />
<glyph unicode="&#x11e;" horiz-adv-x="1390" d="M91 635q0 188 60 345.5t165 271t249.5 176.5t313.5 63q88 0 159.5 -15.5t129.5 -42t104 -62.5t84 -77l-74 -96q-18 -27 -44 -32.5t-52 12.5q-27 16 -55 36t-65.5 37.5t-86.5 28.5t-117 11q-119 0 -217 -46t-168.5 -131t-109.5 -204.5t-39 -266.5q0 -111 28 -198.5 t80 -148t125.5 -93.5t163.5 -33q95 0 166 19.5t136 53.5l37 304h-183q-22 0 -33.5 12t-9.5 31l15 132h441l-71 -580q-56 -40 -115.5 -69.5t-125.5 -49.5t-139 -29.5t-157 -9.5q-134 0 -244 48.5t-188 135t-120.5 206.5t-42.5 261zM605 1858h155q-8 -68 19 -105t107 -37 q40 0 68.5 10t46.5 28t28.5 44t14.5 60h155q-7 -65 -33.5 -116t-69 -86.5t-99.5 -54.5t-126 -19t-122 16.5t-87.5 50.5t-49.5 86t-7 123z" />
<glyph unicode="&#x11f;" horiz-adv-x="1010" d="M-61 -106q0 69 29 120.5t78 87.5t113.5 58.5t136 33t144 9t138.5 -12.5q-6 17 -10.5 36t-4.5 39q0 31 9 64t28 72q-39 -27 -87.5 -41t-114.5 -14q-59 0 -112.5 19.5t-93 58.5t-63 97.5t-23.5 136.5q0 75 28 148t82.5 129t135 91t185.5 35q57 0 107.5 -13.5t92.5 -39.5 h289l-9 -73q-6 -45 -46 -58l-116 -26q6 -24 9.5 -49t3.5 -53q0 -49 -11 -88t-27.5 -72.5t-35.5 -63t-35 -59.5t-26.5 -62t-10.5 -70q0 -42 19 -77.5t42 -73t42 -80.5t19 -99q-1 -76 -35.5 -143.5t-98.5 -118.5t-155.5 -81.5t-207.5 -30.5q-93 0 -169 19.5t-129 54.5 t-81.5 83t-28.5 107zM147 -80q0 -67 55.5 -101.5t163.5 -34.5q62 0 113 16t87.5 43.5t56.5 64.5t20 79q0 38 -9 70q-129 22 -220.5 18.5t-151 -25t-87.5 -56t-28 -74.5zM307 656q0 -84 39.5 -129.5t113.5 -45.5q50 0 88.5 22.5t64.5 59.5t40 83.5t15 93.5q0 83 -41 126 t-115 43q-50 0 -88 -21t-64 -56t-39.5 -80.5t-13.5 -95.5zM340 1475h143q-4 -33 -1 -59t15.5 -44.5t36 -29t62.5 -10.5q38 0 64 10.5t43 29t26 44.5t13 59h142q-6 -58 -26 -109.5t-56 -90.5t-90.5 -61.5t-131.5 -22.5t-126 22.5t-76.5 61.5t-35.5 90t-2 110z" />
<glyph unicode="&#x120;" horiz-adv-x="1390" d="M91 635q0 188 60 345.5t165 271t249.5 176.5t313.5 63q88 0 159.5 -15.5t129.5 -42t104 -62.5t84 -77l-74 -96q-18 -27 -44 -32.5t-52 12.5q-27 16 -55 36t-65.5 37.5t-86.5 28.5t-117 11q-119 0 -217 -46t-168.5 -131t-109.5 -204.5t-39 -266.5q0 -111 28 -198.5 t80 -148t125.5 -93.5t163.5 -33q95 0 166 19.5t136 53.5l37 304h-183q-22 0 -33.5 12t-9.5 31l15 132h441l-71 -580q-56 -40 -115.5 -69.5t-125.5 -49.5t-139 -29.5t-157 -9.5q-134 0 -244 48.5t-188 135t-120.5 206.5t-42.5 261zM762 1732q0 30 12 57t31.5 47t44.5 31.5 t52 11.5q28 0 54 -11.5t46 -31.5t32 -46.5t12 -57.5q0 -30 -12.5 -56.5t-33 -46.5t-46 -32t-53.5 -12t-52.5 12t-43.5 32t-31 46.5t-12 56.5z" />
<glyph unicode="&#x121;" horiz-adv-x="1010" d="M-61 -106q0 69 29 120.5t78 87.5t113.5 58.5t136 33t144 9t138.5 -12.5q-6 17 -10.5 36t-4.5 39q0 31 9 64t28 72q-39 -27 -87.5 -41t-114.5 -14q-59 0 -112.5 19.5t-93 58.5t-63 97.5t-23.5 136.5q0 75 28 148t82.5 129t135 91t185.5 35q57 0 107.5 -13.5t92.5 -39.5 h289l-9 -73q-6 -45 -46 -58l-116 -26q6 -24 9.5 -49t3.5 -53q0 -49 -11 -88t-27.5 -72.5t-35.5 -63t-35 -59.5t-26.5 -62t-10.5 -70q0 -42 19 -77.5t42 -73t42 -80.5t19 -99q-1 -76 -35.5 -143.5t-98.5 -118.5t-155.5 -81.5t-207.5 -30.5q-93 0 -169 19.5t-129 54.5 t-81.5 83t-28.5 107zM147 -80q0 -67 55.5 -101.5t163.5 -34.5q62 0 113 16t87.5 43.5t56.5 64.5t20 79q0 38 -9 70q-129 22 -220.5 18.5t-151 -25t-87.5 -56t-28 -74.5zM307 656q0 -84 39.5 -129.5t113.5 -45.5q50 0 88.5 22.5t64.5 59.5t40 83.5t15 93.5q0 83 -41 126 t-115 43q-50 0 -88 -21t-64 -56t-39.5 -80.5t-13.5 -95.5zM462 1360q0 30 12 57t31.5 47t45 31.5t51.5 11.5q28 0 54 -11.5t46 -31.5t32 -46.5t12 -57.5q0 -30 -12.5 -56.5t-33 -46.5t-46 -32t-53.5 -12t-52.5 12t-43.5 32t-31 46.5t-12 56.5z" />
<glyph unicode="&#x122;" horiz-adv-x="1390" d="M91 635q0 188 60 345.5t165 271t249.5 176.5t313.5 63q88 0 159.5 -15.5t129.5 -42t104 -62.5t84 -77l-74 -96q-18 -27 -44 -32.5t-52 12.5q-27 16 -55 36t-65.5 37.5t-86.5 28.5t-117 11q-119 0 -217 -46t-168.5 -131t-109.5 -204.5t-39 -266.5q0 -111 28 -198.5 t80 -148t125.5 -93.5t163.5 -33q95 0 166 19.5t136 53.5l37 304h-183q-22 0 -33.5 12t-9.5 31l15 132h441l-71 -580q-56 -40 -115.5 -69.5t-125.5 -49.5t-139 -29.5t-157 -9.5q-134 0 -244 48.5t-188 135t-120.5 206.5t-42.5 261zM539 -398l84 303h134q20 0 27 -9.5t7 -19.5 q0 -11 -4 -28.5t-14.5 -44.5t-29 -66t-45.5 -93q-14 -26 -33 -34t-48 -8h-78z" />
<glyph unicode="&#x123;" horiz-adv-x="1010" d="M-61 -106q0 69 29 120.5t78 87.5t113.5 58.5t136 33t144 9t138.5 -12.5q-6 17 -10.5 36t-4.5 39q0 31 9 64t28 72q-39 -27 -87.5 -41t-114.5 -14q-59 0 -112.5 19.5t-93 58.5t-63 97.5t-23.5 136.5q0 75 28 148t82.5 129t135 91t185.5 35q57 0 107.5 -13.5t92.5 -39.5 h289l-9 -73q-6 -45 -46 -58l-116 -26q6 -24 9.5 -49t3.5 -53q0 -49 -11 -88t-27.5 -72.5t-35.5 -63t-35 -59.5t-26.5 -62t-10.5 -70q0 -42 19 -77.5t42 -73t42 -80.5t19 -99q-1 -76 -35.5 -143.5t-98.5 -118.5t-155.5 -81.5t-207.5 -30.5q-93 0 -169 19.5t-129 54.5 t-81.5 83t-28.5 107zM147 -80q0 -67 55.5 -101.5t163.5 -34.5q62 0 113 16t87.5 43.5t56.5 64.5t20 79q0 38 -9 70q-129 22 -220.5 18.5t-151 -25t-87.5 -56t-28 -74.5zM307 656q0 -84 39.5 -129.5t113.5 -45.5q50 0 88.5 22.5t64.5 59.5t40 83.5t15 93.5q0 83 -41 126 t-115 43q-50 0 -88 -21t-64 -56t-39.5 -80.5t-13.5 -95.5zM484 1191l129 289h127l-80 -289h-176z" />
<glyph unicode="&#x124;" horiz-adv-x="1462" d="M89 0l181 1475h233l-80 -650h667l79 650h233l-182 -1475h-232l81 659h-667l-81 -659h-232zM541 1584l258 281h182l195 -281h-147q-13 0 -30.5 5t-33.5 31l-79 124q-3 5 -5.5 9.5t-4.5 9.5q-3 -5 -7 -9.5t-8 -9.5l-107 -124q-22 -26 -41 -31t-31 -5h-141z" />
<glyph unicode="&#x125;" d="M19 1584l253 219h211l200 -219h-161q-12 0 -27 5t-25 10l-93 84q-3 2 -6 5.5t-6 5.5q-3 -2 -7 -5l-8 -6l-114 -84q-11 -7 -26.5 -11t-30.5 -4h-160zM50 0l183 1516h220l-81 -673q79 109 172 163.5t191 54.5q67 0 118.5 -26t84.5 -77t45 -124.5t0 -168.5l-78 -665h-219 l78 665q14 112 -12.5 163.5t-98.5 51.5q-43 0 -88.5 -24.5t-87.5 -68t-79.5 -105t-62.5 -137.5l-66 -545h-219z" />
<glyph unicode="&#x126;" horiz-adv-x="1482" d="M90 1062l16 137h144l34 276h232l-34 -276h667l34 276h232l-34 -276h148l-16 -137h-149l-131 -1062h-232l81 659h-666l-82 -659h-232l130 1062h-142zM436 825h667l29 237h-667z" />
<glyph unicode="&#x127;" d="M39 1163l18 140h151l25 213h220l-26 -213h255l-12 -80q-5 -28 -23 -44t-49 -16h-188l-42 -348q80 109 173.5 163.5t191.5 54.5q67 0 118 -26t84 -76.5t45 -124.5t1 -168l-76 -638h-219l76 638q14 112 -13 163t-99 51q-43 0 -88.5 -24t-88 -67.5t-79.5 -105.5t-62 -139 l-63 -516h-219l140 1163h-151z" />
<glyph unicode="&#x128;" horiz-adv-x="562" d="M89 0l180 1475h232l-180 -1475h-232zM89 1583q5 47 22.5 91.5t44.5 79t64 55t81 20.5q46 0 78.5 -16.5t59 -36.5t49 -36.5t48.5 -16.5q22 0 38.5 9.5t28.5 23.5t19 31.5t9 35.5h124q-5 -48 -22 -92t-44 -78t-64 -54.5t-82 -20.5t-77.5 16.5t-58.5 36.5t-49.5 36t-48.5 16 q-22 0 -38.5 -9t-28.5 -23.5t-19 -32t-9 -35.5h-125z" />
<glyph unicode="&#x129;" horiz-adv-x="487" d="M30 1226q6 53 24.5 97t46.5 75.5t63 48.5t75 17q34 0 61.5 -13.5t51 -30t44.5 -30.5t40 -14q31 0 50 19t25 63h124q-6 -53 -24.5 -96.5t-46 -75t-62.5 -48t-75 -16.5q-34 0 -61 13.5t-51.5 30t-45.5 30.5t-40 14q-31 0 -50 -20t-24 -64h-125zM60 0l125 1044h217 l-126 -1044h-216z" />
<glyph unicode="&#x12a;" horiz-adv-x="562" d="M89 0l180 1475h232l-180 -1475h-232zM129 1616l14 129h546l-13 -129h-547z" />
<glyph unicode="&#x12b;" horiz-adv-x="487" d="M49 1251l15 143h554l-17 -143h-552zM60 0l125 1044h217l-126 -1044h-216z" />
<glyph unicode="&#x12c;" horiz-adv-x="562" d="M89 0l180 1475h232l-180 -1475h-232zM143 1858h155q-8 -68 19 -105t107 -37q40 0 68.5 10t46.5 28t28.5 44t14.5 60h155q-7 -65 -33.5 -116t-69 -86.5t-99.5 -54.5t-126 -19t-122 16.5t-87.5 50.5t-49.5 86t-7 123z" />
<glyph unicode="&#x12d;" horiz-adv-x="487" d="M60 0l125 1044h217l-126 -1044h-216zM86 1475h143q-4 -33 -1 -59t15.5 -44.5t36 -29t62.5 -10.5q38 0 64 10.5t43 29t26 44.5t13 59h142q-6 -58 -26 -109.5t-56 -90.5t-90.5 -61.5t-131.5 -22.5t-126 22.5t-76.5 61.5t-35.5 90t-2 110z" />
<glyph unicode="&#x12e;" horiz-adv-x="563" d="M-8 -219q0 62 42 118t116 101h-61l180 1475h232l-180 -1475h-37q-22 -12 -43 -28.5t-38.5 -36.5t-28 -43.5t-10.5 -50.5q0 -29 16.5 -45.5t45.5 -16.5q18 0 30.5 3t21 6t13.5 6t10 3q15 0 20 -14l23 -82q-33 -24 -80.5 -38t-98.5 -14q-84 0 -128.5 36t-44.5 96z" />
<glyph unicode="&#x12f;" horiz-adv-x="487" d="M-48 -219q0 62 42 118t116 101h-50l125 1044h217l-126 -1044h-32q-22 -12 -43 -28.5t-38.5 -36.5t-28 -43.5t-10.5 -50.5q0 -29 16.5 -45.5t45.5 -16.5q18 0 30.5 3t21 6t13.5 6t10 3q15 0 20 -14l23 -82q-33 -24 -80.5 -38t-98.5 -14q-84 0 -128.5 36t-44.5 96z M184 1360q0 30 12 57t31.5 47t45 31.5t52.5 11.5q28 0 53.5 -11.5t45.5 -31.5t32 -46.5t12 -57.5q0 -30 -12.5 -56.5t-33 -46.5t-46 -32t-52.5 -12q-28 0 -53 12t-44 32t-31 46.5t-12 56.5z" />
<glyph unicode="&#x130;" horiz-adv-x="562" d="M89 0l180 1475h232l-180 -1475h-232zM275 1732q0 30 12 57t31.5 47t44.5 31.5t52 11.5q28 0 54 -11.5t46 -31.5t32 -46.5t12 -57.5q0 -30 -12.5 -56.5t-33 -46.5t-46 -32t-53.5 -12t-52.5 12t-43.5 32t-31 46.5t-12 56.5z" />
<glyph unicode="&#x131;" horiz-adv-x="487" d="M60 0l125 1044h217l-126 -1044h-216z" />
<glyph unicode="&#x132;" horiz-adv-x="1406" d="M89 0l180 1475h232l-180 -1475h-232zM541 11l18 137q2 18 13 31.5t35 13.5q23 0 54.5 -8t83.5 -8q50 0 93.5 17t78 55t58 99t34.5 148l119 979h231l-119 -973q-15 -123 -55 -219.5t-102.5 -163t-147.5 -101t-191 -34.5q-55 0 -104 6.5t-99 20.5z" />
<glyph unicode="&#x133;" horiz-adv-x="975" d="M59 0l125 1044h217l-126 -1044h-216zM183 1360q0 30 12 57t31.5 47t45 31.5t52.5 11.5q28 0 53.5 -11.5t45.5 -31.5t32 -46.5t12 -57.5q0 -30 -12.5 -56.5t-33 -46.5t-46 -32t-52.5 -12q-28 0 -53 12t-44 32t-31 46.5t-12 56.5zM306 -351l21 120q6 20 20 23t49 3t60 8.5 t42.5 26t28 46.5t15.5 70l134 1098h215l-134 -1098q-8 -66 -32.5 -124t-66 -101t-100 -67.5t-133.5 -24.5q-39 0 -66 5.5t-53 14.5zM667 1360q0 30 12 57t32 47t45 31.5t52 11.5q28 0 53.5 -11.5t45.5 -31.5t32.5 -46.5t12.5 -57.5q0 -30 -12.5 -56.5t-33 -46.5t-46.5 -32 t-54 -12q-27 0 -51.5 12t-44 32t-31.5 46.5t-12 56.5z" />
<glyph unicode="&#x134;" horiz-adv-x="829" d="M-37 11l18 137q2 18 13 31.5t35 13.5q23 0 54.5 -8t83.5 -8q50 0 93.5 17t78 55t58 99t34.5 148l119 979h231l-119 -973q-15 -123 -55 -219.5t-102.5 -163t-147.5 -101t-191 -34.5q-55 0 -104 6.5t-99 20.5zM378 1584l258 281h182l195 -281h-147q-13 0 -30.5 5t-33.5 31 l-79 124q-3 5 -5.5 9.5t-4.5 9.5q-3 -5 -7 -9.5t-8 -9.5l-107 -124q-22 -26 -41 -31t-31 -5h-141z" />
<glyph unicode="&#x135;" horiz-adv-x="485" d="M-184 -351l21 120q6 20 20 23t49 3t60 8.5t42.5 26t28 46.5t15.5 70l134 1098h215l-134 -1098q-8 -66 -32.5 -124t-66 -101t-100 -67.5t-133.5 -24.5q-39 0 -66 5.5t-53 14.5zM14 1197l245 278h188l183 -278h-135q-11 0 -23 4t-23 19l-91 118q-9 10 -14 22 q-5 -6 -10 -11.5t-10 -10.5l-119 -118q-11 -11 -24.5 -17t-25.5 -6h-141z" />
<glyph unicode="&#x136;" horiz-adv-x="1291" d="M89 0l180 1476h231l-79 -636h62q36 0 60 10.5t45 34.5l466 537q24 31 51 42t62 11h197l-553 -627q-42 -51 -85 -72q28 -11 48.5 -30t36.5 -52l408 -694h-202q-43 0 -61 12.5t-30 34.5l-343 567q-14 27 -36 38.5t-66 11.5h-82l-81 -664h-229zM406 -398l84 303h134 q20 0 27 -9.5t7 -19.5q0 -11 -4 -28.5t-14.5 -44.5t-29 -66t-45.5 -93q-14 -26 -33 -34t-48 -8h-78z" />
<glyph unicode="&#x137;" horiz-adv-x="999" d="M48 0l186 1516h217l-108 -879h29q23 0 36.5 6.5t29.5 25.5l310 335q16 20 34 30t44 10h196l-373 -397q-32 -39 -70 -62q17 -14 30 -32.5t24 -41.5l283 -511h-189q-26 0 -42 8.5t-27 32.5l-232 410q-11 24 -24.5 30t-42.5 6h-34l-60 -487h-217zM268 -398l84 303h134 q20 0 27 -9.5t7 -19.5q0 -11 -4 -28.5t-14.5 -44.5t-29 -66t-45.5 -93q-14 -26 -33 -34t-48 -8h-78z" />
<glyph unicode="&#x138;" horiz-adv-x="998" d="M49 0l129 1044h216l-50 -407h28q20 0 34.5 6t31.5 26l310 335q16 20 34.5 30t44.5 10h194l-369 -397q-33 -41 -70 -63q17 -14 28.5 -32t22.5 -41l283 -511h-187q-26 0 -42.5 8.5t-27.5 32.5l-233 410q-11 24 -24.5 30t-42.5 6h-33l-61 -487h-216z" />
<glyph unicode="&#x139;" horiz-adv-x="982" d="M89 0l181 1475h231l-158 -1281h558l-23 -194h-789zM288 1584l239 280q10 13 19 20t19.5 11.5t23 5.5t30.5 1h225l-338 -293q-19 -16 -34.5 -20.5t-39.5 -4.5h-144z" />
<glyph unicode="&#x13a;" horiz-adv-x="476" d="M54 0l184 1516h217l-185 -1516h-216zM230 1584l239 280q10 13 19 20t19.5 11.5t23 5.5t30.5 1h225l-338 -293q-19 -16 -34.5 -20.5t-39.5 -4.5h-144z" />
<glyph unicode="&#x13b;" horiz-adv-x="982" d="M89 0l181 1475h231l-158 -1281h558l-23 -194h-789zM326 -398l84 303h134q20 0 27 -9.5t7 -19.5q0 -11 -4 -28.5t-14.5 -44.5t-29 -66t-45.5 -93q-14 -26 -33 -34t-48 -8h-78z" />
<glyph unicode="&#x13c;" horiz-adv-x="476" d="M-16 -398l84 303h134q20 0 27 -9.5t7 -19.5q0 -11 -4 -28.5t-14.5 -44.5t-29 -66t-45.5 -93q-14 -26 -33 -34t-48 -8h-78zM54 0l184 1516h217l-185 -1516h-216z" />
<glyph unicode="&#x13d;" horiz-adv-x="982" d="M89 0l181 1475h231l-158 -1281h558l-23 -194h-789zM659 1174l100 343h141q20 0 26.5 -9.5t6.5 -19.5t-3.5 -24.5t-16.5 -43.5t-36.5 -78.5t-63.5 -128.5q-14 -26 -32.5 -32.5t-46.5 -6.5h-75z" />
<glyph unicode="&#x13e;" horiz-adv-x="476" d="M54 0l184 1516h217l-185 -1516h-216zM490 1174l100 343h121q20 0 26 -9.5t6 -19.5t-3.5 -24.5t-16 -43.5t-36 -78.5t-63.5 -128.5q-14 -26 -33 -32.5t-46 -6.5h-55z" />
<glyph unicode="&#x13f;" horiz-adv-x="1004" d="M89 0l181 1475h231l-158 -1281h558l-23 -194h-789zM577 801q0 30 10.5 56t30 45.5t45.5 30.5t56 11t56 -11t45 -30.5t30.5 -45.5t11.5 -56q0 -31 -11.5 -56.5t-30.5 -45t-45 -30t-56 -10.5q-31 0 -56.5 10.5t-45 30t-30 45t-10.5 56.5z" />
<glyph unicode="&#x140;" horiz-adv-x="771" d="M54 0l184 1516h217l-185 -1516h-216zM500 776q0 30 10.5 56t30 45.5t45.5 30.5t56 11t56 -11t45 -30.5t30.5 -45.5t11.5 -56q0 -31 -11.5 -56.5t-30.5 -45t-45 -30t-56 -10.5q-31 0 -56.5 10.5t-45 30t-30 45t-10.5 56.5z" />
<glyph unicode="&#x141;" horiz-adv-x="1017" d="M0 461l19 159q3 33 33 45l164 85l89 725h231l-76 -614l359 187l-19 -156q-5 -37 -35 -50l-329 -174l-58 -474h558l-24 -194h-788l69 556z" />
<glyph unicode="&#x142;" horiz-adv-x="608" d="M48 618v132q0 34 29 45l155 67l79 654h217l-69 -572l156 66v-127q0 -37 -30 -50l-148 -65l-93 -768h-216l83 687z" />
<glyph unicode="&#x143;" horiz-adv-x="1462" d="M89 0l181 1475h120q31 0 45 -6.5t28 -31.5l603 -1061q3 56 9 100l123 999h204l-182 -1475h-117q-28 0 -45.5 9.5t-32.5 32.5l-601 1061q-2 -24 -3.5 -45t-3.5 -39l-125 -1019h-203zM708 1583l239 280q10 13 19 20t19.5 11.5t23 5.5t30.5 1h225l-338 -293 q-19 -16 -34.5 -20.5t-39.5 -4.5h-144z" />
<glyph unicode="&#x144;" horiz-adv-x="1097" d="M51 0l125 1047h111q36 0 54.5 -18t18.5 -56l-10 -165q81 127 181.5 190t206.5 63q66 0 117 -26t84 -77t45 -124.5t1 -168.5l-79 -665h-219l79 665q14 112 -13 162.5t-98 50.5q-45 0 -92.5 -26t-91 -72.5t-81.5 -112.5t-62 -147l-58 -520h-219zM488 1193l164 248 q16 26 35 38t54 12h197l-258 -265q-17 -18 -32 -25.5t-39 -7.5h-121z" />
<glyph unicode="&#x145;" horiz-adv-x="1462" d="M89 0l181 1475h120q31 0 45 -6.5t28 -31.5l603 -1061q3 56 9 100l123 999h204l-182 -1475h-117q-28 0 -45.5 9.5t-32.5 32.5l-601 1061q-2 -24 -3.5 -45t-3.5 -39l-125 -1019h-203zM496 -398l84 303h134q20 0 27 -9.5t7 -19.5q0 -11 -4 -28.5t-14.5 -44.5t-29 -66 t-45.5 -93q-14 -26 -33 -34t-48 -8h-78z" />
<glyph unicode="&#x146;" horiz-adv-x="1097" d="M51 0l125 1047h111q36 0 54.5 -18t18.5 -56l-10 -165q81 127 181.5 190t206.5 63q66 0 117 -26t84 -77t45 -124.5t1 -168.5l-79 -665h-219l79 665q14 112 -13 162.5t-98 50.5q-45 0 -92.5 -26t-91 -72.5t-81.5 -112.5t-62 -147l-58 -520h-219zM302 -398l84 303h134 q20 0 27 -9.5t7 -19.5q0 -11 -4 -28.5t-14.5 -44.5t-29 -66t-45.5 -93q-14 -26 -33 -34t-48 -8h-78z" />
<glyph unicode="&#x147;" horiz-adv-x="1462" d="M89 0l181 1475h120q31 0 45 -6.5t28 -31.5l603 -1061q3 56 9 100l123 999h204l-182 -1475h-117q-28 0 -45.5 9.5t-32.5 32.5l-601 1061q-2 -24 -3.5 -45t-3.5 -39l-125 -1019h-203zM567 1864h148q12 0 30 -4.5t29 -23.5l83 -135q3 -5 5.5 -10t4.5 -11q4 5 8 10.5t8 10.5 l112 134q16 20 35 24.5t32 4.5h146l-258 -281h-188z" />
<glyph unicode="&#x148;" horiz-adv-x="1097" d="M51 0l125 1047h111q36 0 54.5 -18t18.5 -56l-10 -165q81 127 181.5 190t206.5 63q66 0 117 -26t84 -77t45 -124.5t1 -168.5l-79 -665h-219l79 665q14 112 -13 162.5t-98 50.5q-45 0 -92.5 -26t-91 -72.5t-81.5 -112.5t-62 -147l-58 -520h-219zM327 1475h139 q13 0 24.5 -5.5t16.5 -11.5l95 -125q4 -5 7.5 -10.5t8.5 -12.5q9 12 21 23l123 125q8 5 20 11t25 6h135l-245 -278h-189z" />
<glyph unicode="&#x149;" horiz-adv-x="1205" d="M47 1058q0 9 5 17t18 23q19 23 41.5 58t36.5 79.5t13.5 96t-26.5 109.5q-8 18 1.5 34.5t32.5 24.5l135 51q34 -75 36.5 -150t-22.5 -146.5t-75.5 -138t-122.5 -124.5l-60 39q-13 10 -13 27zM159 0l125 1047h111q36 0 54.5 -18t18.5 -56l-10 -165q81 127 181.5 190 t206.5 63q66 0 117 -26t84 -77t45 -124.5t1 -168.5l-79 -665h-219l79 665q14 112 -13 162.5t-98 50.5q-45 0 -92.5 -26t-91 -72.5t-81.5 -112.5t-62 -147l-58 -520h-219z" />
<glyph unicode="&#x14a;" horiz-adv-x="1462" d="M89 0l180 1475h120q30 0 44 -7.5t30 -32.5l607 -1051q1 30 2.5 58.5t4.5 53.5l121 979h203l-150 -1220l-9 -69l-15 -129h-1l-4 -35q-10 -86 -37.5 -157.5t-73.5 -122.5t-112.5 -79.5t-155.5 -28.5q-49 0 -86 9t-80 29l35 94q10 26 23.5 33.5t27.5 7.5t30.5 -7t49.5 -7 q147 0 173 205l6 49l-601 1045q-1 -28 -3 -55t-5 -51l-121 -986h-203z" />
<glyph unicode="&#x14b;" horiz-adv-x="1097" d="M51 0l125 1047h111q36 0 54.5 -18t18.5 -56l-10 -165q81 127 181.5 190t206.5 63q66 0 117 -26t84 -77t45 -124.5t1 -168.5l-66 -571l-10 -78q-11 -87 -38.5 -158.5t-74.5 -122t-115 -79t-158 -28.5q-24 0 -42.5 1t-36 3.5t-35 7t-37.5 10.5l18 104q5 27 15 37.5t37 10.5 q13 0 29.5 -4.5t49.5 -4.5q72 0 113 47t52 152l10 81l70 592q14 112 -13 162.5t-98 50.5q-45 0 -92.5 -26t-91 -72.5t-81.5 -112.5t-62 -147l-58 -520h-219z" />
<glyph unicode="&#x14c;" horiz-adv-x="1534" d="M91 634q0 124 27 235.5t76.5 206.5t120 172t157.5 131t188.5 83t213.5 29q138 0 249 -49t189 -136.5t119.5 -207t41.5 -259.5q0 -123 -27 -234.5t-76.5 -206.5t-120 -171t-157.5 -130t-188.5 -83t-214.5 -29q-138 0 -249 49t-188.5 135.5t-119 205.5t-41.5 259zM328 641 q0 -105 26.5 -190.5t76 -146.5t121.5 -94t163 -33q117 0 212.5 46.5t164 132t106 207t37.5 271.5q0 105 -26.5 190.5t-77 146.5t-122.5 93.5t-162 32.5q-116 0 -211.5 -46.5t-164 -132.5t-106 -207t-37.5 -270zM626 1616l14 129h546l-13 -129h-547z" />
<glyph unicode="&#x14d;" horiz-adv-x="1067" d="M52 421q0 134 42.5 250.5t116.5 203.5t172.5 136.5t211.5 49.5q86 0 158.5 -29.5t125 -85t82 -137t29.5 -184.5q0 -88 -19.5 -170t-54 -153.5t-84.5 -129.5t-109.5 -99.5t-129 -64.5t-144.5 -23q-86 0 -159 29t-125.5 85t-82.5 137t-30 185zM272 423q0 -266 196 -266 q69 0 125 38t95.5 102.5t61 149t21.5 177.5q0 135 -49.5 200t-147.5 65q-70 0 -125.5 -38t-94.5 -101.5t-60.5 -148.5t-21.5 -178zM358 1251l15 143h554l-17 -143h-552z" />
<glyph unicode="&#x14e;" horiz-adv-x="1534" d="M91 634q0 124 27 235.5t76.5 206.5t120 172t157.5 131t188.5 83t213.5 29q138 0 249 -49t189 -136.5t119.5 -207t41.5 -259.5q0 -123 -27 -234.5t-76.5 -206.5t-120 -171t-157.5 -130t-188.5 -83t-214.5 -29q-138 0 -249 49t-188.5 135.5t-119 205.5t-41.5 259zM328 641 q0 -105 26.5 -190.5t76 -146.5t121.5 -94t163 -33q117 0 212.5 46.5t164 132t106 207t37.5 271.5q0 105 -26.5 190.5t-77 146.5t-122.5 93.5t-162 32.5q-116 0 -211.5 -46.5t-164 -132.5t-106 -207t-37.5 -270zM632 1858h155q-8 -68 19 -105t107 -37q40 0 68.5 10t46.5 28 t28.5 44t14.5 60h155q-7 -65 -33.5 -116t-69 -86.5t-99.5 -54.5t-126 -19t-122 16.5t-87.5 50.5t-49.5 86t-7 123z" />
<glyph unicode="&#x14f;" horiz-adv-x="1067" d="M52 421q0 134 42.5 250.5t116.5 203.5t172.5 136.5t211.5 49.5q86 0 158.5 -29.5t125 -85t82 -137t29.5 -184.5q0 -88 -19.5 -170t-54 -153.5t-84.5 -129.5t-109.5 -99.5t-129 -64.5t-144.5 -23q-86 0 -159 29t-125.5 85t-82.5 137t-30 185zM272 423q0 -266 196 -266 q69 0 125 38t95.5 102.5t61 149t21.5 177.5q0 135 -49.5 200t-147.5 65q-70 0 -125.5 -38t-94.5 -101.5t-60.5 -148.5t-21.5 -178zM387 1475h143q-4 -33 -1 -59t15.5 -44.5t36 -29t62.5 -10.5q38 0 64 10.5t43 29t26 44.5t13 59h142q-6 -58 -26 -109.5t-56 -90.5 t-90.5 -61.5t-131.5 -22.5t-126 22.5t-76.5 61.5t-35.5 90t-2 110z" />
<glyph unicode="&#x150;" horiz-adv-x="1534" d="M91 634q0 124 27 235.5t76.5 206.5t120 172t157.5 131t188.5 83t213.5 29q138 0 249 -49t189 -136.5t119.5 -207t41.5 -259.5q0 -123 -27 -234.5t-76.5 -206.5t-120 -171t-157.5 -130t-188.5 -83t-214.5 -29q-138 0 -249 49t-188.5 135.5t-119 205.5t-41.5 259zM328 641 q0 -105 26.5 -190.5t76 -146.5t121.5 -94t163 -33q117 0 212.5 46.5t164 132t106 207t37.5 271.5q0 105 -26.5 190.5t-77 146.5t-122.5 93.5t-162 32.5q-116 0 -211.5 -46.5t-164 -132.5t-106 -207t-37.5 -270zM623 1584l161 231q16 24 39.5 37t56.5 13h133l-223 -248 q-17 -15 -32 -24t-38 -9h-97zM922 1584l200 231q20 24 44 37t58 13h152l-268 -248q-18 -16 -35.5 -24.5t-41.5 -8.5h-109z" />
<glyph unicode="&#x151;" horiz-adv-x="1067" d="M52 421q0 134 42.5 250.5t116.5 203.5t172.5 136.5t211.5 49.5q86 0 158.5 -29.5t125 -85t82 -137t29.5 -184.5q0 -88 -19.5 -170t-54 -153.5t-84.5 -129.5t-109.5 -99.5t-129 -64.5t-144.5 -23q-86 0 -159 29t-125.5 85t-82.5 137t-30 185zM272 423q0 -266 196 -266 q69 0 125 38t95.5 102.5t61 149t21.5 177.5q0 135 -49.5 200t-147.5 65q-70 0 -125.5 -38t-94.5 -101.5t-60.5 -148.5t-21.5 -178zM376 1193l152 248q15 26 34.5 38t53.5 12h133l-218 -265q-16 -19 -32 -26t-39 -7h-84zM631 1193l196 248q18 25 36 37.5t52 12.5h147 l-263 -265q-17 -18 -32.5 -25.5t-39.5 -7.5h-96z" />
<glyph unicode="&#x152;" horiz-adv-x="2059" d="M93 624q0 125 24.5 237.5t70 209t109.5 174t143.5 132.5t172 84.5t194.5 29.5q145 0 252 -66.5t171 -180.5l28 231h822l-23 -188h-616l-57 -454h490l-21 -181h-490l-57 -465h615l-23 -187h-821l25 202q-91 -103 -212 -160t-266 -57q-123 0 -221.5 48t-167 133t-105.5 202 t-37 256zM330 631q0 -103 22.5 -188t66 -145t106.5 -93.5t145 -33.5q106 0 194 48.5t151 136.5t97.5 212.5t34.5 275.5q0 102 -22.5 187t-65.5 146t-106 94.5t-144 33.5q-106 0 -195 -49t-152 -138t-97.5 -213t-34.5 -274z" />
<glyph unicode="&#x153;" horiz-adv-x="1644" d="M50 364q0 170 45.5 300t122 218t177 133.5t209.5 45.5q105 0 178.5 -47t112.5 -131q65 83 158 130.5t212 47.5q69 0 124 -19t94 -53t60 -81t21 -103q0 -66 -28.5 -122t-99.5 -101.5t-194 -79t-312 -52.5q1 -148 60 -220t162 -72q71 0 118 19.5t80 42.5t58.5 42.5 t52.5 19.5q22 0 40 -21l55 -67q-53 -54 -103.5 -94t-104.5 -65.5t-112 -37.5t-127 -12q-102 0 -183.5 53t-125.5 162q-73 -102 -177 -158.5t-232 -56.5q-84 0 -148 30.5t-107 83t-64.5 121t-21.5 144.5zM264 376q0 -44 9.5 -85t31 -72.5t55.5 -49.5t84 -18q74 0 130 33.5 t95 95t61 147t29 188.5q4 65 -4.5 116.5t-30 88t-56.5 56t-84 19.5q-74 0 -133.5 -37.5t-101 -105.5t-63.5 -163.5t-22 -212.5zM940 586q135 17 220.5 40.5t135 51.5t67 58t17.5 61q0 22 -8.5 41.5t-27 35t-46.5 24t-67 8.5q-55 0 -103 -21.5t-85 -62.5t-64 -100t-39 -136z " />
<glyph unicode="&#x154;" horiz-adv-x="1212" d="M89 0l180 1475h404q123 0 211.5 -26.5t145.5 -73.5t84.5 -113t27.5 -147q0 -87 -25 -163t-72.5 -137.5t-115.5 -106t-153 -68.5q40 -26 65 -73l288 -567h-205q-61 0 -82 48l-245 502q-13 26 -31 37t-55 11h-119l-74 -598h-229zM413 765h169q83 0 145.5 24t103 66t61 99.5 t20.5 123.5q0 103 -64.5 159t-195.5 56h-175zM561 1584l239 280q10 13 19 20t19.5 11.5t23 5.5t30.5 1h225l-338 -293q-19 -16 -34.5 -20.5t-39.5 -4.5h-144z" />
<glyph unicode="&#x155;" horiz-adv-x="712" d="M50 0l126 1047h111q36 0 54.5 -18t18.5 -56l-11 -198q40 83 86.5 142.5t97.5 93t104.5 40t107.5 -17.5l-39 -211q-130 52 -228 -33.5t-157 -322.5l-56 -466h-215zM361 1193l164 248q16 26 35 38t54 12h197l-258 -265q-17 -18 -32 -25.5t-39 -7.5h-121z" />
<glyph unicode="&#x156;" horiz-adv-x="1212" d="M89 0l180 1475h404q123 0 211.5 -26.5t145.5 -73.5t84.5 -113t27.5 -147q0 -87 -25 -163t-72.5 -137.5t-115.5 -106t-153 -68.5q40 -26 65 -73l288 -567h-205q-61 0 -82 48l-245 502q-13 26 -31 37t-55 11h-119l-74 -598h-229zM405 -398l84 303h134q20 0 27 -9.5t7 -19.5 q0 -11 -4 -28.5t-14.5 -44.5t-29 -66t-45.5 -93q-14 -26 -33 -34t-48 -8h-78zM413 765h169q83 0 145.5 24t103 66t61 99.5t20.5 123.5q0 103 -64.5 159t-195.5 56h-175z" />
<glyph unicode="&#x157;" horiz-adv-x="712" d="M-23 -398l84 303h134q20 0 27 -9.5t7 -19.5q0 -11 -4 -28.5t-14.5 -44.5t-29 -66t-45.5 -93q-14 -26 -33 -34t-48 -8h-78zM50 0l126 1047h111q36 0 54.5 -18t18.5 -56l-11 -198q40 83 86.5 142.5t97.5 93t104.5 40t107.5 -17.5l-39 -211q-130 52 -228 -33.5t-157 -322.5 l-56 -466h-215z" />
<glyph unicode="&#x158;" horiz-adv-x="1212" d="M89 0l180 1475h404q123 0 211.5 -26.5t145.5 -73.5t84.5 -113t27.5 -147q0 -87 -25 -163t-72.5 -137.5t-115.5 -106t-153 -68.5q40 -26 65 -73l288 -567h-205q-61 0 -82 48l-245 502q-13 26 -31 37t-55 11h-119l-74 -598h-229zM413 765h169q83 0 145.5 24t103 66t61 99.5 t20.5 123.5q0 103 -64.5 159t-195.5 56h-175zM414 1865h147q12 0 30 -4t30 -24l82 -135l6 -10t5 -11q4 5 7.5 10.5t7.5 10.5l113 134q16 20 34.5 24.5t31.5 4.5h147l-258 -281h-189z" />
<glyph unicode="&#x159;" horiz-adv-x="712" d="M50 0l126 1047h111q36 0 54.5 -18t18.5 -56l-11 -198q40 83 86.5 142.5t97.5 93t104.5 40t107.5 -17.5l-39 -211q-130 52 -228 -33.5t-157 -322.5l-56 -466h-215zM189 1475h139q13 0 24.5 -5.5t16.5 -11.5l95 -125q4 -5 7.5 -10.5t8.5 -12.5q9 12 21 23l123 125 q8 5 20 11t25 6h135l-245 -278h-189z" />
<glyph unicode="&#x15a;" horiz-adv-x="1048" d="M5 177l81 111q10 12 25 20.5t31 8.5q23 0 46.5 -22t58 -49t83.5 -49t122 -22q63 0 114 19.5t86.5 55t54.5 86t19 111.5q0 53 -24 88t-63.5 60t-89.5 42t-102.5 36.5t-102.5 44.5t-89.5 63.5t-63.5 95.5t-24 139q0 93 33.5 178.5t97.5 151t155.5 105t205.5 39.5 q58 0 111.5 -12t101 -34t85.5 -52.5t68 -67.5l-68 -98q-13 -17 -25 -26t-30 -9t-39 17t-51 37.5t-72 37t-102 16.5t-107.5 -18t-79.5 -49.5t-48.5 -74t-16.5 -91.5q0 -50 24 -83.5t64 -58t90 -44t103.5 -40t103.5 -46.5t90 -64.5t64 -92.5t24 -131q0 -106 -36.5 -201.5 t-105 -166.5t-166 -112.5t-219.5 -41.5q-65 0 -125.5 13.5t-114 38.5t-98.5 61t-79 80zM529 1584l239 280q10 13 19 20t19.5 11.5t23 5.5t30.5 1h225l-338 -293q-19 -16 -34.5 -20.5t-39.5 -4.5h-144z" />
<glyph unicode="&#x15b;" horiz-adv-x="825" d="M-10 112l54 84q10 15 23.5 23.5t32.5 8.5q18 0 36 -13.5t42 -30.5t58.5 -31t90.5 -14q46 0 81.5 13t60.5 35.5t38 52t13 62.5q0 37 -18 61.5t-47.5 42.5t-67 31.5t-77 27.5t-76.5 32.5t-67 46t-48 67t-18 97.5q0 68 27 131.5t77 112.5t122.5 79t166.5 30q97 0 171 -33 t127 -87l-57 -80q-9 -14 -18.5 -20t-24.5 -6q-16 0 -33.5 10.5t-41.5 24t-57 24t-79 10.5q-43 0 -77 -11t-58.5 -30.5t-37.5 -46t-13 -56.5q0 -34 18 -57t47.5 -40.5t67.5 -32t77.5 -29.5t77.5 -35t67.5 -48.5t47.5 -68t18 -95.5q0 -74 -29.5 -141.5t-84 -118t-132 -80.5 t-172.5 -30q-99 0 -179.5 36t-128.5 92zM403 1193l164 248q16 26 35 38t54 12h197l-258 -265q-17 -18 -32 -25.5t-39 -7.5h-121z" />
<glyph unicode="&#x15c;" horiz-adv-x="1048" d="M5 177l81 111q10 12 25 20.5t31 8.5q23 0 46.5 -22t58 -49t83.5 -49t122 -22q63 0 114 19.5t86.5 55t54.5 86t19 111.5q0 53 -24 88t-63.5 60t-89.5 42t-102.5 36.5t-102.5 44.5t-89.5 63.5t-63.5 95.5t-24 139q0 93 33.5 178.5t97.5 151t155.5 105t205.5 39.5 q58 0 111.5 -12t101 -34t85.5 -52.5t68 -67.5l-68 -98q-13 -17 -25 -26t-30 -9t-39 17t-51 37.5t-72 37t-102 16.5t-107.5 -18t-79.5 -49.5t-48.5 -74t-16.5 -91.5q0 -50 24 -83.5t64 -58t90 -44t103.5 -40t103.5 -46.5t90 -64.5t64 -92.5t24 -131q0 -106 -36.5 -201.5 t-105 -166.5t-166 -112.5t-219.5 -41.5q-65 0 -125.5 13.5t-114 38.5t-98.5 61t-79 80zM368 1584l258 281h182l194 -281h-146q-13 0 -30.5 5t-33.5 31l-79 124q-3 5 -5.5 9.5t-5.5 9.5q-3 -5 -6.5 -9.5t-7.5 -9.5l-107 -124q-22 -26 -41 -31t-31 -5h-141z" />
<glyph unicode="&#x15d;" horiz-adv-x="825" d="M-10 112l54 84q10 15 23.5 23.5t32.5 8.5q18 0 36 -13.5t42 -30.5t58.5 -31t90.5 -14q46 0 81.5 13t60.5 35.5t38 52t13 62.5q0 37 -18 61.5t-47.5 42.5t-67 31.5t-77 27.5t-76.5 32.5t-67 46t-48 67t-18 97.5q0 68 27 131.5t77 112.5t122.5 79t166.5 30q97 0 171 -33 t127 -87l-57 -80q-9 -14 -18.5 -20t-24.5 -6q-16 0 -33.5 10.5t-41.5 24t-57 24t-79 10.5q-43 0 -77 -11t-58.5 -30.5t-37.5 -46t-13 -56.5q0 -34 18 -57t47.5 -40.5t67.5 -32t77.5 -29.5t77.5 -35t67.5 -48.5t47.5 -68t18 -95.5q0 -74 -29.5 -141.5t-84 -118t-132 -80.5 t-172.5 -30q-99 0 -179.5 36t-128.5 92zM217 1197l245 278h188l183 -278h-136q-11 0 -22.5 4t-23.5 19l-90 118q-9 10 -14 22q-5 -6 -10.5 -11.5l-10.5 -10.5l-118 -118q-11 -11 -24.5 -17t-26.5 -6h-140z" />
<glyph unicode="&#x15e;" horiz-adv-x="1048" d="M5 177l81 111q10 12 25 20.5t31 8.5q23 0 46.5 -22t58 -49t83.5 -49t122 -22q63 0 114 19.5t86.5 55t54.5 86t19 111.5q0 53 -24 88t-63.5 60t-89.5 42t-102.5 36.5t-102.5 44.5t-89.5 63.5t-63.5 95.5t-24 139q0 93 33.5 178.5t97.5 151t155.5 105t205.5 39.5 q58 0 111.5 -12t101 -34t85.5 -52.5t68 -67.5l-68 -98q-13 -17 -25 -26t-30 -9t-39 17t-51 37.5t-72 37t-102 16.5t-107.5 -18t-79.5 -49.5t-48.5 -74t-16.5 -91.5q0 -50 24 -83.5t64 -58t90 -44t103.5 -40t103.5 -46.5t90 -64.5t64 -92.5t24 -131q0 -100 -32 -190t-93 -160 t-147.5 -114.5t-195.5 -54.5l-21 -57q78 -19 111 -52.5t33 -79.5q0 -39 -18 -69t-50 -51t-76.5 -32.5t-98.5 -11.5q-39 0 -72 7.5t-63 20.5l29 69q8 22 29 21q6 0 12.5 -3t15.5 -6.5t20 -6.5t27 -3q36 0 54 17t18 40q0 31 -32.5 44t-99.5 24l57 130q-111 11 -202 61.5 t-149 127.5z" />
<glyph unicode="&#x15f;" horiz-adv-x="825" d="M-10 112l54 84q10 15 23.5 23.5t32.5 8.5q18 0 36 -13.5t42 -30.5t58.5 -31t90.5 -14q46 0 81.5 13t60.5 35.5t38 52t13 62.5q0 37 -18 61.5t-47.5 42.5t-67 31.5t-77 27.5t-76.5 32.5t-67 46t-48 67t-18 97.5q0 68 27 131.5t77 112.5t122.5 79t166.5 30q97 0 171 -33 t127 -87l-57 -80q-9 -14 -18.5 -20t-24.5 -6q-16 0 -33.5 10.5t-41.5 24t-57 24t-79 10.5q-43 0 -77 -11t-58.5 -30.5t-37.5 -46t-13 -56.5q0 -34 18 -57t47.5 -40.5t67.5 -32t77.5 -29.5t77.5 -35t67.5 -48.5t47.5 -68t18 -95.5q0 -68 -24.5 -129.5t-70.5 -110.5 t-111.5 -82.5t-147.5 -43.5l-21 -58q78 -19 111 -52.5t33 -79.5q0 -39 -17.5 -69t-50 -51t-77 -32.5t-97.5 -11.5q-39 0 -72.5 7.5t-62.5 20.5l28 69q8 22 29 21q6 0 12.5 -3t15.5 -6.5t20 -6.5t28 -3q36 0 53.5 17t17.5 40q0 31 -32.5 44t-99.5 24l58 130q-80 10 -144 43.5 t-104 80.5z" />
<glyph unicode="&#x160;" horiz-adv-x="1048" d="M5 177l81 111q10 12 25 20.5t31 8.5q23 0 46.5 -22t58 -49t83.5 -49t122 -22q63 0 114 19.5t86.5 55t54.5 86t19 111.5q0 53 -24 88t-63.5 60t-89.5 42t-102.5 36.5t-102.5 44.5t-89.5 63.5t-63.5 95.5t-24 139q0 93 33.5 178.5t97.5 151t155.5 105t205.5 39.5 q58 0 111.5 -12t101 -34t85.5 -52.5t68 -67.5l-68 -98q-13 -17 -25 -26t-30 -9t-39 17t-51 37.5t-72 37t-102 16.5t-107.5 -18t-79.5 -49.5t-48.5 -74t-16.5 -91.5q0 -50 24 -83.5t64 -58t90 -44t103.5 -40t103.5 -46.5t90 -64.5t64 -92.5t24 -131q0 -106 -36.5 -201.5 t-105 -166.5t-166 -112.5t-219.5 -41.5q-65 0 -125.5 13.5t-114 38.5t-98.5 61t-79 80zM383 1865h147q12 0 30.5 -4t29.5 -24l83 -135q3 -5 5.5 -10t4.5 -11q4 5 7.5 10.5t7.5 10.5l113 134q16 20 34.5 24.5t32.5 4.5h146l-258 -281h-188z" />
<glyph unicode="&#x161;" horiz-adv-x="825" d="M-10 112l54 84q10 15 23.5 23.5t32.5 8.5q18 0 36 -13.5t42 -30.5t58.5 -31t90.5 -14q46 0 81.5 13t60.5 35.5t38 52t13 62.5q0 37 -18 61.5t-47.5 42.5t-67 31.5t-77 27.5t-76.5 32.5t-67 46t-48 67t-18 97.5q0 68 27 131.5t77 112.5t122.5 79t166.5 30q97 0 171 -33 t127 -87l-57 -80q-9 -14 -18.5 -20t-24.5 -6q-16 0 -33.5 10.5t-41.5 24t-57 24t-79 10.5q-43 0 -77 -11t-58.5 -30.5t-37.5 -46t-13 -56.5q0 -34 18 -57t47.5 -40.5t67.5 -32t77.5 -29.5t77.5 -35t67.5 -48.5t47.5 -68t18 -95.5q0 -74 -29.5 -141.5t-84 -118t-132 -80.5 t-172.5 -30q-99 0 -179.5 36t-128.5 92zM239 1475h139q13 0 24.5 -5.5t16.5 -11.5l95 -125q4 -5 7.5 -10.5t8.5 -12.5q9 12 21 23l123 125q8 5 20 11t25 6h135l-245 -278h-189z" />
<glyph unicode="&#x162;" horiz-adv-x="1129" d="M111 1282l22 193h1070l-24 -193h-418l-158 -1282h-59l-27 -70q78 -19 111.5 -52.5t33.5 -79.5q0 -39 -18 -69t-50.5 -51t-77 -32.5t-97.5 -11.5q-39 0 -72.5 7.5t-62.5 20.5l28 69q8 22 29 21q6 0 12.5 -3t15.5 -6.5t20 -6.5t28 -3q36 0 53.5 17t17.5 40q0 31 -32.5 44 t-99.5 24l63 142h-45l156 1282h-419z" />
<glyph unicode="&#x163;" horiz-adv-x="739" d="M73 919l10 89l159 24l82 302q6 17 18.5 28t31.5 11h116l-43 -343h264l-19 -159h-264l-58 -480q-5 -42 -8.5 -67t-5 -40t-2 -20.5t-0.5 -8.5q0 -45 21.5 -68.5t59.5 -23.5q25 0 42.5 6.5t30.5 14t22.5 14.5t17.5 7q11 0 16 -4.5t10 -16.5l48 -107q-48 -39 -104.5 -62.5 t-117.5 -28.5l-20 -56q78 -19 111 -52.5t33 -79.5q0 -39 -18 -69t-50 -51t-76.5 -32.5t-97.5 -11.5q-39 0 -72.5 7.5t-63.5 20.5l29 69q8 22 29 21q6 0 12.5 -3t15.5 -6.5t20 -6.5t28 -3q36 0 53.5 17t17.5 40q0 31 -32.5 44t-99.5 24l61 139q-67 20 -104.5 73t-39.5 136 q0 7 0.5 16.5t2 28t4.5 49.5t10 79l60 492h-105q-17 0 -27.5 12t-7.5 36z" />
<glyph unicode="&#x164;" horiz-adv-x="1129" d="M111 1282l22 193h1070l-24 -193h-418l-158 -1282h-229l156 1282h-419zM385 1865h147q12 0 30.5 -4t29.5 -24l83 -135q3 -5 5.5 -10t4.5 -11q4 5 7.5 10.5t7.5 10.5l113 134q16 20 34.5 24.5t32.5 4.5h146l-258 -281h-188z" />
<glyph unicode="&#x165;" horiz-adv-x="737" d="M72 919l10 89l159 24l82 302q6 17 18.5 28t31.5 11h116l-43 -343h264l-19 -159h-264l-58 -480q-5 -42 -8.5 -67t-5 -40t-2 -20.5t-0.5 -8.5q0 -45 21.5 -68.5t59.5 -23.5q25 0 42.5 6.5t30.5 14t22.5 14.5t17.5 7q11 0 16 -4.5t10 -16.5l48 -107q-54 -45 -120.5 -69 t-133.5 -24q-105 0 -167 58t-65 164q0 7 0.5 16.5t2 28t4.5 49.5t10 79l60 492h-106q-17 0 -27 12t-7 36zM575 1174l99 343h121q20 0 26 -9.5t6 -19.5t-3.5 -24.5t-15.5 -43.5t-35.5 -78.5t-63.5 -128.5q-14 -26 -33 -32.5t-47 -6.5h-54z" />
<glyph unicode="&#x166;" horiz-adv-x="1162" d="M127 1282l23 193h1070l-25 -193h-418l-50 -410h297l-15 -134h-298l-91 -738h-230l90 738h-300l16 134h301l50 410h-420z" />
<glyph unicode="&#x167;" horiz-adv-x="747" d="M34 621l11 89h155l20 161h-105q-17 0 -27.5 12t-7.5 36l10 89l159 24l82 302q6 17 18.5 28t31.5 11h117l-43 -343h263l-19 -159h-264l-19 -161h256l-18 -139h-256l-21 -180q-5 -42 -8 -67t-5 -40t-2.5 -20.5t-0.5 -8.5q0 -45 21.5 -68.5t59.5 -23.5q25 0 42.5 6.5 t30.5 14t22.5 14.5t17.5 7q11 0 16.5 -4.5t10.5 -16.5l47 -107q-54 -45 -120.5 -69t-133.5 -24q-105 0 -167 58t-65 164q0 7 0.5 16.5t2 28t5 49.5t9.5 79l23 192h-109q-17 0 -30 13t-10 37z" />
<glyph unicode="&#x168;" horiz-adv-x="1410" d="M144 584l108 891h230l-108 -891q-11 -88 2 -161.5t48.5 -126t92 -82t133.5 -29.5t141 29.5t112.5 82t79.5 126t42 161.5l110 891h230l-109 -891q-16 -129 -68 -239.5t-134 -190.5t-190.5 -125.5t-237.5 -45.5t-226.5 45.5t-159.5 125.5t-87 190.5t-9 239.5zM514 1583 q5 47 22.5 91.5t44.5 79t64 55t81 20.5q46 0 78.5 -16.5t59 -36.5t49 -36.5t48.5 -16.5q22 0 38.5 9.5t28.5 23.5t19 31.5t9 35.5h124q-5 -48 -22 -92t-44 -78t-64 -54.5t-82 -20.5t-77.5 16.5t-58.5 36.5t-49.5 36t-48.5 16q-22 0 -38.5 -9t-28.5 -23.5t-19 -32t-9 -35.5 h-125z" />
<glyph unicode="&#x169;" d="M87 381l79 663h219l-79 -663q-14 -112 13 -163t98 -51q43 0 89 24t89 68t80 106.5t62 139.5l65 539h219l-126 -1044h-110q-80 0 -79 78l10 150q-80 -122 -179 -182.5t-203 -60.5q-66 0 -117 26t-84 76.5t-45 124.5t-1 169zM332 1228q6 53 24.5 97t46.5 75.5t63 48.5 t75 17q34 0 61.5 -13.5t51 -30t44.5 -30.5t40 -14q31 0 50 19t25 63h124q-6 -53 -24.5 -96.5t-46 -75t-62.5 -48t-75 -16.5q-34 0 -61 13.5t-51.5 30t-45.5 30.5t-40 14q-31 0 -50 -20t-24 -64h-125z" />
<glyph unicode="&#x16a;" horiz-adv-x="1410" d="M144 584l108 891h230l-108 -891q-11 -88 2 -161.5t48.5 -126t92 -82t133.5 -29.5t141 29.5t112.5 82t79.5 126t42 161.5l110 891h230l-109 -891q-16 -129 -68 -239.5t-134 -190.5t-190.5 -125.5t-237.5 -45.5t-226.5 45.5t-159.5 125.5t-87 190.5t-9 239.5zM558 1616 l14 129h546l-13 -129h-547z" />
<glyph unicode="&#x16b;" d="M87 381l79 663h219l-79 -663q-14 -112 13 -163t98 -51q43 0 89 24t89 68t80 106.5t62 139.5l65 539h219l-126 -1044h-110q-80 0 -79 78l10 150q-80 -122 -179 -182.5t-203 -60.5q-66 0 -117 26t-84 76.5t-45 124.5t-1 169zM351 1251l15 143h554l-17 -143h-552z" />
<glyph unicode="&#x16c;" horiz-adv-x="1410" d="M144 584l108 891h230l-108 -891q-11 -88 2 -161.5t48.5 -126t92 -82t133.5 -29.5t141 29.5t112.5 82t79.5 126t42 161.5l110 891h230l-109 -891q-16 -129 -68 -239.5t-134 -190.5t-190.5 -125.5t-237.5 -45.5t-226.5 45.5t-159.5 125.5t-87 190.5t-9 239.5zM560 1858h155 q-8 -68 19 -105t107 -37q40 0 68.5 10t46.5 28t28.5 44t14.5 60h155q-7 -65 -33.5 -116t-69 -86.5t-99.5 -54.5t-126 -19t-122 16.5t-87.5 50.5t-49.5 86t-7 123z" />
<glyph unicode="&#x16d;" d="M87 381l79 663h219l-79 -663q-14 -112 13 -163t98 -51q43 0 89 24t89 68t80 106.5t62 139.5l65 539h219l-126 -1044h-110q-80 0 -79 78l10 150q-80 -122 -179 -182.5t-203 -60.5q-66 0 -117 26t-84 76.5t-45 124.5t-1 169zM380 1475h143q-4 -33 -1 -59t15.5 -44.5t36 -29 t62.5 -10.5q38 0 64 10.5t43 29t26 44.5t13 59h142q-6 -58 -26 -109.5t-56 -90.5t-90.5 -61.5t-131.5 -22.5t-126 22.5t-76.5 61.5t-35.5 90t-2 110z" />
<glyph unicode="&#x16e;" horiz-adv-x="1410" d="M144 584l108 891h230l-108 -891q-11 -88 2 -161.5t48.5 -126t92 -82t133.5 -29.5t141 29.5t112.5 82t79.5 126t42 161.5l110 891h230l-109 -891q-16 -129 -68 -239.5t-134 -190.5t-190.5 -125.5t-237.5 -45.5t-226.5 45.5t-159.5 125.5t-87 190.5t-9 239.5zM650 1743 q5 42 24 77t47.5 60.5t63.5 39t72 13.5q39 0 71.5 -13.5t55.5 -39t34.5 -60.5t7.5 -77q-5 -41 -24 -75.5t-48 -59t-64.5 -37.5t-74.5 -13q-37 0 -68.5 13t-55 37.5t-35 59t-6.5 75.5zM749 1743q-5 -42 15.5 -69t63.5 -27q40 0 67 27t33 69q5 44 -16.5 70.5t-61.5 26.5 q-43 0 -69.5 -26.5t-31.5 -70.5z" />
<glyph unicode="&#x16f;" d="M87 381l79 663h219l-79 -663q-14 -112 13 -163t98 -51q43 0 89 24t89 68t80 106.5t62 139.5l65 539h219l-126 -1044h-110q-80 0 -79 78l10 150q-80 -122 -179 -182.5t-203 -60.5q-66 0 -117 26t-84 76.5t-45 124.5t-1 169zM439 1353q5 45 25 82.5t50 64t68 40.5t78 14 q41 0 76 -14t59.5 -40.5t36.5 -64t7 -82.5t-25.5 -81.5t-51 -62.5t-68.5 -40.5t-79 -14.5q-40 0 -74.5 14.5t-59 40.5t-36 62.5t-6.5 81.5zM549 1353q-5 -43 16 -70t64 -27q39 0 66 27t32 70q5 44 -16 70.5t-61 26.5q-43 0 -69.5 -26.5t-31.5 -70.5z" />
<glyph unicode="&#x170;" horiz-adv-x="1410" d="M144 584l108 891h230l-108 -891q-11 -88 2 -161.5t48.5 -126t92 -82t133.5 -29.5t141 29.5t112.5 82t79.5 126t42 161.5l110 891h230l-109 -891q-16 -129 -68 -239.5t-134 -190.5t-190.5 -125.5t-237.5 -45.5t-226.5 45.5t-159.5 125.5t-87 190.5t-9 239.5zM572 1584 l161 231q16 24 39.5 37t56.5 13h133l-223 -248q-17 -15 -32 -24t-38 -9h-97zM871 1584l200 231q20 24 44 37t58 13h152l-268 -248q-18 -16 -35.5 -24.5t-41.5 -8.5h-109z" />
<glyph unicode="&#x171;" d="M87 381l79 663h219l-79 -663q-14 -112 13 -163t98 -51q43 0 89 24t89 68t80 106.5t62 139.5l65 539h219l-126 -1044h-110q-80 0 -79 78l10 150q-80 -122 -179 -182.5t-203 -60.5q-66 0 -117 26t-84 76.5t-45 124.5t-1 169zM396 1193l152 248q15 26 34.5 38t53.5 12h133 l-218 -265q-16 -19 -32 -26t-39 -7h-84zM651 1193l196 248q18 25 36 37.5t52 12.5h147l-263 -265q-17 -18 -32.5 -25.5t-39.5 -7.5h-96z" />
<glyph unicode="&#x172;" horiz-adv-x="1409" d="M144 584l108 891h230l-108 -891q-11 -88 2 -161.5t48.5 -126t92 -82t133.5 -29.5t141 29.5t112.5 82t79.5 126t42 161.5l110 891h230l-109 -891q-14 -113 -55 -211t-105.5 -174.5t-150 -129t-187.5 -73.5h1q-22 -12 -43 -28.5t-38.5 -36.5t-28 -43.5t-10.5 -50.5 q0 -29 16.5 -45.5t45.5 -16.5q18 0 30.5 3t21 6t13.5 6t10 3q15 0 20 -14l23 -82q-33 -24 -80.5 -38t-98.5 -14q-84 0 -128.5 36t-44.5 96q0 58 36.5 110.5t100.5 95.5q-123 4 -216 50.5t-152.5 127t-83 188.5t-8.5 235z" />
<glyph unicode="&#x173;" d="M87 381l79 663h219l-79 -663q-14 -112 13 -163t98 -51q43 0 89 24t89 68t80 106.5t62 139.5l65 539h219l-126 -1044h-30q-22 -12 -42.5 -28.5t-38 -36.5t-28.5 -43.5t-11 -50.5q0 -29 16.5 -45.5t46.5 -16.5q18 0 30.5 3t20.5 6t13.5 6t10.5 3q15 0 19 -14l24 -82 q-33 -24 -80.5 -38t-99.5 -14q-84 0 -128.5 36t-44.5 96q0 65 45.5 122.5t124.5 103.5q-38 16 -37 71l10 150q-80 -122 -179 -182.5t-203 -60.5q-66 0 -117 26t-84 76.5t-45 124.5t-1 169z" />
<glyph unicode="&#x174;" horiz-adv-x="1970" d="M121 1475h181q30 0 48.5 -15t21.5 -40l143 -965q3 -31 5.5 -66t4.5 -73q11 39 24 74t25 65l402 965q9 20 31 37.5t52 17.5h53q30 0 48 -15.5t24 -39.5l165 -965q5 -30 9 -64t6 -70q11 37 21.5 70.5t20.5 63.5l380 965q7 22 31 38.5t54 16.5h181l-603 -1475h-209 l-182 1072q-3 18 -5.5 40t-4.5 45q-8 -24 -16 -45t-16 -40l-446 -1072h-208zM792 1584l258 281h182l194 -281h-146q-13 0 -30.5 5t-34.5 31l-78 124q-3 5 -6 9.5t-5 9.5q-3 -5 -6.5 -9.5t-7.5 -9.5l-107 -124q-22 -26 -41 -31t-31 -5h-141z" />
<glyph unicode="&#x175;" horiz-adv-x="1496" d="M72 1044h166q24 0 38 -11.5t17 -31.5l78 -608q3 -41 5 -79.5t3 -76.5q14 39 28.5 77t30.5 79l255 612q7 18 23.5 30t37.5 12h92q24 0 37.5 -12t15.5 -30l101 -612q6 -41 11 -80t9 -77q11 38 23 76.5t26 80.5l231 608q6 18 23 30.5t38 12.5h160l-435 -1044h-168 q-29 0 -35 40l-113 650l-4 36t-4 37q-6 -18 -12.5 -36.5t-14.5 -37.5l-273 -649q-15 -40 -48 -40h-162zM514 1197l245 278h188l182 -278h-135q-11 0 -23 4t-23 19l-90 118q-9 10 -14 22q-5 -6 -10.5 -11.5l-10.5 -10.5l-118 -118q-11 -11 -24.5 -17t-26.5 -6h-140z" />
<glyph unicode="&#x176;" horiz-adv-x="1219" d="M103 1475h205q30 0 47 -15t25 -39l216 -545q23 -66 35 -128q14 31 31 62t37 66l353 545q12 20 32 37t50 17h191l-605 -894l-73 -581h-230l72 581zM408 1584l258 281h182l194 -281h-146q-13 0 -30.5 5t-34.5 31l-78 124q-3 5 -6 9.5t-5 9.5q-3 -5 -6.5 -9.5t-7.5 -9.5 l-107 -124q-22 -26 -41 -31t-31 -5h-141z" />
<glyph unicode="&#x177;" horiz-adv-x="995" d="M68 1044h182q26 0 38 -12.5t16 -30.5l148 -592q5 -24 8.5 -48.5t5.5 -48.5q10 25 21 49t22 49l292 592q9 18 26 30t35 12h175l-697 -1343q-25 -48 -73 -48h-163l230 420zM263 1197l245 278h188l183 -278h-136q-11 0 -22.5 4t-23.5 19l-90 118q-9 10 -14 22 q-5 -6 -10 -11.5t-11 -10.5l-118 -118q-11 -11 -24.5 -17t-26.5 -6h-140z" />
<glyph unicode="&#x178;" horiz-adv-x="1219" d="M103 1475h205q30 0 47 -15t25 -39l216 -545q23 -66 35 -128q14 31 31 62t37 66l353 545q12 20 32 37t50 17h191l-605 -894l-73 -581h-230l72 581zM405 1704q0 27 10 51t27.5 42t40.5 28t49 10q27 0 50 -10t41 -28t29 -42t11 -51t-11 -50t-29 -40t-41.5 -27t-49.5 -10 t-49 10t-40.5 27t-27.5 40t-10 50zM804 1704q0 27 10 51t27.5 42t40.5 28t50 10t50.5 -10t41 -28t28 -42t10.5 -51t-10.5 -50t-28 -40t-41 -27t-50.5 -10t-50 10t-40.5 27t-27.5 40t-10 50z" />
<glyph unicode="&#x179;" horiz-adv-x="1144" d="M-32 0l9 72q2 16 9.5 29.5t16.5 27.5l856 1158h-691l23 188h1002l-10 -73q-2 -16 -9.5 -30t-17.5 -29l-853 -1156h717l-24 -187h-1028zM547 1584l239 280q10 13 19 20t19.5 11.5t23 5.5t30.5 1h225l-338 -293q-19 -16 -34.5 -20.5t-39.5 -4.5h-144z" />
<glyph unicode="&#x17a;" horiz-adv-x="878" d="M-23 0l12 92q1 15 11 37.5t26 40.5l563 703h-476l20 171h735l-12 -92q-2 -24 -12 -45t-25 -39l-559 -697h485l-19 -171h-749zM412 1193l164 248q16 26 35 38t54 12h197l-258 -265q-17 -18 -32 -25.5t-39 -7.5h-121z" />
<glyph unicode="&#x17b;" horiz-adv-x="1143" d="M-33 0l9 72q2 16 9.5 29.5t16.5 27.5l856 1158h-691l23 188h1002l-10 -73q-2 -16 -9.5 -30t-17.5 -29l-853 -1156h717l-24 -187h-1028zM584 1732q0 30 12 57t31.5 47t44.5 31.5t52 11.5q28 0 54 -11.5t46 -31.5t32 -46.5t12 -57.5q0 -30 -12.5 -56.5t-33 -46.5t-46 -32 t-53.5 -12t-52.5 12t-43.5 32t-31 46.5t-12 56.5z" />
<glyph unicode="&#x17c;" horiz-adv-x="878" d="M-23 0l12 92q1 15 11 37.5t26 40.5l563 703h-476l20 171h735l-12 -92q-2 -24 -12 -45t-25 -39l-559 -697h485l-19 -171h-749zM406 1360q0 30 12 57t31.5 47t45 31.5t51.5 11.5q28 0 54 -11.5t46 -31.5t32 -46.5t12 -57.5q0 -30 -12.5 -56.5t-33 -46.5t-46 -32t-53.5 -12 t-52.5 12t-43.5 32t-31 46.5t-12 56.5z" />
<glyph unicode="&#x17d;" horiz-adv-x="1143" d="M-33 0l9 72q2 16 9.5 29.5t16.5 27.5l856 1158h-691l23 188h1002l-10 -73q-2 -16 -9.5 -30t-17.5 -29l-853 -1156h717l-24 -187h-1028zM412 1865h147q12 0 30 -4t29 -24l83 -135l6 -10t5 -11q4 5 7.5 10.5t7.5 10.5l113 134q16 20 34.5 24.5t31.5 4.5h147l-258 -281h-189 z" />
<glyph unicode="&#x17e;" horiz-adv-x="878" d="M-23 0l12 92q1 15 11 37.5t26 40.5l563 703h-476l20 171h735l-12 -92q-2 -24 -12 -45t-25 -39l-559 -697h485l-19 -171h-749zM251 1475h139q13 0 24.5 -5.5t16.5 -11.5l95 -125q4 -5 7.5 -10.5t8.5 -12.5q9 12 21 23l123 125q8 5 20 11t25 6h135l-245 -278h-189z" />
<glyph unicode="&#x17f;" horiz-adv-x="574" d="M76 940l9 88h160l11 90q11 89 44 160t84.5 119.5t119.5 74t149 25.5q34 0 63 -5.5t57 -14.5l-19 -111q-5 -22 -28.5 -23.5t-54.5 -1.5q-42 0 -76 -12t-59 -39t-42 -71t-24 -108l-130 -1072l-50 -201q-14 -44 -40 -68t-73 -24h-88l137 1125l-102 16q-25 5 -38.5 17 t-9.5 36z" />
<glyph unicode="&#x180;" horiz-adv-x="1093" d="M50 0l141 1165h-58q-45 0 -60 18.5t-10 58.5l10 57h134l26 217h216l-27 -217h215l-15 -134h-216l-44 -353q38 56 81 102.5t90.5 79t98 50t103.5 17.5q66 0 118.5 -24t89.5 -73t57 -121t20 -168q0 -87 -18 -172t-50.5 -161.5t-79.5 -142t-103 -113t-121.5 -74.5 t-136.5 -27q-81 0 -146 33.5t-108 92.5l-11 -49q-10 -33 -25.5 -47.5t-52.5 -14.5h-118zM292 239q37 -46 86.5 -65t98.5 -19t92 20.5t79.5 56t64.5 84.5t48 104t30.5 115t10.5 118q0 116 -40 174t-112 58q-45 0 -92 -30t-90 -82t-80.5 -123.5t-63.5 -154.5z" />
<glyph unicode="&#x181;" horiz-adv-x="1544" d="M97 1066q0 93 31 169t89 129t142 82t191 29h475q119 0 204 -24t139.5 -67.5t80.5 -105t26 -137.5q0 -63 -18 -121.5t-54.5 -108.5t-92.5 -89t-131 -63q128 -30 191.5 -103t63.5 -186q0 -102 -37.5 -188t-107.5 -148.5t-171 -98t-229 -35.5h-502l160 1304h-18 q-68 0 -112.5 -15.5t-72 -43.5t-38.5 -68t-11 -90q0 -16 1 -33t3 -26q3 -23 -5.5 -43t-42.5 -29l-136 -29q-8 34 -13 70t-5 69zM640 182h268q76 0 132.5 20.5t93 58t54.5 89.5t18 117q0 89 -58 141t-182 52h-268zM719 823h214q153 0 230 72t77 206q0 99 -58.5 145t-179.5 46 h-226z" />
<glyph unicode="&#x182;" horiz-adv-x="1199" d="M88 0l181 1475h908l-22 -183h-678l-54 -442h235q118 0 202.5 -26.5t138.5 -73.5t79 -111t25 -137q0 -113 -38 -205t-109 -158t-173 -102.5t-230 -36.5h-465zM341 182h234q77 0 133 20t92.5 57.5t54 91t17.5 120.5q0 46 -13 82.5t-41 62t-73.5 39t-109.5 13.5h-235z" />
<glyph unicode="&#x183;" horiz-adv-x="1076" d="M49 0l187 1516h790l-18 -154h-580l-55 -455q68 71 146 112.5t175 41.5q70 0 126 -28.5t95 -82.5t60 -133t21 -178q0 -141 -36 -261t-101 -207.5t-155 -136.5t-197 -49q-45 0 -81 9.5t-65 27.5t-52 44t-43 59l-20 -82q-8 -24 -22 -33.5t-36 -9.5h-139zM293 259 q34 -61 80.5 -86t104.5 -25q68 0 123 31.5t94.5 92.5t61 150.5t21.5 207.5q0 136 -46 199t-129 63q-77 0 -135 -36.5t-115 -103.5z" />
<glyph unicode="&#x184;" horiz-adv-x="1321" d="M100 1094l331 381h168l-64 -529h265q118 0 204.5 -33t142.5 -89.5t83.5 -131.5t27.5 -157q0 -112 -37 -210t-109 -170t-175.5 -113.5t-237.5 -41.5h-511l116 940zM441 182h276q59 0 105 15.5t81 41.5t59.5 60t39.5 72t21.5 77t6.5 75q0 46 -13 89t-42.5 77t-75.5 54 t-112 20h-275l-63 -525z" />
<glyph unicode="&#x185;" horiz-adv-x="1123" d="M22 1167l296 349h160l-86 -704q38 56 81 102.5t90 79t98 50t104 17.5q66 0 118.5 -24t89.5 -73t57 -121t20 -168q0 -87 -18 -172t-51 -161.5t-79.5 -142t-103 -113t-122 -74.5t-135.5 -27q-81 0 -146 33.5t-108 92.5l-12 -49q-10 -33 -25.5 -47.5t-51.5 -14.5h-118 l125 1029zM322 239q37 -46 86.5 -65t98.5 -19t92 20.5t79.5 56t64.5 84.5t48 104t30 115t10 118q0 116 -39.5 174t-111.5 58q-45 0 -92 -30t-90 -82t-80.5 -123.5t-64.5 -154.5z" />
<glyph unicode="&#x186;" horiz-adv-x="1272" d="M-9 208l102 100q19 16 36 16q10 0 19 -5.5t17 -12.5q29 -33 58.5 -56.5t65 -38t78.5 -22t98 -7.5q101 0 193 44t161.5 127.5t111 204.5t41.5 276q0 105 -26.5 189.5t-75 144t-117.5 91t-153 31.5q-55 0 -98.5 -9t-78 -23t-60.5 -30t-46.5 -29.5t-36.5 -23t-29 -9.5 q-17 0 -27.5 8.5t-16.5 19.5l-63 108q91 85 211.5 137t268.5 52q134 0 242 -48t183.5 -134.5t116.5 -205.5t41 -260q0 -186 -55 -344t-155 -272.5t-237.5 -178.5t-303.5 -64q-169 0 -282.5 58t-182.5 166z" />
<glyph unicode="&#x187;" horiz-adv-x="1285" d="M91 625q0 128 27 241.5t77.5 209t120.5 172.5t156 131t185.5 82.5t206.5 29.5q75 1 144 -16.5t131 -48.5q4 72 22 139.5t56 120t100.5 84t155.5 31.5q31 0 55.5 -2.5t47 -7.5t44 -11.5t43.5 -16.5l-44 -121q-6 -16 -14.5 -24.5t-18 -12t-20.5 -3t-21 2.5q-32 11 -72 11 q-68 0 -105 -54t-48 -153l-13 -118l-79 -96q-9 -11 -21.5 -19.5t-30.5 -8.5q-13 0 -26.5 9.5t-30 23t-38.5 29.5t-53 30t-72.5 23t-97.5 9q-113 0 -210 -45.5t-168 -129.5t-112 -203.5t-41 -268.5q0 -108 27.5 -193.5t76.5 -145t117 -91.5t149 -32q65 0 114.5 10.5t86.5 26 t63 34t45.5 34.5t34 26.5t27.5 10.5q11 0 18.5 -5t11.5 -10l81 -101q-95 -106 -224.5 -165t-296.5 -59q-134 0 -239.5 48t-178 133t-111 202.5t-38.5 257.5z" />
<glyph unicode="&#x188;" horiz-adv-x="933" d="M51 418q0 84 18.5 165t52.5 152t82 131t107 103t128 67t146 24q43 0 78 -8t67 -22l9 85q8 65 30 124t59 105t91 73.5t128 27.5q40 0 79 -9.5t81 -29.5l-35 -92q-10 -27 -24 -34t-27 -7q-14 0 -33.5 6.5t-48.5 6.5q-55 0 -80.5 -42.5t-35.5 -119.5l-28 -210l-70 -84 q-8 -8 -18.5 -14.5t-23.5 -6.5q-15 0 -29.5 11t-35 25t-51 26t-78.5 12q-65 0 -122 -35t-100.5 -97t-69.5 -148t-26 -187q0 -121 54 -189.5t152 -68.5q63 0 105.5 18.5t71.5 40t50.5 39.5t44.5 18t41 -20l55 -68q-52 -58 -100.5 -96.5t-97 -62t-101 -33t-115.5 -9.5 q-91 0 -161.5 31t-119 88t-74 137t-25.5 177z" />
<glyph unicode="&#x189;" horiz-adv-x="1462" d="M11 675l17 134h175l81 666h515q138 0 249 -47.5t189 -132t119.5 -201t41.5 -255.5q0 -124 -26.5 -234t-76 -203.5t-119 -168t-156 -126.5t-188 -79.5t-214.5 -27.5h-515l83 675h-175zM358 186h283q117 0 212.5 44.5t163.5 128t105.5 203.5t37.5 271q0 104 -26 188.5 t-75 144t-121 91t-162 31.5h-283l-59 -479h346l-15 -134h-347z" />
<glyph unicode="&#x18a;" horiz-adv-x="1746" d="M97 1066q0 93 31 169t89 129t142 82t191 29h532q138 0 249.5 -47.5t189 -131.5t119 -200.5t41.5 -255.5q0 -124 -26.5 -234.5t-75.5 -204t-118.5 -167.5t-156 -126.5t-188 -80t-214.5 -27.5h-515l160 1304h-18q-68 0 -112.5 -15.5t-72 -43.5t-38.5 -68t-11 -90 q0 -16 1 -33t3 -26q3 -23 -5.5 -43t-42.5 -29l-136 -29q-8 34 -13 70t-5 69zM641 186h284q117 0 212.5 44.5t164 128.5t106 204t37.5 271q0 104 -26 188t-75.5 143t-121 90.5t-162.5 31.5h-283z" />
<glyph unicode="&#x18b;" horiz-adv-x="1192" d="M46 390q0 98 31.5 182.5t97.5 146t168.5 96.5t246.5 35h235l55 442h-677l21 183h909l-182 -1475h-465q-106 0 -188 28t-138.5 79.5t-85 123t-28.5 159.5zM272 386q0 -44 13 -81.5t41.5 -64.5t73 -42.5t109.5 -15.5h234l60 486h-236q-154 0 -224.5 -71t-70.5 -211z" />
<glyph unicode="&#x18c;" horiz-adv-x="1094" d="M49 371q0 87 18 172t51 161.5t79.5 141.5t102.5 113t121 75t136 27q74 0 134.5 -27.5t103.5 -78.5l50 407h-577l19 154h792l-187 -1516h-116q-42 0 -56.5 21.5t-14.5 53.5l13 178q-39 -61 -83 -110.5t-92.5 -84.5t-101 -54t-107.5 -19q-132 0 -208.5 96.5t-76.5 289.5z M266 393q0 -116 40 -174t112 -58q45 0 92 29.5t90 82t80.5 124t63.5 155.5l32 257q-37 45 -86.5 63t-98.5 18q-74 0 -134 -44.5t-102.5 -116t-65.5 -160t-23 -176.5z" />
<glyph unicode="&#x18d;" horiz-adv-x="1001" d="M72 27l31 130q7 29 21 38t41 9q15 0 46 -8t69.5 -17t81 -16.5t81.5 -7.5q75 0 107 27t32 66q0 31 -21.5 58t-57.5 54.5t-81 57t-92.5 65.5t-93 79.5t-81 98t-57 122.5t-21.5 153q0 120 37.5 220.5t106 173.5t164.5 114t214 41q98 0 174 -32.5t127 -88.5t78 -133.5 t27 -166.5q0 -196 -98 -331.5t-296 -208.5q35 -25 67 -51.5t55 -57t36.5 -66.5t13.5 -80q0 -60 -22.5 -112t-68.5 -89.5t-116.5 -59t-166.5 -21.5q-35 0 -78 3t-88.5 8t-89.5 12.5t-81 16.5zM290 956q0 -65 16.5 -116.5t44.5 -92.5t65 -75t77 -64q56 23 108.5 59t93.5 89.5 t65.5 126t24.5 169.5q0 54 -12 103t-37 86t-64.5 59t-92.5 22q-61 0 -114 -25.5t-92 -73t-61 -115.5t-22 -152z" />
<glyph unicode="&#x18e;" horiz-adv-x="1095" d="M3 0l22 187h618l57 466h-491l22 181h492l56 453h-618l22 188h851l-181 -1475h-850z" />
<glyph unicode="&#x18f;" horiz-adv-x="1387" d="M73 543q0 72 6 114.5t18.5 65t29.5 29.5t40 7h914q1 17 1.5 35t0.5 35q0 226 -99.5 344t-285.5 118q-85 0 -149.5 -22t-113.5 -49t-86 -49t-65 -22q-35 0 -52 27l-59 87q62 63 132.5 107t143.5 71.5t148.5 40.5t147.5 13q126 0 231.5 -44t182.5 -127.5t119.5 -206 t42.5 -278.5q0 -182 -53.5 -338.5t-150.5 -271t-233 -179.5t-302 -65q-116 0 -209.5 37.5t-160.5 109.5t-103 176t-36 235zM298 599q-12 -94 3.5 -171.5t55 -132.5t102 -86t144.5 -31q90 0 164.5 30t132 84t98 132t62.5 175h-762z" />
<glyph unicode="&#x190;" horiz-adv-x="1134" d="M65 380q0 73 22.5 138t62.5 119t96 96t124 69q-54 19 -91 47.5t-60.5 62t-34 72t-10.5 77.5q0 85 39 163t111 137t174.5 94.5t230.5 35.5q74 0 136 -12t112.5 -33.5t92 -51.5t75.5 -67l-63 -90q-18 -27 -34 -33t-28 -6q-18 0 -40.5 16t-57.5 35t-88.5 34.5t-134.5 15.5 q-73 0 -126 -19.5t-87.5 -53t-51.5 -77t-17 -91.5q0 -89 66.5 -136.5t184.5 -47.5h224l-21 -166h-243q-82 0 -142.5 -25.5t-101 -65.5t-60.5 -92t-20 -104q0 -50 18 -94t53.5 -76.5t87.5 -51.5t121 -19q68 0 118 15.5t86.5 37t62.5 43.5t44 36q9 7 19.5 12.5t21.5 5.5 q18 0 31 -16l71 -99q-55 -63 -118.5 -106.5t-131.5 -71.5t-141 -40t-147 -12q-85 0 -163.5 26t-139 76t-96.5 124t-36 169z" />
<glyph unicode="&#x191;" horiz-adv-x="1086" d="M-253 -333l45 120q12 33 33 38.5t42 0.5q31 -11 72 -11q68 0 104 52.5t48 152.5l10 82l168 1373h850l-22 -188h-619l-59 -480h524l-22 -187h-525l-65 -534l-7 -66q-11 -86 -39.5 -158t-75 -123.5t-112 -81t-149.5 -29.5q-34 0 -61.5 2.5t-51 8t-44.5 12.5t-44 16z" />
<glyph unicode="&#x192;" horiz-adv-x="636" d="M-250 -367l35 94q10 26 23.5 34t28.5 8q13 0 29.5 -7t49.5 -7q74 0 117.5 50t55.5 154l12 100l101 814l-90 14q-24 5 -38 18t-11 36l12 87h145l11 91q11 89 44 159.5t85 119t120 74t149 25.5q65 0 120 -19l-19 -108q-3 -13 -10 -20.5t-18.5 -10.5t-26.5 -3.5t-31 -0.5 q-42 0 -77 -11t-61.5 -37t-44.5 -69t-25 -106l-10 -84h258l-18 -154h-252l-101 -815l-9 -76q-11 -86 -39 -157.5t-76 -122.5t-115.5 -79t-156.5 -28q-49 0 -87 8.5t-80 28.5z" />
<glyph unicode="&#x193;" horiz-adv-x="1396" d="M91 635q0 188 59 345.5t165 271t254 176.5t326 63q88 0 160 -15.5t132 -43.5q4 71 24 137.5t60 118t102.5 82.5t153.5 31q31 0 56.5 -2.5t48 -7.5t43.5 -11.5t42 -16.5l-45 -121q-6 -16 -14 -24.5t-18 -12t-20.5 -3t-21.5 2.5q-31 11 -72 11q-67 0 -104 -54t-48 -153 l-13 -107l-79 -106q-18 -25 -44 -31t-52 13q-27 16 -55.5 36t-65.5 37t-86 28t-117 11q-118 0 -216 -45.5t-168.5 -130t-110 -203.5t-39.5 -267q0 -111 28.5 -199t80.5 -148.5t125.5 -93.5t163.5 -33q47 0 87.5 5t77 14.5t69.5 22.5t66 31l38 304h-183q-23 0 -34 12t-9 32 l16 132h440l-70 -581q-113 -80 -241.5 -119t-296.5 -39q-134 0 -243.5 48.5t-188 135t-121 206t-42.5 261.5z" />
<glyph unicode="&#x194;" horiz-adv-x="1308" d="M22 0l497 625l-447 850h223q24 0 34.5 -8.5t20.5 -26.5l335 -666l477 666q25 34 55 34h221l-653 -862l340 -612h-1103zM398 176h404q-8 7 -16 15t-13 18l-146 274q-11 -22 -24.5 -42.5t-31.5 -39.5l-140 -200q-12 -13 -33 -25z" />
<glyph unicode="&#x195;" horiz-adv-x="1634" d="M50 0l183 1516h220l-81 -673q79 109 172 163.5t191 54.5q67 0 117 -26t81.5 -77t42 -124.5t-1.5 -168.5l-35 -286q-14 -118 20 -176.5t114 -58.5q165 0 195 235l82 665h220l-82 -665q-11 -88 -42 -161t-83.5 -125t-128.5 -80.5t-177 -28.5q-98 0 -168 28.5t-111.5 80 t-55.5 124.5t-3 162l35 286h1q14 112 -8 163.5t-94 51.5q-43 0 -88.5 -24.5t-87.5 -68t-79.5 -105t-62.5 -137.5l-66 -545h-219z" />
<glyph unicode="&#x196;" horiz-adv-x="632" d="M120 310l143 1165h233l-142 -1152q-10 -82 13.5 -120.5t91.5 -38.5h90l-10 -77q-3 -28 -20 -46.5t-43 -30.5t-59.5 -17t-69.5 -5q-66 0 -112.5 24t-75 67t-38 102t-1.5 129z" />
<glyph unicode="&#x197;" horiz-adv-x="599" d="M8 684l18 136h182l81 655h232l-81 -655h183l-17 -136h-182l-84 -684h-232l83 684h-183z" />
<glyph unicode="&#x198;" horiz-adv-x="1334" d="M88 0l181 1475h230l-78 -634h62q36 0 62.5 9.5t50.5 42.5l277 396q38 54 80 92t89 61.5t99 34.5t111 11q61 0 100 -9.5t67 -23.5l-35 -117q-13 -33 -33 -38t-39 -2q-13 3 -32 6.5t-38 3.5q-51 0 -94 -25t-75 -68l-246 -348q-24 -33 -50 -54t-56 -35q31 -11 54 -31.5 t43 -54.5l402 -692h-204q-42 0 -60.5 12.5t-30.5 34.5l-335 564q-15 27 -37.5 40t-67.5 13h-86l-81 -664h-230z" />
<glyph unicode="&#x199;" horiz-adv-x="1000" d="M48 0l126 1025l9 77q10 86 39.5 157t77 123t115 80t156.5 28q49 0 86.5 -9.5t80.5 -29.5l-35 -93q-10 -26 -23 -34t-29 -8q-13 0 -30 7t-50 7q-147 0 -173 -204l-11 -101l-48 -391h43q22 0 35.5 6t31.5 26l301 338q17 19 35.5 29.5t44.5 10.5h194l-366 -400 q-17 -19 -35 -34.5t-38 -26.5q17 -14 30 -32.5t24 -39.5l275 -511h-189q-25 0 -42.5 8.5t-28.5 31.5l-217 413q-11 23 -24 29.5t-41 6.5h-51l-60 -489h-213z" />
<glyph unicode="&#x19a;" horiz-adv-x="540" d="M33 683l18 154h124l82 679h217l-83 -679h144l-19 -154h-143l-83 -683h-216l83 683h-124z" />
<glyph unicode="&#x19b;" horiz-adv-x="1043" d="M-68 0l490 948l-16 82l-180 -65l-27 126l182 66l-13 65q-6 30 -15.5 50t-25 33t-38.5 18.5t-57 5.5h-62l9 79q2 16 10 31t23 26t39.5 17t61.5 6q40 0 78.5 -8.5t71.5 -29t57 -56.5t35 -91l16 -76l185 67l28 -126l-186 -67l180 -846q11 -56 38 -82t81 -26h55l-10 -85 q-5 -45 -33 -59t-75 -14q-50 0 -91 9.5t-71.5 38.5t-53 80.5t-37.5 136.5l-75 345q-7 39 -9.5 69.5t-2.5 57.5q-11 -33 -25.5 -68.5t-32.5 -77.5l-255 -538q-8 -17 -25 -29.5t-47 -12.5h-177z" />
<glyph unicode="&#x19c;" horiz-adv-x="2062" d="M142.5 329.5q-13.5 112.5 2.5 260.5l110 885h231l-109 -885q-11 -115 -2 -196t35.5 -132.5t70 -75t101.5 -23.5q59 0 113.5 34.5t98 98t73.5 151.5t41 194l104 834h232l-103 -834q-11 -122 -8 -211.5t24 -149t61 -88.5t104 -29q98 0 188.5 116.5t156.5 361.5l103 834h232 l-180 -1472h-120q-59 0 -67 58l11 226q-79 -158 -180 -230t-213 -72q-65 0 -115.5 24t-87.5 66t-61.5 100t-38.5 127q-40 -79 -90 -138.5t-107 -99t-118 -59.5t-122 -20q-112 0 -189 39t-122.5 116t-59 189.5z" />
<glyph unicode="&#x19d;" horiz-adv-x="1462" d="M-256 -367l45 120q6 16 14.5 25t18.5 13t21 3.5t21 -3.5q14 -5 33 -7.5t38 -2.5q67 0 104 53t48 153l10 81l173 1407h120q30 0 44.5 -7.5t29.5 -32.5l606 -1052q1 30 3 58.5t5 54.5l120 979h203l-180 -1475h-119q-27 0 -44.5 9t-31.5 32l-604 1051q-1 -28 -3 -55t-5 -51 l-114 -918h1l-11 -81q-10 -86 -36 -158t-69 -124t-105 -80.5t-145 -28.5q-62 0 -104.5 9.5t-86.5 27.5z" />
<glyph unicode="&#x19e;" horiz-adv-x="1137" d="M71 896l10 84q4 30 30.5 52t87.5 22q46 0 84.5 -13t66 -40t43 -69t14.5 -101q80 115 175.5 172.5t196.5 57.5q66 0 117.5 -26t84.5 -77t45 -124.5t0 -168.5l-124 -1012h-212l124 1012h1q14 112 -14.5 162.5t-102.5 50.5q-39 0 -79 -18.5t-79 -53.5t-74 -83.5t-63 -110.5 l-74 -612h-211l92 751q9 75 -15 110t-79 35h-45z" />
<glyph unicode="&#x19f;" horiz-adv-x="1534" d="M91 634q0 124 27 235.5t76.5 206.5t120 172t157.5 131t188 83t214 29q138 0 249 -49t189 -136.5t119.5 -207t41.5 -259.5q0 -123 -27 -234.5t-76.5 -206.5t-120 -171t-157.5 -130t-188.5 -83t-214.5 -29q-138 0 -249 49t-188.5 135.5t-119 205.5t-41.5 259zM328 641 q0 -105 26.5 -190.5t76 -146.5t121.5 -94t163 -33q99 0 183 34t149.5 97t109.5 152.5t64 202.5h-893v-22zM346 837h889q0 104 -27 189.5t-77.5 145.5t-122 92.5t-161.5 32.5q-95 0 -177 -31.5t-146.5 -91.5t-110 -145.5t-67.5 -191.5z" />
<glyph unicode="&#x1a0;" horiz-adv-x="1617" d="M91 634q0 124 27 235.5t76.5 206.5t120 172t157.5 131t188.5 83t213.5 29q153 0 271 -59t196 -163q65 12 102 47.5t37 83.5q0 15 -4.5 27.5t-9.5 24t-9 25t-4 30.5q0 114 131 114h115q2 -11 3 -30t1 -30q0 -74 -19.5 -138t-57.5 -115t-94 -86.5t-130 -53.5 q35 -72 53 -154t18 -175q0 -123 -27 -234.5t-76.5 -206.5t-120 -171t-157.5 -130t-188.5 -83t-214.5 -29q-138 0 -249 49t-188.5 135.5t-119 205.5t-41.5 259zM328 641q0 -105 26.5 -190.5t76 -146.5t121.5 -94t163 -33q117 0 212.5 46.5t164 132t106 207t37.5 271.5 q0 105 -26.5 190.5t-77 146.5t-122.5 93.5t-162 32.5q-116 0 -211.5 -46.5t-164 -132.5t-106 -207t-37.5 -270z" />
<glyph unicode="&#x1a1;" horiz-adv-x="1166" d="M52 421q0 134 42.5 250.5t116 203.5t172 136.5t211.5 49.5q111 0 197.5 -47t138.5 -137q55 14 86.5 48t31.5 76q0 13 -5 24t-10 22.5t-9.5 24.5t-4.5 31q0 48 29 74t92 26h105q2 -11 2.5 -28t0.5 -28q0 -69 -17.5 -127.5t-52.5 -106t-87.5 -79.5t-122.5 -48 q11 -36 16.5 -76t5.5 -85q0 -88 -19.5 -170t-54 -153.5t-84.5 -129.5t-109.5 -99.5t-129.5 -64.5t-144 -23q-86 0 -159 29t-125.5 85t-82.5 137t-30 185zM272 423q0 -266 196 -266q69 0 125 38t95 102.5t60.5 149t21.5 177.5q0 135 -49.5 200.5t-146.5 65.5 q-70 0 -125.5 -38t-94.5 -102t-60.5 -149t-21.5 -178z" />
<glyph unicode="&#x1a2;" horiz-adv-x="1938" d="M93 623q0 187 53.5 345.5t150.5 275t233 182t300 65.5q124 0 222 -42t169 -119q75 72 158.5 115.5t184.5 43.5q79 0 136 -26.5t91.5 -76.5t46.5 -120t2 -156l-180 -1465h-232l181 1465q4 40 0 75t-18.5 60t-39 39.5t-59.5 14.5q-49 0 -96.5 -24.5t-92.5 -63.5 q39 -76 59 -166.5t20 -192.5q0 -187 -53 -346.5t-150.5 -275t-233 -180.5t-300.5 -65q-132 0 -235 48t-173 133t-107 201.5t-37 255.5zM330 630q0 -103 23 -186.5t66.5 -142.5t107 -91t143.5 -32q105 0 193 47t150.5 134t97.5 210t35 275q0 102 -23 186t-66.5 143.5 t-106.5 91.5t-143 32q-106 0 -194 -47.5t-151 -135t-97.5 -211t-34.5 -273.5z" />
<glyph unicode="&#x1a3;" horiz-adv-x="1532" d="M53 438q0 127 41.5 240.5t114.5 198.5t172.5 134.5t215.5 49.5q94 0 169.5 -35t131.5 -94q61 61 130.5 94.5t152.5 33.5q74 0 125 -26.5t80.5 -76t38 -119.5t-2.5 -156l-126 -1029h-212l127 1029q5 41 4 79t-11 66t-32 45t-59 17t-71.5 -16.5t-67.5 -43.5l-53 -429 q-9 -73 -41 -147t-88.5 -134t-137.5 -97t-187 -37q-102 0 -179.5 31.5t-130 91t-78.5 143t-26 187.5zM271 434q0 -133 51 -208t160 -75q63 0 105 24.5t67.5 62t37 81t17.5 82.5l49 391q-20 44 -63 73t-117 29q-66 0 -122 -36t-97 -98t-64.5 -146t-23.5 -180z" />
<glyph unicode="&#x1a4;" horiz-adv-x="1471" d="M97 1066q0 93 31 169t89 129t142 82t191 29h446q121 0 209.5 -29.5t146 -81.5t85.5 -125.5t28 -161.5q0 -118 -37.5 -216.5t-111.5 -171t-183 -112.5t-251 -40h-199l-66 -537h-230l160 1304h-18q-68 0 -112.5 -15.5t-72 -43.5t-38.5 -68t-11 -90q0 -16 1 -33t3 -26 q3 -23 -5.5 -43t-42.5 -29l-136 -29q-8 34 -13 70t-5 69zM706 720h198q83 0 144.5 25t103 69.5t62 106t20.5 135.5q0 54 -16 98t-48 75t-81 47t-114 16h-199z" />
<glyph unicode="&#x1a5;" horiz-adv-x="1092" d="M7 -347l167 1372l9 77q11 92 39.5 164t75 122t112.5 76t153 26q41 0 87.5 -9.5t89.5 -28.5l-34 -94q-9 -25 -22.5 -33.5t-30.5 -8.5q-13 0 -32.5 7t-52.5 7q-74 0 -113.5 -49t-53.5 -155l-12 -101l-25 -211q38 56 80.5 102t89.5 78t97.5 49.5t102.5 17.5q132 0 208.5 -97 t76.5 -289q0 -87 -18 -172t-50.5 -161.5t-79.5 -142t-103 -113t-121 -74.5t-136 -27q-74 0 -134.5 27.5t-103.5 76.5l-53 -436h-213zM292 237q37 -45 86.5 -63.5t98.5 -18.5t92 20.5t79.5 56t64.5 84.5t48 104t30.5 115t10.5 118q0 116 -40 174t-112 58q-45 0 -91.5 -30 t-90 -81.5t-81 -122.5t-63.5 -154z" />
<glyph unicode="&#x1a6;" horiz-adv-x="1158" d="M88 0l183 1490h230l-29 -234h174q123 0 212 -26t146 -73t84 -113t27 -147q0 -87 -25 -163.5t-72.5 -137t-115.5 -105.5t-153 -68q20 -13 36.5 -31t28.5 -43l289 -567h-207q-60 0 -82 48l-245 503q-13 25 -30.5 36t-55.5 11h-117l-48 -380h-230zM386 548h169 q83 0 145.5 23.5t104 66t62 100t20.5 124.5q0 102 -65.5 157.5t-196.5 55.5h-174z" />
<glyph unicode="&#x1a7;" horiz-adv-x="1039" d="M41 365q0 105 31 178.5t82 125t116.5 85.5t133 61t133 52t116 57.5t82 79t31.5 114.5q0 38 -11.5 71t-34.5 57.5t-58 38.5t-82 14q-60 0 -106.5 -16.5t-81.5 -37t-59.5 -37.5t-42.5 -17q-17 0 -28 9t-19 27l-43 109q80 74 183.5 114.5t221.5 40.5q96 0 169.5 -30 t122.5 -80.5t73.5 -116t24.5 -136.5q0 -113 -31 -188.5t-82.5 -126.5t-116.5 -83t-133 -56.5t-133 -47t-116 -55.5t-82.5 -82t-31.5 -125q0 -90 54.5 -139.5t150.5 -49.5q73 0 127 22t95 49t70.5 49t51.5 22q16 0 29 -8.5t20 -20.5l54 -111q-44 -44 -98 -80t-114 -61 t-124 -38.5t-128 -13.5q-101 0 -178.5 28t-130.5 78t-80 120.5t-27 154.5z" />
<glyph unicode="&#x1a8;" horiz-adv-x="831" d="M17 251q0 75 24.5 128t63 91.5t88.5 65t102 47.5t101.5 39.5t88.5 40.5t63 51.5t24 71.5q0 50 -38 83.5t-109 33.5q-44 0 -78.5 -11t-61.5 -24t-47.5 -24t-37.5 -11q-24 0 -38 25l-38 77q61 58 147 92t193 34q76 0 134 -19.5t97.5 -54t59.5 -81.5t20 -103q0 -75 -24 -127 t-63.5 -89.5t-89.5 -63t-102.5 -45.5t-102.5 -38.5t-89.5 -42t-63.5 -55t-24 -78.5q0 -26 8.5 -49.5t28 -41t49.5 -28.5t72 -11q52 0 89.5 14t65 31t48.5 31t41 14q18 0 30 -8.5t20 -22.5l39 -81q-63 -55 -158 -91.5t-208 -36.5q-79 0 -139 20t-101.5 55t-62.5 84.5 t-21 107.5z" />
<glyph unicode="&#x1a9;" horiz-adv-x="1158" d="M-18 0l10 86q3 27 18.5 52.5t35.5 44.5l503 552l-380 573q-10 14 -15.5 31t-2.5 35l11 101h1027l-23 -182h-611q-51 0 -91 3.5t-79 12.5q85 -50 130 -123l186 -319q13 -24 22.5 -40t15 -28.5t7.5 -22t0 -18.5q-1 -12 -5 -24t-12.5 -26t-22.5 -32t-33 -41l-315 -374 q-28 -33 -52.5 -54t-52.5 -37q40 5 74 7.5t64 2.5h639l-22 -180h-1026z" />
<glyph unicode="&#x1aa;" horiz-adv-x="654" d="M-40 1215q0 80 27.5 145.5t76 113.5t115 74t145.5 26q72 0 128 -23.5t93 -69t52 -111t5 -148.5l-143 -1166l-8 -65q-13 -104 18 -154t104 -50q33 0 51 6.5t31 6.5q15 0 26.5 -7.5t15.5 -34.5l13 -92q-47 -20 -87 -29.5t-89 -9.5q-89 0 -149.5 28.5t-96 80t-47 122.5 t0.5 157l3 27l2 17l4 34l110 898q-66 -38 -148 -38q-58 0 -105 19.5t-79.5 54t-50.5 82.5t-18 106zM160 1227q0 -58 26 -90t74 -32q65 0 102 50t37 141q0 58 -26 90.5t-73 32.5q-67 0 -103.5 -51t-36.5 -141z" />
<glyph unicode="&#x1ab;" horiz-adv-x="749" d="M72 919l10 89l159 24l81 302q6 17 18.5 28t32.5 11h116l-43 -343h263l-19 -159h-263l-59 -480q-5 -42 -8.5 -67t-5 -40t-2 -20.5t-0.5 -8.5q0 -45 21.5 -68.5t60.5 -23.5q24 0 41 5.5t29 12.5t21.5 13t17.5 6h87l-31 -243q-8 -67 -29 -126t-57.5 -104t-89.5 -72t-126 -27 q-77 0 -162 38l28 87q8 25 24 33.5t28 8.5q13 0 32.5 -7t49.5 -7q52 0 78.5 38.5t37.5 122.5l5 46q-12 -2 -25 -3t-26 -1q-106 0 -167.5 57.5t-64.5 164.5v16.5t1.5 28t5 49.5t10.5 79l60 492h-107q-16 0 -26 12t-7 36z" />
<glyph unicode="&#x1ac;" horiz-adv-x="1288" d="M100 1066q0 93 31 169t89.5 129t142 82t190.5 29h808l-24 -194h-418l-157 -1281h-232l158 1281h-159q-125 0 -178.5 -46t-53.5 -148q0 -15 1.5 -32.5t2.5 -26.5q3 -23 -5.5 -43t-41.5 -29l-137 -29q-8 34 -12.5 70t-4.5 69z" />
<glyph unicode="&#x1ad;" horiz-adv-x="737" d="M72 919l10 89l148 14l6 38l75 194q20 67 47.5 112t62.5 72.5t78 39.5t95 12q30 0 73 -8t78 -26l-26 -85q-8 -27 -22.5 -34t-28.5 -7q-7 0 -14 2t-15.5 4.5t-20 4.5t-26.5 2q-27 0 -48.5 -10.5t-37.5 -35t-27.5 -65.5t-18.5 -102l-13 -100h262l-19 -159h-263l-59 -480 q-5 -42 -8.5 -67t-5 -40t-2 -20.5t-0.5 -8.5q0 -45 21.5 -68.5t60.5 -23.5q24 0 42 6.5t30.5 14t22.5 14.5t18 7q10 0 15 -4.5t10 -16.5l48 -107q-53 -45 -119.5 -69t-133.5 -24q-106 0 -167.5 57.5t-64.5 164.5v16.5t1.5 28t5 49.5t10.5 79l60 492h-107q-16 0 -26 12t-7 36 z" />
<glyph unicode="&#x1ae;" horiz-adv-x="1131" d="M112 1281l23 194h1069l-23 -194h-419l-153 -1239l-9 -83q-12 -94 14.5 -149t99.5 -55q30 0 50.5 7t34.5 7q13 0 26 -8.5t16 -33.5l12 -94q-47 -20 -90 -28.5t-94 -8.5q-93 0 -155 28t-97 79t-45.5 122.5t0.5 157.5l5 42l154 1256h-419z" />
<glyph unicode="&#x1af;" horiz-adv-x="1641" d="M144 584l108 891h230l-108 -891q-11 -88 2 -161.5t48.5 -126t92 -82t133.5 -29.5t141 29.5t112.5 82t79.5 126t42 161.5l110 891h230l-26 -211q89 2 141.5 39.5t52.5 96.5q0 15 -4 27.5t-8.5 24t-9 25t-4.5 30.5q0 56 32 85t99 29h115q2 -11 2.5 -30t0.5 -30 q0 -88 -28 -162.5t-82.5 -129t-134.5 -84.5t-185 -31l-70 -570q-16 -129 -68 -239.5t-134 -190.5t-190.5 -125.5t-237.5 -45.5t-226.5 45.5t-159.5 125.5t-87 190.5t-9 239.5z" />
<glyph unicode="&#x1b0;" horiz-adv-x="1262" d="M87 381l79 663h219l-79 -663q-14 -112 13 -163t98 -51q43 0 89 24t89 68t80 106.5t62 139.5l65 539h219l-21 -173q71 8 111.5 45t40.5 85q0 13 -4.5 24t-10 22.5t-10.5 24.5t-5 31q0 48 29.5 74t91.5 26h106q2 -11 2.5 -28t0.5 -28q0 -78 -23 -143.5t-68.5 -114.5 t-114 -79t-158.5 -34l-93 -776h-110q-80 0 -79 78l10 150q-80 -122 -179 -182.5t-203 -60.5q-66 0 -117 26t-84 76.5t-45 124.5t-1 169z" />
<glyph unicode="&#x1b1;" horiz-adv-x="1545" d="M109 585q0 129 36.5 243t101 206t152 160t188.5 102q-45 -7 -91 -11t-89 -4h-234l14 119q4 33 28 54t59 21h497l-18 -151l-15 -116q-79 -15 -151 -69.5t-127.5 -135.5t-88.5 -186t-33 -222q0 -101 29.5 -178.5t81 -129t120.5 -78t149 -26.5q97 0 187.5 35t160 105.5 t111 176.5t41.5 250q0 86 -20 163.5t-55.5 139t-84.5 102.5t-109 53l33 267h497q36 0 54 -21t15 -54l-15 -119h-234q-44 0 -90 4t-90 11q74 -30 134.5 -82.5t103.5 -123.5t66.5 -157t23.5 -182q0 -113 -27.5 -214t-78 -186t-120 -153t-153 -115.5t-179 -73t-195.5 -25.5 q-128 0 -235.5 44.5t-185 124t-121 190t-43.5 242.5z" />
<glyph unicode="&#x1b2;" horiz-adv-x="1397" d="M135 474l123 1001h230l-122 -1001q-9 -79 -3 -134.5t25.5 -91t51.5 -52.5t75 -17q65 0 136.5 33.5t140 94.5t131 147.5t109.5 193t75.5 230t28.5 260.5q0 34 -5.5 64t-17.5 53t-33 36.5t-52 13.5q-16 0 -35 -3.5t-36 -8.5q-22 -5 -41 0.5t-24 38.5l-15 120 q49 18 92.5 28.5t96.5 10.5q76 0 132 -24t93 -69t55.5 -110t18.5 -148q0 -156 -37 -302t-102 -274.5t-152.5 -235.5t-188.5 -183.5t-210.5 -119t-217.5 -42.5q-85 0 -151.5 29t-109.5 89t-59.5 152.5t-1.5 220.5z" />
<glyph unicode="&#x1b3;" horiz-adv-x="1388" d="M101 1475h203q30 0 46.5 -15.5t25.5 -39.5l202 -535q14 -39 25.5 -73t20.5 -68q16 35 35.5 69t45.5 72l242 380q40 60 80 103t83 70t89.5 39.5t98.5 12.5q28 0 50.5 -2.5t43.5 -7.5t41 -12.5t43 -16.5l-44 -113q-12 -33 -33.5 -39t-41.5 0q-11 4 -30.5 9.5t-41.5 5.5 q-44 0 -80 -26.5t-68 -77.5l-419 -628l-72 -582h-230l71 582z" />
<glyph unicode="&#x1b4;" horiz-adv-x="1149" d="M68 1044h184q27 0 39.5 -13t16.5 -30l148 -605q6 -25 10.5 -49.5t6.5 -49.5q11 26 22.5 50.5t23.5 49.5l221 471q18 39 44.5 74.5t62.5 61.5t82 41.5t103 15.5q47 0 82 -8.5t71 -25.5l-27 -86q-10 -27 -25 -34t-28 -7q-12 0 -27.5 6.5t-47.5 6.5q-28 0 -52.5 -14 t-47.5 -58l-585 -1140q-12 -24 -29 -36t-49 -12h-157l232 417z" />
<glyph unicode="&#x1b5;" horiz-adv-x="1152" d="M-29 0l12 91q5 38 29 66l395 513h-286l21 174h399l341 443h-712l24 188h1001l-10 -86q-2 -20 -11 -39t-22 -36l-361 -470h290l-21 -174h-404l-371 -483h737l-23 -187h-1028z" />
<glyph unicode="&#x1b6;" horiz-adv-x="882" d="M-20 0l11 92q1 15 11 37.5t26 40.5l240 300h-191l17 147h292l205 256h-476l20 171h735l-12 -92q-2 -24 -12 -45t-25 -39l-200 -251h172l-19 -147h-272l-240 -299h486l-20 -171h-748z" />
<glyph unicode="&#x1b7;" horiz-adv-x="1120" d="M-8 190l95 103q13 14 23.5 15.5t17.5 1.5q12 0 22.5 -4t28.5 -21q14 -17 40 -36t61 -34t78 -25t93 -10q83 0 145.5 28t104 75t62.5 108.5t21 128.5q0 47 -17.5 88t-55.5 72t-97.5 48t-142.5 17h-150l12 100q2 17 11.5 36.5t30.5 38.5l391 367h-602l22 188h913l-10 -86 q-2 -20 -11.5 -42t-34.5 -44l-420 -390q96 -6 170.5 -37t125.5 -81t77.5 -114.5t26.5 -136.5q0 -131 -48 -234.5t-128.5 -176t-187 -110.5t-223.5 -38q-129 0 -241.5 51t-202.5 154z" />
<glyph unicode="&#x1b8;" horiz-adv-x="1126" d="M62 442q0 94 28.5 177.5t88.5 146.5t154.5 102t226.5 45l-321 390q-20 23 -23.5 44t-1.5 42l11 86h914l-24 -188h-607l301 -367q16 -18 21.5 -38t3.5 -37l-14 -100h-173q-97 0 -163.5 -22.5t-108 -61.5t-59.5 -93.5t-18 -116.5q0 -54 16.5 -103.5t50 -86.5t84 -59 t117.5 -22q56 0 102.5 13.5t82.5 33t63 42t44 39.5q23 17 34 21.5t23 4.5q7 0 17 -1.5t19 -16.5l78 -101q-98 -112 -224.5 -171t-263.5 -59q-97 0 -184.5 31.5t-153 91t-103.5 144.5t-38 190z" />
<glyph unicode="&#x1b9;" horiz-adv-x="849" d="M-6 36q0 93 26 171.5t80 137t135 95t192 45.5l-242 376q-14 19 -23.5 42t-5.5 51l10 90h701l-19 -166h-449l245 -409q26 -23 22 -58l-9 -68h-172q-76 0 -129.5 -23t-88 -64.5t-50 -98.5t-15.5 -123q0 -114 60 -179t169 -65q53 0 90.5 13t65 28t48.5 28t42 13 q19 0 31 -8.5t19 -23.5l39 -81q-32 -28 -69 -51t-80 -40t-93 -27t-108 -10q-105 0 -184 32t-132 86.5t-79.5 128.5t-26.5 158z" />
<glyph unicode="&#x1ba;" horiz-adv-x="845" d="M-57 -144q0 128 83.5 201t255.5 91q69 7 116 24.5t76.5 44t42.5 61t13 77.5q0 61 -43.5 96.5t-130.5 35.5h-157l9 69q5 37 35 58l282 264h-454l20 166h702l-12 -90q-3 -28 -15 -48.5t-39 -44.5l-266 -234q72 -8 124.5 -31t87 -56t50.5 -76.5t16 -93.5q0 -168 -102 -265 t-320 -125q-58 -7 -94 -18t-55.5 -25t-25.5 -30.5t-6 -35.5q0 -35 28.5 -57.5t85.5 -22.5q41 0 62 6t34 6t25.5 -7.5t16.5 -34.5l14 -96q-47 -19 -88.5 -27.5t-94.5 -8.5q-132 0 -204 61t-72 166z" />
<glyph unicode="&#x1bb;" horiz-adv-x="1098" d="M-13 0l9 72q2 22 14 46t34 44l468 454h-421l21 166h557q67 80 100.5 158t33.5 171q0 98 -51.5 148t-135.5 50q-45 0 -84 -15t-71.5 -41t-57 -62.5t-38.5 -79.5q-19 -40 -44.5 -54.5t-68.5 -5.5l-110 19q27 103 76.5 182t115.5 132t147 80t170 27q83 0 151.5 -25.5 t117.5 -72t75.5 -113.5t26.5 -150q0 -104 -33.5 -188t-90.5 -160h158l-21 -166h-285q-17 -17 -35.5 -35t-36.5 -35l-383 -375q47 13 94 21.5t88 8.5h383q34 0 52 -20t14 -53l-16 -128h-923z" />
<glyph unicode="&#x1bc;" horiz-adv-x="1106" d="M3 214l90 92q13 13 23 18t18 5q11 0 20 -5.5t17 -12.5q18 -17 42 -40t56.5 -43.5t76.5 -34.5t104 -14q89 0 153 31t105 80.5t60 112t19 126.5q0 111 -71 170t-192 59q-57 0 -117.5 -9.5t-115.5 -28.5l-128 38l220 536q-16 -1 -31.5 -1.5t-32.5 -0.5h-51q-24 0 -39.5 7 t-24.5 17t-13 22.5t-2 23.5l14 113h890l-12 -93q-5 -45 -37.5 -74t-99.5 -29h-361l-141 -341q36 5 68.5 8t61.5 3q113 0 196 -29.5t138 -83t81.5 -125.5t26.5 -157q0 -88 -23 -164.5t-63.5 -140t-95 -113t-117.5 -83.5t-131 -51.5t-134 -17.5q-162 0 -269 59.5t-178 170.5z " />
<glyph unicode="&#x1bd;" horiz-adv-x="852" d="M-5 163l70 66q12 13 21 17.5t17 4.5q9 0 18 -4.5t15 -12.5q12 -12 31.5 -29t46 -31t59 -24.5t71.5 -10.5q53 0 92 17.5t65 46.5t39 67.5t13 79.5q0 72 -46.5 112.5t-131.5 40.5q-38 0 -79.5 -7t-75.5 -20l-120 35l160 372q-8 -1 -17 -1h-17h-26q-45 0 -61.5 21.5 t-13.5 43.5l12 97h670l-9 -73q-5 -43 -35 -70t-93 -27h-234l-95 -224q46 6 93 6q81 0 140.5 -20t99 -56t59 -86t19.5 -108q0 -96 -36.5 -170.5t-96.5 -124.5t-136 -75.5t-157 -25.5q-97 0 -183.5 41.5t-147.5 131.5z" />
<glyph unicode="&#x1be;" horiz-adv-x="851" d="M-27 140l71 78q14 19 42 20q19 0 40 -15t49 -33.5t64.5 -33.5t88.5 -15q50 0 89.5 16.5t66.5 45t41 68.5t14 86q0 53 -22.5 86.5t-55.5 59.5t-70 50.5t-66.5 58.5t-45.5 85t-6 128l7 49h-104q-17 0 -28 11.5t-9 35.5l11 85l157 24l84 306q14 37 53 37h109l-42 -345h263 l-18 -154h-264l-6 -43q-6 -51 11.5 -84t47 -58.5t65.5 -49t68 -54.5t53.5 -75.5t21.5 -112.5q0 -90 -32.5 -166t-89.5 -131.5t-134.5 -86.5t-169.5 -31q-52 0 -104.5 11t-99.5 31.5t-86 50t-64 65.5z" />
<glyph unicode="&#x1bf;" horiz-adv-x="1071" d="M7 -347l170 1394h111q36 0 54.5 -18t18.5 -56l-12 -182q39 61 84 111t95 85.5t102.5 54.5t107.5 19q131 0 203 -87.5t72 -247.5q0 -100 -32.5 -187.5t-88 -163t-130 -139.5t-158.5 -116.5t-172.5 -94t-173.5 -72.5l-37 -300h-214zM279 121q108 47 201 107t162.5 132.5 t109.5 158.5t40 186q0 83 -33.5 131.5t-104.5 48.5q-45 0 -92 -29.5t-90.5 -81.5t-82 -122.5t-64.5 -153.5z" />
<glyph unicode="&#x1c0;" horiz-adv-x="463" d="M0 -399l234 1915h213l-235 -1915h-212z" />
<glyph unicode="&#x1c1;" horiz-adv-x="955" d="M0 -399l234 1915h213l-235 -1915h-212zM492 -399l234 1915h212l-235 -1915h-211z" />
<glyph unicode="&#x1c2;" horiz-adv-x="1013" d="M41 291l21 167h318l29 235h-319l22 167h317l81 656h212l-80 -656h317l-20 -167h-317l-30 -235h318l-20 -167h-318l-85 -690h-213l85 690h-318z" />
<glyph unicode="&#x1c3;" horiz-adv-x="417" d="M13 127q0 30 11 56t30.5 45.5t45 30.5t56.5 11q30 0 56 -11t44.5 -30.5t30 -45.5t11.5 -56q0 -31 -11.5 -56.5t-30 -45t-45 -30t-55.5 -10.5q-31 0 -56.5 10.5t-45 30t-30.5 45t-11 56.5zM117 516q0 52 0.5 99.5t2.5 92.5t5.5 89.5t9.5 90.5l72 587h200l-72 -587 q-6 -46 -13.5 -90.5t-16.5 -89.5t-20.5 -92.5t-24.5 -99.5h-143z" />
<glyph unicode="&#x1c4;" horiz-adv-x="2596" d="M89 0l181 1475h515q138 0 249.5 -47.5t188.5 -132t119 -201t42 -255.5q0 -124 -26.5 -234t-75.5 -203.5t-119 -168t-156.5 -126.5t-188.5 -79.5t-215 -27.5h-514zM343 186h283q117 0 213 44.5t164.5 128t106.5 203.5t38 271q0 104 -26 188.5t-76 144t-121.5 91 t-161.5 31.5h-283zM1420 0l10 72q2 16 9 29.5t16 27.5l856 1158h-691l24 188h1001l-10 -73q-2 -16 -9.5 -30t-17.5 -29l-853 -1156h717l-24 -187h-1028zM1865 1865h147q12 0 30 -4t30 -24l82 -135l6 -10t5 -11q4 5 7.5 10.5t7.5 10.5l113 134q16 20 34.5 24.5t31.5 4.5h147 l-258 -281h-189z" />
<glyph unicode="&#x1c5;" horiz-adv-x="2318" d="M89 0l181 1475h515q138 0 249.5 -47.5t188.5 -132t119 -201t42 -255.5q0 -124 -26.5 -234t-75.5 -203.5t-119 -168t-156.5 -126.5t-188.5 -79.5t-215 -27.5h-514zM343 186h283q117 0 213 44.5t164.5 128t106.5 203.5t38 271q0 104 -26 188.5t-76 144t-121.5 91 t-161.5 31.5h-283zM1417 0l12 92q1 15 11 37.5t26 40.5l563 703h-476l20 171h735l-12 -92q-2 -24 -12 -45t-25 -39l-559 -697h485l-19 -171h-749zM1691 1475h139q13 0 24.5 -5.5t16.5 -11.5l95 -125q4 -5 7.5 -10.5t8.5 -12.5q9 12 21 23l123 125q8 5 20 11t25 6h135 l-245 -278h-189z" />
<glyph unicode="&#x1c6;" horiz-adv-x="1992" d="M49 371q0 87 18 172t51 161.5t79.5 141.5t102.5 113t121 75t136 27q74 0 134.5 -27.5t103.5 -78.5l69 561h215l-187 -1516h-116q-42 0 -56.5 21.5t-14.5 53.5l13 178q-39 -61 -83 -110.5t-92.5 -84.5t-101 -54t-107.5 -19q-132 0 -208.5 96.5t-76.5 289.5zM266 393 q0 -116 40 -174t112 -58q45 0 92 29.5t90 82t80.5 124t63.5 155.5l32 257q-37 45 -86.5 63t-98.5 18q-74 0 -134 -44.5t-102.5 -116t-65.5 -160t-23 -176.5zM1092 0l12 92q1 15 11 37.5t26 40.5l563 703h-476l20 171h735l-12 -92q-2 -24 -12 -45t-25 -39l-559 -697h485 l-19 -171h-749zM1365 1475h139q13 0 24.5 -5.5t16.5 -11.5l95 -125q4 -5 7.5 -10.5t8.5 -12.5q9 12 21 23l123 125q8 5 20 11t25 6h135l-245 -278h-189z" />
<glyph unicode="&#x1c7;" horiz-adv-x="1824" d="M89 0l181 1475h231l-158 -1281h558l-23 -194h-789zM958 11l18 137q2 18 13 31.5t35 13.5q23 0 54.5 -8t83.5 -8q50 0 93.5 17t78 55t58 99t34.5 148l119 979h231l-119 -973q-15 -123 -55 -219.5t-102.5 -163t-147.5 -101t-191 -34.5q-55 0 -104 6.5t-99 20.5z" />
<glyph unicode="&#x1c8;" horiz-adv-x="1484" d="M86 0l181 1475h231l-158 -1281h558l-23 -194h-789zM815 -351l21 120q6 20 20 23t49 3t60 8.5t42.5 26t28 46.5t15.5 70l134 1098h215l-134 -1098q-8 -66 -32.5 -124t-66 -101t-100 -67.5t-133.5 -24.5q-39 0 -66 5.5t-53 14.5zM1176 1360q0 30 12 57t32 47t45 31.5 t52 11.5q28 0 53.5 -11.5t45.5 -31.5t32.5 -46.5t12.5 -57.5q0 -30 -12.5 -56.5t-33 -46.5t-46.5 -32t-54 -12q-27 0 -51.5 12t-44 32t-31.5 46.5t-12 56.5z" />
<glyph unicode="&#x1c9;" horiz-adv-x="978" d="M54 0l184 1516h217l-185 -1516h-216zM310 -351l21 120q6 20 20 23t49 3t60 8.5t42.5 26t28 46.5t15.5 70l134 1098h215l-134 -1098q-8 -66 -32.5 -124t-66 -101t-100 -67.5t-133.5 -24.5q-39 0 -66 5.5t-53 14.5zM671 1360q0 30 12 57t32 47t45 31.5t52 11.5 q28 0 53.5 -11.5t45.5 -31.5t32.5 -46.5t12.5 -57.5q0 -30 -12.5 -56.5t-33 -46.5t-46.5 -32t-54 -12q-27 0 -51.5 12t-44 32t-31.5 46.5t-12 56.5z" />
<glyph unicode="&#x1ca;" horiz-adv-x="2277" d="M89 0l181 1475h120q31 0 45 -6.5t28 -31.5l603 -1061q3 56 9 100l123 999h204l-182 -1475h-117q-28 0 -45.5 9.5t-32.5 32.5l-601 1061q-2 -24 -3.5 -45t-3.5 -39l-125 -1019h-203zM1411 11l18 137q2 18 13 31.5t35 13.5q23 0 54.5 -8t83.5 -8q50 0 93.5 17t78 55t58 99 t34.5 148l119 979h231l-119 -973q-15 -123 -55 -219.5t-102.5 -163t-147.5 -101t-191 -34.5q-55 0 -104 6.5t-99 20.5z" />
<glyph unicode="&#x1cb;" horiz-adv-x="1937" d="M86 0l181 1475h120q31 0 45 -6.5t28 -31.5l603 -1061q3 56 9 100l123 999h204l-182 -1475h-117q-28 0 -45.5 9.5t-32.5 32.5l-601 1061q-2 -24 -3.5 -45t-3.5 -39l-125 -1019h-203zM1268 -351l21 120q6 20 20 23t49 3t60 8.5t42.5 26t28 46.5t15.5 70l134 1098h215 l-134 -1098q-8 -66 -32.5 -124t-66 -101t-100 -67.5t-133.5 -24.5q-39 0 -66 5.5t-53 14.5zM1629 1360q0 30 12 57t32 47t45 31.5t52 11.5q28 0 53.5 -11.5t45.5 -31.5t32.5 -46.5t12.5 -57.5q0 -30 -12.5 -56.5t-33 -46.5t-46.5 -32t-54 -12q-27 0 -51.5 12t-44 32 t-31.5 46.5t-12 56.5z" />
<glyph unicode="&#x1cc;" horiz-adv-x="1558" d="M51 0l125 1047h111q36 0 54.5 -18t18.5 -56l-10 -165q81 127 181.5 190t206.5 63q66 0 117 -26t84 -77t45 -124.5t1 -168.5l-79 -665h-219l79 665q14 112 -13 162.5t-98 50.5q-45 0 -92.5 -26t-91 -72.5t-81.5 -112.5t-62 -147l-58 -520h-219zM889 -351l21 120 q6 20 20 23t49 3t60 8.5t42.5 26t28 46.5t15.5 70l134 1098h215l-134 -1098q-8 -66 -32.5 -124t-66 -101t-100 -67.5t-133.5 -24.5q-39 0 -66 5.5t-53 14.5zM1250 1360q0 30 12 57t32 47t45 31.5t52 11.5q28 0 53.5 -11.5t45.5 -31.5t32.5 -46.5t12.5 -57.5 q0 -30 -12.5 -56.5t-33 -46.5t-46.5 -32t-54 -12q-27 0 -51.5 12t-44 32t-31.5 46.5t-12 56.5z" />
<glyph unicode="&#x1cd;" horiz-adv-x="1312" d="M-75 0l718 1475h235l356 -1475h-178q-31 0 -48 15t-24 39l-70 331h-574l-152 -331q-10 -22 -32 -38t-51 -16h-180zM417 551h463l-117 552q-5 32 -13 73t-15 90q-17 -49 -34.5 -90.5t-31.5 -74.5zM474 1865h148q12 0 30 -4t29 -24l83 -135q3 -5 5.5 -10t4.5 -11 q4 5 7.5 10.5t8.5 10.5l112 134q16 20 34.5 24.5t32.5 4.5h146l-258 -281h-188z" />
<glyph unicode="&#x1ce;" horiz-adv-x="1057" d="M43 355q0 93 23.5 182t66.5 167t103.5 143.5t135 113t161.5 73.5t182 26q69 0 136.5 -11t131.5 -37l-125 -1012h-116q-42 0 -57 21.5t-15 53.5l13 169q-36 -59 -76.5 -107t-85.5 -81.5t-95 -52t-104 -18.5q-60 0 -111.5 23.5t-88.5 70.5t-58 116t-21 160zM262 395 q0 -117 37.5 -172.5t106.5 -55.5q46 0 90 30t83 83t73 124.5t59 155.5l42 337q-17 2 -34.5 3t-34.5 1q-88 0 -165.5 -41t-134 -110.5t-89.5 -161t-33 -193.5zM447 1475h139q13 0 24.5 -5.5t16.5 -11.5l95 -125q4 -5 7.5 -10.5t8.5 -12.5q9 12 21 23l123 125q8 5 20 11t25 6 h135l-245 -278h-189z" />
<glyph unicode="&#x1cf;" horiz-adv-x="562" d="M89 0l180 1475h232l-180 -1475h-232zM110 1865h147q12 0 30 -4t29 -24l83 -135l6 -10t5 -11q4 5 7.5 10.5t7.5 10.5l113 134q16 20 34.5 24.5t31.5 4.5h147l-258 -281h-189z" />
<glyph unicode="&#x1d0;" horiz-adv-x="487" d="M30 1475h139q13 0 24.5 -5.5t16.5 -11.5l95 -125q4 -5 7.5 -10.5t8.5 -12.5q9 12 21 23l123 125q8 5 20 11t25 6h135l-245 -278h-189zM60 0l125 1044h217l-126 -1044h-216z" />
<glyph unicode="&#x1d1;" horiz-adv-x="1534" d="M91 634q0 124 27 235.5t76.5 206.5t120 172t157.5 131t188.5 83t213.5 29q138 0 249 -49t189 -136.5t119.5 -207t41.5 -259.5q0 -123 -27 -234.5t-76.5 -206.5t-120 -171t-157.5 -130t-188.5 -83t-214.5 -29q-138 0 -249 49t-188.5 135.5t-119 205.5t-41.5 259zM328 641 q0 -105 26.5 -190.5t76 -146.5t121.5 -94t163 -33q117 0 212.5 46.5t164 132t106 207t37.5 271.5q0 105 -26.5 190.5t-77 146.5t-122.5 93.5t-162 32.5q-116 0 -211.5 -46.5t-164 -132.5t-106 -207t-37.5 -270zM610 1865h148q12 0 30 -4t29 -24l83 -135q3 -5 5.5 -10 t4.5 -11q4 5 8 10.5t8 10.5l112 134q16 20 35 24.5t32 4.5h146l-258 -281h-188z" />
<glyph unicode="&#x1d2;" horiz-adv-x="1067" d="M52 421q0 134 42.5 250.5t116.5 203.5t172.5 136.5t211.5 49.5q86 0 158.5 -29.5t125 -85t82 -137t29.5 -184.5q0 -88 -19.5 -170t-54 -153.5t-84.5 -129.5t-109.5 -99.5t-129 -64.5t-144.5 -23q-86 0 -159 29t-125.5 85t-82.5 137t-30 185zM272 423q0 -266 196 -266 q69 0 125 38t95.5 102.5t61 149t21.5 177.5q0 135 -49.5 200t-147.5 65q-70 0 -125.5 -38t-94.5 -101.5t-60.5 -148.5t-21.5 -178zM337 1475h139q13 0 24.5 -5.5t16.5 -11.5l95 -125q4 -5 7.5 -10.5t8.5 -12.5q9 12 21 23l123 125q8 5 20 11t25 6h135l-245 -278h-189z" />
<glyph unicode="&#x1d3;" horiz-adv-x="1410" d="M144 584l108 891h230l-108 -891q-11 -88 2 -161.5t48.5 -126t92 -82t133.5 -29.5t141 29.5t112.5 82t79.5 126t42 161.5l110 891h230l-109 -891q-16 -129 -68 -239.5t-134 -190.5t-190.5 -125.5t-237.5 -45.5t-226.5 45.5t-159.5 125.5t-87 190.5t-9 239.5zM531 1865h148 q12 0 30 -4t29 -24l83 -135q3 -5 5.5 -10t4.5 -11q4 5 8 10.5t8 10.5l112 134q16 20 35 24.5t32 4.5h146l-258 -281h-188z" />
<glyph unicode="&#x1d4;" d="M87 381l79 663h219l-79 -663q-14 -112 13 -163t98 -51q43 0 89 24t89 68t80 106.5t62 139.5l65 539h219l-126 -1044h-110q-80 0 -79 78l10 150q-80 -122 -179 -182.5t-203 -60.5q-66 0 -117 26t-84 76.5t-45 124.5t-1 169zM340 1475h139q13 0 24.5 -5.5t16.5 -11.5 l95 -125q4 -5 7.5 -10.5t8.5 -12.5q9 12 21 23l123 125q8 5 20 11t25 6h135l-245 -278h-189z" />
<glyph unicode="&#x1d5;" horiz-adv-x="1410" d="M144 584l108 891h230l-108 -891q-11 -88 2 -161.5t48.5 -126t92 -82t133.5 -29.5t141 29.5t112.5 82t79.5 126t42 161.5l110 891h230l-109 -891q-16 -129 -68 -239.5t-134 -190.5t-190.5 -125.5t-237.5 -45.5t-226.5 45.5t-159.5 125.5t-87 190.5t-9 239.5zM513 1704 q0 27 10 51t27.5 42t40.5 28t49 10q27 0 50 -10t41 -28t29 -42t11 -51t-11 -50t-29 -40t-41.5 -27t-49.5 -10t-49 10t-40.5 27t-27.5 40t-10 50zM586 1906l14 129h546l-13 -129h-547zM912 1704q0 27 10 51t27.5 42t40.5 28t50 10t50.5 -10t41 -28t28 -42t10.5 -51t-10.5 -50 t-28 -40t-41 -27t-50.5 -10t-50 10t-40.5 27t-27.5 40t-10 50z" />
<glyph unicode="&#x1d6;" d="M87 381l79 663h219l-79 -663q-14 -112 13 -163t98 -51q43 0 89 24t89 68t80 106.5t62 139.5l65 539h219l-126 -1044h-110q-80 0 -79 78l10 150q-80 -122 -179 -182.5t-203 -60.5q-66 0 -117 26t-84 76.5t-45 124.5t-1 169zM317 1322q0 27 10 51t27.5 42t40.5 28t49 10 q27 0 50.5 -10t41 -28t28.5 -42t11 -51t-11 -50t-28.5 -40t-41.5 -27t-50 -10t-49 10t-40.5 27t-27.5 40t-10 50zM390 1579l16 142h552l-17 -142h-551zM699 1322q0 27 10 51t27.5 42t40.5 28t50 10t50.5 -10t41 -28t28 -42t10.5 -51t-10.5 -50t-28 -40t-41.5 -27t-50 -10 q-27 0 -50 10t-40.5 27t-27.5 40t-10 50z" />
<glyph unicode="&#x1d7;" horiz-adv-x="1410" d="M144 584l108 891h230l-108 -891q-11 -88 2 -161.5t48.5 -126t92 -82t133.5 -29.5t141 29.5t112.5 82t79.5 126t42 161.5l110 891h230l-109 -891q-16 -129 -68 -239.5t-134 -190.5t-190.5 -125.5t-237.5 -45.5t-226.5 45.5t-159.5 125.5t-87 190.5t-9 239.5zM513 1704 q0 27 10 51t27.5 42t40.5 28t49 10q27 0 50 -10t41 -28t29 -42t11 -51t-11 -50t-29 -40t-41.5 -27t-49.5 -10t-49 10t-40.5 27t-27.5 40t-10 50zM751 1874l239 280q10 13 19 20t19.5 11.5t23 5.5t30.5 1h225l-338 -293q-19 -16 -34.5 -20.5t-39.5 -4.5h-144zM912 1704 q0 27 10 51t27.5 42t40.5 28t50 10t50.5 -10t41 -28t28 -42t10.5 -51t-10.5 -50t-28 -40t-41 -27t-50.5 -10t-50 10t-40.5 27t-27.5 40t-10 50z" />
<glyph unicode="&#x1d8;" d="M87 381l79 663h219l-79 -663q-14 -112 13 -163t98 -51q43 0 89 24t89 68t80 106.5t62 139.5l65 539h219l-126 -1044h-110q-80 0 -79 78l10 150q-80 -122 -179 -182.5t-203 -60.5q-66 0 -117 26t-84 76.5t-45 124.5t-1 169zM318 1322q0 27 10 51t27.5 42t40.5 28t49 10 q27 0 50.5 -10t41 -28t28.5 -42t11 -51t-11 -50t-28.5 -40t-41.5 -27t-50 -10t-49 10t-40.5 27t-27.5 40t-10 50zM548 1519l164 248q16 26 35 38t54 12h197l-258 -265q-17 -18 -32 -25.5t-39 -7.5h-121zM700 1322q0 27 10 51t27.5 42t40.5 28t50 10t50.5 -10t41 -28t28 -42 t10.5 -51t-10.5 -50t-28 -40t-41.5 -27t-50 -10q-27 0 -50 10t-40.5 27t-27.5 40t-10 50z" />
<glyph unicode="&#x1d9;" horiz-adv-x="1410" d="M144 584l108 891h230l-108 -891q-11 -88 2 -161.5t48.5 -126t92 -82t133.5 -29.5t141 29.5t112.5 82t79.5 126t42 161.5l110 891h230l-109 -891q-16 -129 -68 -239.5t-134 -190.5t-190.5 -125.5t-237.5 -45.5t-226.5 45.5t-159.5 125.5t-87 190.5t-9 239.5zM513 1704 q0 27 10.5 51t27.5 42t40 28t49 10q27 0 50.5 -10t41.5 -28t28.5 -42t10.5 -51t-10.5 -50t-28.5 -40t-41.5 -27t-50.5 -10q-26 0 -49 10t-40 27t-27.5 40t-10.5 50zM566 2154h148q12 0 30 -4t29 -23l83 -135q3 -5 5.5 -10.5t4.5 -10.5q4 5 8 10.5t8 10.5l112 134 q16 20 35 24t32 4h146l-258 -280h-188zM912 1704q0 27 10.5 51t28 42t40.5 28t49 10q27 0 50.5 -10t41.5 -28t28 -42t10 -51t-10 -50t-28 -40t-41.5 -27t-50.5 -10t-49.5 10t-40 27t-28 40t-10.5 50z" />
<glyph unicode="&#x1da;" d="M87 381l79 663h219l-79 -663q-14 -112 13 -163t98 -51q43 0 89 24t89 68t80 106.5t62 139.5l65 539h219l-126 -1044h-110q-80 0 -79 78l10 150q-80 -122 -179 -182.5t-203 -60.5q-66 0 -117 26t-84 76.5t-45 124.5t-1 169zM317 1322q0 27 10 51t27.5 42t40.5 28t49 10 q27 0 50.5 -10t41 -28t28.5 -42t11 -51t-11 -50t-28.5 -40t-41.5 -27t-50 -10t-49 10t-40.5 27t-27.5 40t-10 50zM383 1802h141q13 0 23.5 -5t16.5 -11l95 -125q7 -8 15 -24q5 7 11 13l11 11l123 125q8 6 20 11t25 5h135l-245 -277h-188zM699 1322q0 27 10 51t27.5 42 t40.5 28t50 10t50.5 -10t41 -28t28 -42t10.5 -51t-10.5 -50t-28 -40t-41.5 -27t-50 -10q-27 0 -50 10t-40.5 27t-27.5 40t-10 50z" />
<glyph unicode="&#x1db;" horiz-adv-x="1410" d="M144 584l108 891h230l-108 -891q-11 -88 2 -161.5t48.5 -126t92 -82t133.5 -29.5t141 29.5t112.5 82t79.5 126t42 161.5l110 891h230l-109 -891q-16 -129 -68 -239.5t-134 -190.5t-190.5 -125.5t-237.5 -45.5t-226.5 45.5t-159.5 125.5t-87 190.5t-9 239.5zM467 2192h213 q17 0 29.5 -1t22.5 -5.5t17.5 -12t15.5 -19.5l178 -280h-146q-24 0 -37.5 3t-27.5 20zM513 1704q0 27 10 51t27.5 42t40.5 28t49 10q27 0 50 -10t41 -28t29 -42t11 -51t-11 -50t-29 -40t-41.5 -27t-49.5 -10t-49 10t-40.5 27t-27.5 40t-10 50zM912 1704q0 27 10 51t27.5 42 t40.5 28t50 10t50.5 -10t41 -28t28 -42t10.5 -51t-10.5 -50t-28 -40t-41 -27t-50.5 -10t-50 10t-40.5 27t-27.5 40t-10 50z" />
<glyph unicode="&#x1dc;" d="M87 381l79 663h219l-79 -663q-14 -112 13 -163t98 -51q43 0 89 24t89 68t80 106.5t62 139.5l65 539h219l-126 -1044h-110q-80 0 -79 78l10 150q-80 -122 -179 -182.5t-203 -60.5q-66 0 -117 26t-84 76.5t-45 124.5t-1 169zM316 1322q0 27 10 51t27.5 42t40.5 28t49 10 q27 0 50.5 -10t41 -28t28.5 -42t11 -51t-11 -50t-28.5 -40t-41.5 -27t-50 -10t-49 10t-40.5 27t-27.5 40t-10 50zM384 1819h191q35 0 50.5 -12.5t26.5 -37.5l108 -248h-114q-24 0 -38 7.5t-27 24.5zM698 1322q0 27 10 51t27.5 42t40.5 28t50 10t50.5 -10t41 -28t28 -42 t10.5 -51t-10.5 -50t-28 -40t-41.5 -27t-50 -10q-27 0 -50 10t-40.5 27t-27.5 40t-10 50z" />
<glyph unicode="&#x1dd;" horiz-adv-x="990" d="M46 234q0 69 28 126.5t101 103.5t200 80t323 54q1 6 1 12.5v14.5q0 130 -55.5 196t-168.5 66q-71 0 -118 -19.5t-80 -42.5t-58 -42.5t-53 -19.5q-11 0 -21.5 5.5t-18.5 14.5l-55 68q53 54 103.5 93.5t104.5 65t112.5 38t126.5 12.5q90 0 163.5 -31t124.5 -86.5t79 -135 t28 -177.5q0 -82 -17 -161.5t-50.5 -151t-81 -132.5t-109 -105t-135 -69t-156.5 -25q-81 0 -140.5 23t-99 58.5t-59 80.5t-19.5 86zM244 243q0 -17 7 -35t23 -32.5t41 -24t61 -9.5q57 0 105.5 23.5t87 65t67 98.5t44.5 125q-141 -18 -227 -41t-133 -49.5t-61.5 -57 t-14.5 -63.5z" />
<glyph unicode="&#x1de;" horiz-adv-x="1312" d="M-75 0l718 1475h235l356 -1475h-178q-31 0 -48 15t-24 39l-70 331h-574l-152 -331q-10 -22 -32 -38t-51 -16h-180zM417 551h463l-117 552q-5 32 -13 73t-15 90q-17 -49 -34.5 -90.5t-31.5 -74.5zM459 1704q0 27 10 51t27.5 42t40.5 28t49 10q27 0 50 -10t41 -28t29 -42 t11 -51t-11 -50t-29 -40t-41.5 -27t-49.5 -10t-49 10t-40.5 27t-27.5 40t-10 50zM535 1906l14 129h546l-13 -129h-547zM858 1704q0 27 10 51t27.5 42t40.5 28t50 10t50.5 -10t41 -28t28 -42t10.5 -51t-10.5 -50t-28 -40t-41 -27t-50.5 -10t-50 10t-40.5 27t-27.5 40t-10 50z " />
<glyph unicode="&#x1df;" horiz-adv-x="1057" d="M43 355q0 93 23.5 182t66.5 167t103.5 143.5t135 113t161.5 73.5t182 26q69 0 136.5 -11t131.5 -37l-125 -1012h-116q-42 0 -57 21.5t-15 53.5l13 169q-36 -59 -76.5 -107t-85.5 -81.5t-95 -52t-104 -18.5q-60 0 -111.5 23.5t-88.5 70.5t-58 116t-21 160zM262 395 q0 -117 37.5 -172.5t106.5 -55.5q46 0 90 30t83 83t73 124.5t59 155.5l42 337q-17 2 -34.5 3t-34.5 1q-88 0 -165.5 -41t-134 -110.5t-89.5 -161t-33 -193.5zM392 1322q0 27 10 51t27.5 42t40.5 28t49 10q27 0 50.5 -10t41 -28t28.5 -42t11 -51t-11 -50t-28.5 -40t-41.5 -27 t-50 -10t-49 10t-40.5 27t-27.5 40t-10 50zM465 1579l16 142h552l-17 -142h-551zM774 1322q0 27 10 51t27.5 42t40.5 28t50 10t50.5 -10t41 -28t28 -42t10.5 -51t-10.5 -50t-28 -40t-41.5 -27t-50 -10q-27 0 -50 10t-40.5 27t-27.5 40t-10 50z" />
<glyph unicode="&#x1e0;" horiz-adv-x="1312" d="M-75 0l718 1475h235l356 -1475h-178q-31 0 -48 15t-24 39l-70 331h-574l-152 -331q-10 -22 -32 -38t-51 -16h-180zM417 551h463l-117 552q-5 32 -13 73t-15 90q-17 -49 -34.5 -90.5t-31.5 -74.5zM528 1948l14 129h546l-13 -129h-547zM648 1733q0 30 12 57t31.5 47 t44.5 31.5t52 11.5q28 0 54 -11.5t46 -31.5t32 -46.5t12 -57.5q0 -30 -12.5 -56.5t-33 -46.5t-46 -32t-53.5 -12t-52.5 12t-43.5 32t-31 46.5t-12 56.5z" />
<glyph unicode="&#x1e1;" horiz-adv-x="1057" d="M43 355q0 93 23.5 182t66.5 167t103.5 143.5t135 113t161.5 73.5t182 26q69 0 136.5 -11t131.5 -37l-125 -1012h-116q-42 0 -57 21.5t-15 53.5l13 169q-36 -59 -76.5 -107t-85.5 -81.5t-95 -52t-104 -18.5q-60 0 -111.5 23.5t-88.5 70.5t-58 116t-21 160zM262 395 q0 -117 37.5 -172.5t106.5 -55.5q46 0 90 30t83 83t73 124.5t59 155.5l42 337q-17 2 -34.5 3t-34.5 1q-88 0 -165.5 -41t-134 -110.5t-89.5 -161t-33 -193.5zM463 1578l15 143h554l-17 -143h-552zM589 1360q0 30 12 57t31.5 47t45 31.5t51.5 11.5q28 0 54 -11.5t46 -31.5 t32 -46.5t12 -57.5q0 -30 -12.5 -56.5t-33 -46.5t-46 -32t-53.5 -12t-52.5 12t-43.5 32t-31 46.5t-12 56.5z" />
<glyph unicode="&#x1e2;" horiz-adv-x="1780" d="M-74 0l869 1475h1005l-22 -188h-682v-454h499l-21 -181h-478v-465h546l-23 -187h-740v385h-497l-188 -331q-12 -22 -35.5 -38t-53.5 -16h-179zM476 551h403v734q-16 -43 -34 -79.5t-36 -68.5zM1058 1616l14 129h546l-13 -129h-547z" />
<glyph unicode="&#x1e3;" horiz-adv-x="1525" d="M11 232q0 71 31.5 137t104 119t192.5 86t297 38l6 52q14 115 -22 170.5t-119 55.5q-58 0 -99 -16t-72 -34.5t-56 -34t-51 -15.5q-22 0 -36 11t-22 27l-29 69q91 83 185.5 124.5t203.5 41.5t172 -45.5t89 -125.5q62 80 149.5 124t198.5 44q63 0 117.5 -20.5t94 -56 t62.5 -82.5t23 -101q0 -57 -27 -113t-95.5 -101.5t-186.5 -75t-303 -33.5v-22q0 -151 59 -224t163 -73q71 0 118 19.5t80.5 42.5t58.5 42.5t53 19.5q22 0 40 -21l55 -67q-53 -54 -104 -94t-104.5 -65.5t-112 -37.5t-127.5 -12q-103 0 -185 54t-125 164q-34 -58 -79 -100.5 t-95.5 -68.5t-104 -38t-103.5 -12q-144 0 -219.5 63t-75.5 185zM216 260q0 -66 35 -97t95 -31q49 0 93 17t79.5 52.5t59.5 89.5t33 128l9 61q-115 -5 -192.5 -23t-124.5 -46.5t-67 -66.5t-20 -84zM541 1251l15 143h554l-17 -143h-552zM831 604q123 8 202.5 25.5t125 41.5 t63 54.5t17.5 62.5q0 51 -33.5 83.5t-99.5 32.5q-57 0 -103 -21.5t-80 -60.5t-57 -94t-35 -124z" />
<glyph unicode="&#x1e4;" horiz-adv-x="1433" d="M92 635q0 188 58.5 345.5t164.5 271t254 176.5t326 63q83 0 152 -14t126.5 -38.5t104 -59t84.5 -77.5l-79 -106q-19 -25 -45 -31t-52 13q-27 16 -55 36t-65 37t-86 28t-117 11q-119 0 -217 -45.5t-168.5 -130t-109.5 -203.5t-39 -267q0 -111 28 -199t80 -148.5t126 -93.5 t164 -33q47 0 87.5 5t76.5 14.5t69.5 22.5t66.5 31l12 100h-186q-22 0 -33.5 12.5t-9.5 31.5l15 117h234l14 114h-186q-23 0 -34 13t-9 33l15 117h444l-34 -277h141l-19 -162h-143l-24 -200q-56 -40 -115.5 -69.5t-125 -49.5t-139 -29.5t-157.5 -9.5q-134 0 -244 48.5 t-188 135t-120.5 206t-42.5 261.5z" />
<glyph unicode="&#x1e5;" horiz-adv-x="1059" d="M-98 -133l17 140h91q34 68 102.5 110t154 62.5t179.5 22.5t177 -11q-6 17 -10 35.5t-4 38.5q0 31 9 64t28 72q-40 -27 -88 -41t-114 -14q-59 0 -112 19.5t-93 58.5t-63 97.5t-23 136.5q0 75 27.5 148t82 129t135 91t185.5 35q56 0 106.5 -13.5t93.5 -39.5h289l-9 -73 q-6 -45 -46 -58l-117 -27q6 -23 9.5 -48.5t3.5 -52.5q0 -49 -10.5 -88t-27 -72.5t-35.5 -63t-34.5 -59.5t-26.5 -62t-11 -70q0 -42 18.5 -77t41 -72t42 -79.5t19.5 -98.5h97l-17 -140h-112q-25 -51 -68 -94.5t-101.5 -75t-133 -49.5t-161.5 -18q-88 0 -160 17.5t-124.5 49 t-84 75t-37.5 95.5h-85zM193 -86q3 -63 58 -96.5t161 -33.5q96 0 164 36t96 94h-479zM200 -40h487q1 7 1.5 13.5t0.5 13.5q0 38 -9 70q-113 18 -197 18t-142.5 -15t-93.5 -41t-47 -59zM352 656q0 -84 40 -129.5t114 -45.5q50 0 88.5 22.5t64.5 59.5t40 83.5t14 93.5 q0 83 -40.5 126t-114.5 43q-50 0 -88.5 -21t-64.5 -56t-39.5 -80.5t-13.5 -95.5z" />
<glyph unicode="&#x1e6;" horiz-adv-x="1390" d="M91 635q0 188 60 345.5t165 271t249.5 176.5t313.5 63q88 0 159.5 -15.5t129.5 -42t104 -62.5t84 -77l-74 -96q-18 -27 -44 -32.5t-52 12.5q-27 16 -55 36t-65.5 37.5t-86.5 28.5t-117 11q-119 0 -217 -46t-168.5 -131t-109.5 -204.5t-39 -266.5q0 -111 28 -198.5 t80 -148t125.5 -93.5t163.5 -33q95 0 166 19.5t136 53.5l37 304h-183q-22 0 -33.5 12t-9.5 31l15 132h441l-71 -580q-56 -40 -115.5 -69.5t-125.5 -49.5t-139 -29.5t-157 -9.5q-134 0 -244 48.5t-188 135t-120.5 206.5t-42.5 261zM608 1865h148q12 0 30 -4t29 -24l83 -135 q3 -5 5.5 -10t4.5 -11q4 5 8 10.5t8 10.5l112 134q16 20 35 24.5t32 4.5h146l-258 -281h-188z" />
<glyph unicode="&#x1e7;" horiz-adv-x="1010" d="M-61 -106q0 69 29 120.5t78 87.5t113.5 58.5t136 33t144 9t138.5 -12.5q-6 17 -10.5 36t-4.5 39q0 31 9 64t28 72q-39 -27 -87.5 -41t-114.5 -14q-59 0 -112.5 19.5t-93 58.5t-63 97.5t-23.5 136.5q0 75 28 148t82.5 129t135 91t185.5 35q57 0 107.5 -13.5t92.5 -39.5 h289l-9 -73q-6 -45 -46 -58l-116 -26q6 -24 9.5 -49t3.5 -53q0 -49 -11 -88t-27.5 -72.5t-35.5 -63t-35 -59.5t-26.5 -62t-10.5 -70q0 -42 19 -77.5t42 -73t42 -80.5t19 -99q-1 -76 -35.5 -143.5t-98.5 -118.5t-155.5 -81.5t-207.5 -30.5q-93 0 -169 19.5t-129 54.5 t-81.5 83t-28.5 107zM147 -80q0 -67 55.5 -101.5t163.5 -34.5q62 0 113 16t87.5 43.5t56.5 64.5t20 79q0 38 -9 70q-129 22 -220.5 18.5t-151 -25t-87.5 -56t-28 -74.5zM277 1475h139q13 0 24.5 -5.5t16.5 -11.5l95 -125q4 -5 7.5 -10.5t8.5 -12.5q9 12 21 23l123 125 q8 5 20 11t25 6h135l-245 -278h-189zM307 656q0 -84 39.5 -129.5t113.5 -45.5q50 0 88.5 22.5t64.5 59.5t40 83.5t15 93.5q0 83 -41 126t-115 43q-50 0 -88 -21t-64 -56t-39.5 -80.5t-13.5 -95.5z" />
<glyph unicode="&#x1e8;" horiz-adv-x="1291" d="M89 0l180 1476h231l-79 -636h62q36 0 60 10.5t45 34.5l466 537q24 31 51 42t62 11h197l-553 -627q-42 -51 -85 -72q28 -11 48.5 -30t36.5 -52l408 -694h-202q-43 0 -61 12.5t-30 34.5l-343 567q-14 27 -36 38.5t-66 11.5h-82l-81 -664h-229zM488 1865h148q12 0 30 -4 t29 -24l83 -135l10 -21l16 21l112 134q16 20 35 24.5t32 4.5h146l-258 -281h-188z" />
<glyph unicode="&#x1e9;" horiz-adv-x="999" d="M48 0l186 1516h217l-108 -879h29q23 0 36.5 6.5t29.5 25.5l310 335q16 20 34 30t44 10h196l-373 -397q-32 -39 -70 -62q17 -14 30 -32.5t24 -41.5l283 -511h-189q-26 0 -42 8.5t-27 32.5l-232 410q-11 24 -24.5 30t-42.5 6h-34l-60 -487h-217zM61 1865h148q12 0 30 -4 t29 -24l83 -135l10 -21l16 21l112 134q16 20 35 24.5t32 4.5h146l-258 -281h-188z" />
<glyph unicode="&#x1ea;" horiz-adv-x="1536" d="M91 634q0 124 27 235.5t76.5 206.5t120 172t157.5 131t188.5 83t213.5 29q138 0 249 -49t189 -136.5t119.5 -207t41.5 -259.5q0 -166 -48 -309.5t-134 -254t-205 -183t-262 -96.5q-20 -12 -40 -28.5t-36.5 -36t-26 -42t-9.5 -48.5q0 -29 16 -45.5t46 -16.5q18 0 30.5 3 t21 6t13.5 6t10 3q15 0 19 -14l24 -82q-33 -24 -80.5 -38t-98.5 -14q-84 0 -128.5 36t-44.5 96q0 57 35 109t99 95q-135 3 -243 52.5t-183.5 136.5t-116 204.5t-40.5 255.5zM328 641q0 -105 26.5 -190.5t76 -146.5t121.5 -94t163 -33q117 0 212.5 46.5t164 132t106 207 t37.5 271.5q0 105 -26.5 190.5t-77 146.5t-122.5 93.5t-162 32.5q-116 0 -211.5 -46.5t-164 -132.5t-106 -207.5t-37.5 -269.5z" />
<glyph unicode="&#x1eb;" horiz-adv-x="1067" d="M52 421q0 134 42.5 250.5t116.5 203.5t172.5 136.5t211.5 49.5q86 0 158.5 -29.5t125 -85t82 -137t29.5 -184.5q0 -116 -32 -219t-89 -185.5t-135 -140t-169 -81.5q-22 -12 -42.5 -28t-37.5 -36t-28 -43.5t-11 -50.5q0 -29 16.5 -45.5t46.5 -16.5q18 0 30.5 3t20.5 6 t13.5 6t10.5 3q15 0 19 -14l24 -82q-33 -24 -80.5 -38t-99.5 -14q-84 0 -128.5 36t-44.5 96q0 58 36 110t101 95q-79 6 -144.5 38t-113.5 87.5t-74.5 133.5t-26.5 176zM272 423q0 -266 196 -266q69 0 125 38t95.5 102.5t61 149t21.5 177.5q0 135 -49.5 200t-147.5 65 q-70 0 -125.5 -38t-94.5 -101.5t-60.5 -148.5t-21.5 -178z" />
<glyph unicode="&#x1ec;" horiz-adv-x="1536" d="M91 634q0 124 27 235.5t76.5 206.5t120 172t157.5 131t188.5 83t213.5 29q138 0 249 -49t189 -136.5t119.5 -207t41.5 -259.5q0 -166 -48 -309.5t-134 -254t-205 -183t-262 -96.5q-20 -12 -40 -28.5t-36.5 -36t-26 -42t-9.5 -48.5q0 -29 16 -45.5t46 -16.5q18 0 30.5 3 t21 6t13.5 6t10 3q15 0 19 -14l24 -82q-33 -24 -80.5 -38t-98.5 -14q-84 0 -128.5 36t-44.5 96q0 57 35 109t99 95q-135 3 -243 52.5t-183.5 136.5t-116 204.5t-40.5 255.5zM328 641q0 -105 26.5 -190.5t76 -146.5t121.5 -94t163 -33q117 0 212.5 46.5t164 132t106 207 t37.5 271.5q0 105 -26.5 190.5t-77 146.5t-122.5 93.5t-162 32.5q-116 0 -211.5 -46.5t-164 -132.5t-106 -207.5t-37.5 -269.5zM650 1616l15 129h545l-13 -129h-547z" />
<glyph unicode="&#x1ed;" horiz-adv-x="1067" d="M52 421q0 134 42.5 250.5t116.5 203.5t172.5 136.5t211.5 49.5q86 0 158.5 -29.5t125 -85t82 -137t29.5 -184.5q0 -116 -32 -219t-89 -185.5t-135 -140t-169 -81.5q-22 -12 -42.5 -28t-37.5 -36t-28 -43.5t-11 -50.5q0 -29 16.5 -45.5t46.5 -16.5q18 0 30.5 3t20.5 6 t13.5 6t10.5 3q15 0 19 -14l24 -82q-33 -24 -80.5 -38t-99.5 -14q-84 0 -128.5 36t-44.5 96q0 58 36 110t101 95q-79 6 -144.5 38t-113.5 87.5t-74.5 133.5t-26.5 176zM272 423q0 -266 196 -266q69 0 125 38t95.5 102.5t61 149t21.5 177.5q0 135 -49.5 200t-147.5 65 q-70 0 -125.5 -38t-94.5 -101.5t-60.5 -148.5t-21.5 -178zM373 1251l15 143h554l-17 -143h-552z" />
<glyph unicode="&#x1ee;" horiz-adv-x="1120" d="M-8 190l95 103q13 14 23.5 15.5t17.5 1.5q12 0 22.5 -4t28.5 -21q14 -17 40 -36t61 -34t78 -25t93 -10q83 0 145.5 28t104 75t62.5 108.5t21 128.5q0 47 -17.5 88t-55.5 72t-97.5 48t-142.5 17h-150l12 100q2 17 11.5 36.5t30.5 38.5l391 367h-602l22 188h913l-10 -86 q-2 -20 -11.5 -42t-34.5 -44l-420 -390q96 -6 170.5 -37t125.5 -81t77.5 -114.5t26.5 -136.5q0 -131 -48 -234.5t-128.5 -176t-187 -110.5t-223.5 -38q-129 0 -241.5 51t-202.5 154zM385 1865h147q12 0 30.5 -4t29.5 -24l83 -135q3 -5 5.5 -10t4.5 -11q4 5 7.5 10.5 t7.5 10.5l113 134q16 20 34.5 24.5t32.5 4.5h146l-258 -281h-188z" />
<glyph unicode="&#x1ef;" horiz-adv-x="840" d="M-133 -244l57 80q11 15 24.5 23.5t32.5 8.5q22 0 40.5 -13t43.5 -27.5t60.5 -27.5t88.5 -13q68 0 122 23.5t92.5 67.5t59.5 107t21 141q0 48 -13 88t-41 68.5t-72.5 44.5t-108.5 16h-159l6 47q1 14 3 23t5.5 16.5t10 16.5t19.5 23l344 409h-445l21 166h701l-9 -70 q-2 -20 -6 -34.5t-10.5 -27.5t-16 -24.5t-22.5 -26.5l-334 -376q86 -8 149.5 -36.5t105 -72.5t62 -102.5t20.5 -127.5q0 -105 -35 -199t-101.5 -165t-163 -112.5t-221.5 -41.5q-114 0 -196.5 36.5t-134.5 91.5zM164 1475h139q13 0 24.5 -5.5t16.5 -11.5l95 -125 q4 -5 7.5 -10.5t8.5 -12.5q9 12 21 23l123 125q8 5 20 11t25 6h135l-245 -278h-189z" />
<glyph unicode="&#x1f0;" horiz-adv-x="485" d="M-184 -351l21 120q6 20 20 23t49 3t60 8.5t42.5 26t28 46.5t15.5 70l134 1098h215l-134 -1098q-8 -66 -32.5 -124t-66 -101t-100 -67.5t-133.5 -24.5q-39 0 -66 5.5t-53 14.5zM30 1475h139q13 0 24.5 -5.5t16.5 -11.5l95 -125q4 -5 7.5 -10.5t8.5 -12.5q9 12 21 23 l123 125q8 5 20 11t25 6h135l-245 -278h-189z" />
<glyph unicode="&#x1f1;" horiz-adv-x="2597" d="M89 0l181 1475h515q138 0 249.5 -47.5t188.5 -132t119 -201t42 -255.5q0 -124 -26.5 -234t-75.5 -203.5t-119 -168t-156.5 -126.5t-188.5 -79.5t-215 -27.5h-514zM343 186h283q117 0 213 44.5t164.5 128t106.5 203.5t38 271q0 104 -26 188.5t-76 144t-121.5 91 t-161.5 31.5h-283zM1420 0l9 72q2 16 9.5 29.5t16.5 27.5l856 1158h-691l23 188h1002l-10 -73q-2 -16 -9.5 -30t-17.5 -29l-853 -1156h717l-24 -187h-1028z" />
<glyph unicode="&#x1f2;" horiz-adv-x="2318" d="M89 0l181 1475h515q138 0 249.5 -47.5t188.5 -132t119 -201t42 -255.5q0 -124 -26.5 -234t-75.5 -203.5t-119 -168t-156.5 -126.5t-188.5 -79.5t-215 -27.5h-514zM343 186h283q117 0 213 44.5t164.5 128t106.5 203.5t38 271q0 104 -26 188.5t-76 144t-121.5 91 t-161.5 31.5h-283zM1418 0l12 92q1 15 11 37.5t26 40.5l563 703h-476l20 171h735l-12 -92q-2 -24 -12 -45t-25 -39l-559 -697h485l-19 -171h-749z" />
<glyph unicode="&#x1f3;" horiz-adv-x="1972" d="M49 371q0 87 18 172t51 161.5t79.5 141.5t102.5 113t121 75t136 27q74 0 134.5 -27.5t103.5 -78.5l69 561h215l-187 -1516h-116q-42 0 -56.5 21.5t-14.5 53.5l13 178q-39 -61 -83 -110.5t-92.5 -84.5t-101 -54t-107.5 -19q-132 0 -208.5 96.5t-76.5 289.5zM266 393 q0 -116 40 -174t112 -58q45 0 92 29.5t90 82t80.5 124t63.5 155.5l32 257q-37 45 -86.5 63t-98.5 18q-74 0 -134 -44.5t-102.5 -116t-65.5 -160t-23 -176.5zM1071 0l12 92q1 15 11 37.5t26 40.5l563 703h-476l20 171h735l-12 -92q-2 -24 -12 -45t-25 -39l-559 -697h485 l-19 -171h-749z" />
<glyph unicode="&#x1f4;" horiz-adv-x="1390" d="M91 635q0 188 60 345.5t165 271t249.5 176.5t313.5 63q88 0 159.5 -15.5t129.5 -42t104 -62.5t84 -77l-74 -96q-18 -27 -44 -32.5t-52 12.5q-27 16 -55 36t-65.5 37.5t-86.5 28.5t-117 11q-119 0 -217 -46t-168.5 -131t-109.5 -204.5t-39 -266.5q0 -111 28 -198.5 t80 -148t125.5 -93.5t163.5 -33q95 0 166 19.5t136 53.5l37 304h-183q-22 0 -33.5 12t-9.5 31l15 132h441l-71 -580q-56 -40 -115.5 -69.5t-125.5 -49.5t-139 -29.5t-157 -9.5q-134 0 -244 48.5t-188 135t-120.5 206.5t-42.5 261zM756 1584l239 280q10 13 19 20t19.5 11.5 t23 5.5t30.5 1h225l-338 -293q-19 -16 -34.5 -20.5t-39.5 -4.5h-144z" />
<glyph unicode="&#x1f5;" horiz-adv-x="1010" d="M-61 -106q0 69 29 120.5t78 87.5t113.5 58.5t136 33t144 9t138.5 -12.5q-6 17 -10.5 36t-4.5 39q0 31 9 64t28 72q-39 -27 -87.5 -41t-114.5 -14q-59 0 -112.5 19.5t-93 58.5t-63 97.5t-23.5 136.5q0 75 28 148t82.5 129t135 91t185.5 35q57 0 107.5 -13.5t92.5 -39.5 h289l-9 -73q-6 -45 -46 -58l-116 -26q6 -24 9.5 -49t3.5 -53q0 -49 -11 -88t-27.5 -72.5t-35.5 -63t-35 -59.5t-26.5 -62t-10.5 -70q0 -42 19 -77.5t42 -73t42 -80.5t19 -99q-1 -76 -35.5 -143.5t-98.5 -118.5t-155.5 -81.5t-207.5 -30.5q-93 0 -169 19.5t-129 54.5 t-81.5 83t-28.5 107zM147 -80q0 -67 55.5 -101.5t163.5 -34.5q62 0 113 16t87.5 43.5t56.5 64.5t20 79q0 38 -9 70q-129 22 -220.5 18.5t-151 -25t-87.5 -56t-28 -74.5zM307 656q0 -84 39.5 -129.5t113.5 -45.5q50 0 88.5 22.5t64.5 59.5t40 83.5t15 93.5q0 83 -41 126 t-115 43q-50 0 -88 -21t-64 -56t-39.5 -80.5t-13.5 -95.5zM473 1193l164 248q16 26 35 38t54 12h197l-258 -265q-17 -18 -32 -25.5t-39 -7.5h-121z" />
<glyph unicode="&#x1f6;" horiz-adv-x="2019" d="M88 0l181 1475h232l-80 -648h669l78 648h232l-129 -1045q-17 -140 16.5 -206t111.5 -66q71 0 133.5 41t109.5 117t74.5 184.5t27.5 243.5q0 67 -23 103t-76 36q-18 0 -33 -5t-26 -5q-36 0 -36 41l-4 120q42 14 86 20t91 6q69 0 115.5 -23.5t74 -63t39.5 -91t12 -106.5 q0 -127 -24 -235t-66 -196t-99.5 -155.5t-123 -113t-136.5 -68.5t-142 -23q-79 0 -146.5 23.5t-114 76.5t-67 137.5t-5.5 207.5l28 229h-668l-81 -659h-231z" />
<glyph unicode="&#x1f7;" horiz-adv-x="1355" d="M46 -347l223 1822h121q36 0 55.5 -18t18.5 -55l-15 -240q49 74 107.5 134.5t125.5 103t138.5 66t145.5 23.5q90 0 157.5 -33.5t112.5 -92t67.5 -138.5t21.5 -172q0 -179 -73 -336t-206 -290t-318 -242t-411 -192l-42 -340h-229zM341 186q178 80 317.5 169.5t235 193 t146 222.5t50.5 257q0 55 -13 103.5t-39 84t-67 56t-98 20.5q-68 0 -137 -37t-131 -98.5t-110.5 -141.5t-72.5 -165z" />
<glyph unicode="&#x1f8;" horiz-adv-x="1462" d="M89 0l181 1475h120q31 0 45 -6.5t28 -31.5l603 -1061q3 56 9 100l123 999h204l-182 -1475h-117q-28 0 -45.5 9.5t-32.5 32.5l-601 1061q-2 -24 -3.5 -45t-3.5 -39l-125 -1019h-203zM575 1921h191q34 0 49.5 -12.5t27.5 -37.5l108 -248h-116q-23 0 -36.5 7t-26.5 26z" />
<glyph unicode="&#x1f9;" horiz-adv-x="1097" d="M51 0l125 1047h111q36 0 54.5 -18t18.5 -56l-10 -165q81 127 181.5 190t206.5 63q66 0 117 -26t84 -77t45 -124.5t1 -168.5l-79 -665h-219l79 665q14 112 -13 162.5t-98 50.5q-45 0 -92.5 -26t-91 -72.5t-81.5 -112.5t-62 -147l-58 -520h-219zM302 1491h191 q34 0 49.5 -12.5t27.5 -37.5l108 -248h-116q-23 0 -36.5 7t-26.5 26z" />
<glyph unicode="&#x1fa;" horiz-adv-x="1312" d="M-75 0l718 1475h235l356 -1475h-178q-31 0 -48 15t-24 39l-70 331h-574l-152 -331q-10 -22 -32 -38t-51 -16h-180zM417 551h463l-117 552q-5 32 -13 73t-15 90q-17 -49 -34.5 -90.5t-31.5 -74.5zM605 1704q4 40 22.5 72.5t45.5 57t60.5 37t68.5 12.5q36 0 67 -12.5 t52.5 -37t32.5 -57t6 -72.5q-4 -39 -21.5 -72t-45 -56t-61 -35.5t-70.5 -12.5q-36 0 -66 12.5t-51.5 35.5t-32.5 56t-7 72zM697 1704q-5 -40 14.5 -66t60.5 -26q39 0 65 26t31 66q5 43 -16 68t-58 25q-41 0 -66.5 -25t-30.5 -68zM713 1929l204 202q10 13 19.5 20.5 t20.5 11.5t23 5t30 1h227l-307 -216q-18 -16 -33 -20t-39 -4h-145z" />
<glyph unicode="&#x1fb;" horiz-adv-x="1057" d="M43 355q0 93 23.5 182t66.5 167t103.5 143.5t135 113t161.5 73.5t182 26q69 0 136.5 -11t131.5 -37l-125 -1012h-116q-42 0 -57 21.5t-15 53.5l13 169q-36 -59 -76.5 -107t-85.5 -81.5t-95 -52t-104 -18.5q-60 0 -111.5 23.5t-88.5 70.5t-58 116t-21 160zM262 395 q0 -117 37.5 -172.5t106.5 -55.5q46 0 90 30t83 83t73 124.5t59 155.5l42 337q-17 2 -34.5 3t-34.5 1q-88 0 -165.5 -41t-134 -110.5t-89.5 -161t-33 -193.5zM541 1353q5 45 25 82.5t50 64t68 41t78 14.5q41 0 76 -14.5t60 -41t36.5 -64t6.5 -82.5q-5 -44 -25.5 -81t-51 -63 t-69 -40.5t-79.5 -14.5q-40 0 -74 14.5t-58.5 40.5t-36 63t-6.5 81zM651 1353q-5 -43 15.5 -70t63.5 -27q40 0 67 27t32 70q5 44 -16 70.5t-60 26.5q-43 0 -70 -26.5t-32 -70.5zM704 1616l164 249q16 26 35 38t52 12h197l-256 -266q-17 -17 -32 -25t-39 -8h-121z" />
<glyph unicode="&#x1fc;" horiz-adv-x="1780" d="M-74 0l869 1475h1005l-22 -188h-682v-454h499l-21 -181h-478v-465h546l-23 -187h-740v385h-497l-188 -331q-12 -22 -35.5 -38t-53.5 -16h-179zM476 551h403v734q-16 -43 -34 -79.5t-36 -68.5zM1186 1584l239 280q10 13 19 20t19.5 11.5t23 5.5t30.5 1h225l-338 -293 q-19 -16 -34.5 -20.5t-39.5 -4.5h-144z" />
<glyph unicode="&#x1fd;" horiz-adv-x="1525" d="M11 232q0 71 31.5 137t104 119t192.5 86t297 38l6 52q14 115 -22 170.5t-119 55.5q-58 0 -99 -16t-72 -34.5t-56 -34t-51 -15.5q-22 0 -36 11t-22 27l-29 69q91 83 185.5 124.5t203.5 41.5t172 -45.5t89 -125.5q62 80 149.5 124t198.5 44q63 0 117.5 -20.5t94 -56 t62.5 -82.5t23 -101q0 -57 -27 -113t-95.5 -101.5t-186.5 -75t-303 -33.5v-22q0 -151 59 -224t163 -73q71 0 118 19.5t80.5 42.5t58.5 42.5t53 19.5q22 0 40 -21l55 -67q-53 -54 -104 -94t-104.5 -65.5t-112 -37.5t-127.5 -12q-103 0 -185 54t-125 164q-34 -58 -79 -100.5 t-95.5 -68.5t-104 -38t-103.5 -12q-144 0 -219.5 63t-75.5 185zM216 260q0 -66 35 -97t95 -31q49 0 93 17t79.5 52.5t59.5 89.5t33 128l9 61q-115 -5 -192.5 -23t-124.5 -46.5t-67 -66.5t-20 -84zM739 1193l164 248q16 26 35 38t54 12h197l-258 -265q-17 -18 -32 -25.5 t-39 -7.5h-121zM831 604q123 8 202.5 25.5t125 41.5t63 54.5t17.5 62.5q0 51 -33.5 83.5t-99.5 32.5q-57 0 -103 -21.5t-80 -60.5t-57 -94t-35 -124z" />
<glyph unicode="&#x1fe;" horiz-adv-x="1534" d="M38 -113l219 277q-80 87 -123 206.5t-43 263.5q0 124 27 235.5t76.5 206.5t120 172t157.5 131t188.5 83t213.5 29q104 0 192 -27.5t159 -80.5l78 99q13 15 24 26.5t22.5 18.5t25 10t32.5 3h119l-200 -252q71 -87 109 -201t38 -248q0 -123 -27 -234.5t-76.5 -206.5 t-120 -171t-157.5 -130t-188.5 -83t-214.5 -29q-96 0 -177.5 23.5t-149.5 66.5l-98 -123q-30 -36 -66 -50.5t-69 -14.5h-91zM328 641q0 -89 19 -163.5t54 -132.5l689 868q-47 41 -108 62.5t-135 21.5q-116 0 -211.5 -46.5t-164 -132.5t-106 -207t-37.5 -270zM496 243 q45 -32 99.5 -49t119.5 -17q117 0 212.5 46.5t164 132t106 207t37.5 271.5q0 79 -15 146t-42 122zM727 1584l239 280q10 13 19 20t19.5 11.5t23 5.5t30.5 1h225l-338 -293q-19 -16 -34.5 -20.5t-39.5 -4.5h-144z" />
<glyph unicode="&#x1ff;" horiz-adv-x="1064" d="M-3 -54l137 188q-39 55 -60.5 126.5t-21.5 160.5q0 134 42.5 250.5t116 203.5t172 136.5t211.5 49.5q122 0 216 -59l23 31q12 16 22 28t21 19t24.5 10.5t33.5 3.5h109l-135 -185q39 -54 60.5 -125t21.5 -159t-19.5 -170t-54 -153.5t-84.5 -129.5t-110 -99.5t-130 -64.5 t-145 -23q-122 0 -215 57l-21 -30q-27 -36 -62.5 -51t-70.5 -15h-81zM258 423q0 -36 4 -67t12 -58l416 569q-48 36 -116 36q-70 0 -127.5 -36.5t-99.5 -100.5t-65.5 -152t-23.5 -191zM352 178q48 -36 116 -36q69 0 127 36.5t99.5 101t65 152.5t23.5 192q0 70 -15 121z M525 1193l164 248q16 26 35 38t54 12h197l-258 -265q-17 -18 -32 -25.5t-39 -7.5h-121z" />
<glyph unicode="&#x200;" horiz-adv-x="1312" d="M-75 0l718 1475h235l356 -1475h-178q-31 0 -48 15t-24 39l-70 331h-574l-152 -331q-10 -22 -32 -38t-51 -16h-180zM303 1865h153q34 0 55 -13.5t36 -36.5l148 -231h-110q-23 0 -38.5 8.5t-32.5 24.5zM417 551h463l-117 552q-5 32 -13 73t-15 90q-17 -49 -34.5 -90.5 t-31.5 -74.5zM667 1865h132q35 0 55 -13.5t31 -36.5l108 -231h-96q-24 0 -37 9t-28 24z" />
<glyph unicode="&#x201;" horiz-adv-x="1057" d="M43 355q0 93 23.5 182t66.5 167t103.5 143.5t135 113t161.5 73.5t182 26q69 0 136.5 -11t131.5 -37l-125 -1012h-116q-42 0 -57 21.5t-15 53.5l13 169q-36 -59 -76.5 -107t-85.5 -81.5t-95 -52t-104 -18.5q-60 0 -111.5 23.5t-88.5 70.5t-58 116t-21 160zM262 395 q0 -117 37.5 -172.5t106.5 -55.5q46 0 90 30t83 83t73 124.5t59 155.5l42 337q-17 2 -34.5 3t-34.5 1q-88 0 -165.5 -41t-134 -110.5t-89.5 -161t-33 -193.5zM305 1491h145q35 0 50 -13t27 -37l140 -248h-95q-24 0 -38 7t-28 26zM617 1491h132q35 0 51.5 -12.5t25.5 -37.5 l96 -248h-83q-24 0 -38.5 6.5t-25.5 26.5z" />
<glyph unicode="&#x202;" horiz-adv-x="1312" d="M-75 0l718 1475h235l356 -1475h-178q-31 0 -48 15t-24 39l-70 331h-574l-152 -331q-10 -22 -32 -38t-51 -16h-180zM417 551h463l-117 552q-5 32 -13 73t-15 90q-17 -49 -34.5 -90.5t-31.5 -74.5zM466 1582q8 71 34 122.5t68.5 86t99.5 51t126 16.5t121.5 -19t87 -54.5 t49.5 -86.5t8 -116h-156q8 68 -19 104.5t-107 36.5q-79 0 -114.5 -37t-42.5 -104h-155z" />
<glyph unicode="&#x203;" horiz-adv-x="1057" d="M43 355q0 93 23.5 182t66.5 167t103.5 143.5t135 113t161.5 73.5t182 26q69 0 136.5 -11t131.5 -37l-125 -1012h-116q-42 0 -57 21.5t-15 53.5l13 169q-36 -59 -76.5 -107t-85.5 -81.5t-95 -52t-104 -18.5q-60 0 -111.5 23.5t-88.5 70.5t-58 116t-21 160zM262 395 q0 -117 37.5 -172.5t106.5 -55.5q46 0 90 30t83 83t73 124.5t59 155.5l42 337q-17 2 -34.5 3t-34.5 1q-88 0 -165.5 -41t-134 -110.5t-89.5 -161t-33 -193.5zM423 1206q6 57 26 109t56 91t90.5 61.5t131.5 22.5t126.5 -22.5t76.5 -61.5t35 -90.5t1 -109.5h-141q3 32 0 58 t-16 45t-37 29.5t-62 10.5t-64 -10.5t-43 -29.5t-26 -45t-12 -58h-142z" />
<glyph unicode="&#x204;" horiz-adv-x="1099" d="M89 0l181 1475h850l-23 -188h-618l-55 -453h492l-23 -181h-492l-57 -466h620l-24 -187h-851zM266 1865h153q34 0 55 -13.5t36 -36.5l148 -231h-110q-23 0 -38.5 8.5t-32.5 24.5zM630 1865h132q35 0 55 -13.5t31 -36.5l108 -231h-96q-24 0 -37 9t-28 24z" />
</font>
</defs>
</svg>
